SplineFontDB: 3.2
FontName: Blissymbolics-Courier
FullName: Blissymbolics Courier
FamilyName: Blissymbolics
Weight: Book
Copyright: Copyright 2004-2023 Hyper Quantum Pty Ltd.
FontLog: "V 1.0: Original generation commenced in 2004. It is based on the standard +ACIA-Courier New+ACIA (as a starting point, but is built to contain the Blissymbolics characters.  The original courier characters have been resized to their relative Blissymbolics size and somewhat reshaped.+AAoA-V 1.1: Work in 2011 to ensure completeness of the font, based on the complete character set of Charles Bliss' Semtography book.  Further standard character set reshaping.+AAoA-V 1.2: Work at the start of 2012 to finalise the font set to meet the needs of the Blissymbolic font set.  Also contains some extended characters at the end which are not actually used but which would complete the font set.+AAoA-V 1.3: Work at the end of 2023 to make minor changes, basically adding in some useful characters to handle debugging presentation for the Cell_Writer handwriting recognition application."
Version: 1.2
ItalicAngle: 0
UnderlinePosition: -600
UnderlineWidth: 84
Ascent: 1638
Descent: 410
InvalidEm: 0
sfntRevision: 0x00010000
LayerCount: 2
Layer: 0 1 "Back" 1
Layer: 1 1 "Fore" 0
XUID: [1021 877 568058504 2420937]
FSType: 8
OS2Version: 2
OS2_WeightWidthSlopeOnly: 0
OS2_UseTypoMetrics: 1
CreationTime: 1107583284
ModificationTime: 1704349894
PfmFamily: 49
TTFWeight: 400
TTFWidth: 5
LineGap: 2
VLineGap: 0
Panose: 2 0 5 9 0 0 0 0 0 0
OS2TypoAscent: 0
OS2TypoAOffset: 1
OS2TypoDescent: 0
OS2TypoDOffset: 1
OS2TypoLinegap: 2
OS2WinAscent: 0
OS2WinAOffset: 1
OS2WinDescent: 0
OS2WinDOffset: 1
HheadAscent: 0
HheadAOffset: 1
HheadDescent: 0
HheadDOffset: 1
OS2SubXSize: 1331
OS2SubYSize: 1433
OS2SubXOff: 0
OS2SubYOff: 286
OS2SupXSize: 1331
OS2SupYSize: 1433
OS2SupXOff: 0
OS2SupYOff: 983
OS2StrikeYSize: 102
OS2StrikeYPos: 530
OS2FamilyClass: 3075
OS2Vendor: 'PfEd'
OS2CodePages: 00000001.c0d40000

StartChar: .notdef
Encoding: 65536 -1 0
Width: 886
Flags: W
LayerCount: 2
Fore
SplineSet
68 0 m 1,0,-1
 68 1365 l 1,1,-1
 750 1365 l 1,2,-1
 750 0 l 1,3,-1
 68 0 l 1,0,-1
136 68 m 1,4,-1
 682 68 l 1,5,-1
 682 1297 l 1,6,-1
 136 1297 l 1,7,-1
 136 68 l 1,4,-1
EndSplineSet
Validated: 1
EndChar

StartChar: exclam
Encoding: 33 33 4
Width: 600
GlyphClass: 2
Flags: W
LayerCount: 2
Fore
SplineSet
337 153 m 0,0,1
 337 191 337 191 376 202 c 0,2,3
 386 205 386 205 398 205 c 0,4,5
 445 205 445 205 457 169 c 1,6,-1
 460 153 l 1,7,8
 460 115 460 115 421 103 c 0,9,10
 411 100 411 100 398 100 c 0,11,12
 353 100 353 100 340 135 c 0,13,14
 337 143 337 143 337 153 c 0,0,1
360 477 m 1,15,-1
 360 480 l 1,16,17
 366 517 366 517 398 521 c 1,18,19
 434 515 434 515 437 480 c 1,20,-1
 437 477 l 1,21,-1
 425 262 l 1,22,23
 425 242 425 242 405 238 c 0,24,25
 402 237 402 237 398 237 c 0,26,27
 377 237 377 237 372 257 c 0,28,29
 371 260 371 260 371 262 c 2,30,-1
 360 477 l 1,15,-1
EndSplineSet
Validated: 1
EndChar

StartChar: quotedbl
Encoding: 34 34 5
Width: 600
VWidth: 2648
GlyphClass: 2
Flags: W
LayerCount: 2
Fore
SplineSet
327 1153 m 2,0,1
 312 1153 312 1153 310 1173 c 2,2,-1
 300 1295 l 1,3,-1
 300 1299 l 2,4,5
 300 1316 300 1316 314 1316 c 2,6,-1
 358 1316 l 2,7,8
 374 1316 374 1316 374 1299 c 2,9,-1
 374 1295 l 1,10,-1
 364 1173 l 1,11,12
 356 1155 356 1155 347 1153 c 1,13,-1
 327 1153 l 2,0,1
450 1153 m 2,14,15
 435 1153 435 1153 433 1173 c 2,16,-1
 423 1295 l 1,17,-1
 423 1299 l 2,18,19
 423 1316 423 1316 438 1316 c 2,20,-1
 482 1316 l 2,21,22
 497 1316 497 1316 497 1299 c 2,23,-1
 497 1295 l 1,24,-1
 487 1173 l 1,25,26
 479 1155 479 1155 470 1153 c 1,27,-1
 450 1153 l 2,14,15
EndSplineSet
Validated: 1
EndChar

StartChar: numbersign
Encoding: 35 35 6
Width: 600
GlyphClass: 2
Flags: W
LayerCount: 2
Fore
SplineSet
363 103 m 2,0,1
 362 82 362 82 341 82 c 0,2,3
 323 82 323 82 322 103 c 1,4,-1
 322 105 l 1,5,-1
 330 245 l 1,6,-1
 289 245 l 2,7,8
 267 245 267 245 267 268 c 0,9,10
 267 290 267 290 289 290 c 2,11,-1
 333 290 l 1,12,-1
 336 368 l 1,13,-1
 289 368 l 2,14,15
 267 368 267 368 267 391 c 0,16,17
 267 412 267 412 289 412 c 2,18,-1
 338 412 l 1,19,-1
 346 556 l 2,20,21
 348 576 348 576 366 576 c 0,22,23
 387 576 387 576 387 555 c 2,24,-1
 387 554 l 1,25,-1
 380 412 l 1,26,-1
 428 412 l 1,27,-1
 436 556 l 2,28,29
 438 576 438 576 456 576 c 0,30,31
 477 576 477 576 477 555 c 2,32,-1
 477 554 l 1,33,-1
 469 412 l 1,34,-1
 510 412 l 2,35,36
 531 412 531 412 531 391 c 0,37,38
 531 368 531 368 510 368 c 2,39,-1
 468 368 l 1,40,-1
 464 290 l 1,41,-1
 510 290 l 2,42,43
 531 290 531 290 531 268 c 0,44,45
 531 245 531 245 510 245 c 2,46,-1
 461 245 l 1,47,-1
 454 103 l 2,48,49
 452 82 452 82 432 82 c 256,50,51
 412 82 412 82 412 104 c 2,52,-1
 412 105 l 1,53,-1
 419 245 l 1,54,-1
 371 245 l 1,55,-1
 363 103 l 2,0,1
373 290 m 1,56,-1
 422 290 l 1,57,-1
 427 368 l 1,58,-1
 377 368 l 1,59,-1
 373 290 l 1,56,-1
EndSplineSet
Validated: 1
EndChar

StartChar: dollar
Encoding: 36 36 7
Width: 600
GlyphClass: 2
Flags: W
LayerCount: 2
Fore
SplineSet
439 300 m 2,0,1
 532 270 532 270 532 196 c 0,2,3
 532 134 532 134 470 108 c 1,4,-1
 438 98 l 1,5,6
 426 96 426 96 412 95 c 1,7,-1
 408 18 l 1,8,9
 408 -10 408 -10 384 -10 c 1,10,11
 364 -4 364 -4 362 16 c 1,12,-1
 362 22 l 1,13,-1
 366 97 l 1,14,15
 340 101 340 101 314 119 c 1,16,17
 304 104 304 104 291 104 c 1,18,19
 265 110 265 110 262 137 c 1,20,-1
 262 183 l 2,21,22
 262 205 262 205 282 209 c 0,23,24
 285 210 285 210 289 210 c 0,25,26
 308 210 308 210 316 186 c 1,27,-1
 321 173 l 1,28,29
 332 154 332 154 376 144 c 0,30,31
 391 141 391 141 406 141 c 0,32,33
 459 141 459 141 472 177 c 0,34,35
 475 185 475 185 475 193 c 0,36,37
 475 224 475 224 437 242 c 0,38,39
 426 247 426 247 401 256 c 2,40,-1
 344 275 l 1,41,42
 288 295 288 295 274 347 c 0,43,44
 271 359 271 359 271 372 c 0,45,46
 271 441 271 441 342 463 c 0,47,48
 360 468 360 468 382 470 c 1,49,-1
 384 496 l 2,50,51
 386 523 386 523 408 523 c 0,52,53
 431 523 431 523 431 499 c 2,54,-1
 431 495 l 1,55,-1
 429 468 l 1,56,57
 453 462 453 462 476 452 c 1,58,59
 486 463 486 463 495 463 c 0,60,61
 517 463 517 463 518 436 c 1,62,-1
 518 395 l 2,63,64
 518 370 518 370 495 370 c 0,65,66
 478 370 478 370 470 389 c 0,67,68
 467 397 467 397 466 399 c 0,69,70
 451 427 451 427 399 427 c 0,71,72
 339 427 339 427 328 388 c 0,73,74
 326 382 326 382 326 375 c 0,75,76
 326 338 326 338 375 321 c 2,77,-1
 439 300 l 2,0,1
EndSplineSet
Validated: 1
EndChar

StartChar: percent
Encoding: 37 37 8
Width: 600
GlyphClass: 2
Flags: W
LayerCount: 2
Fore
SplineSet
264 435 m 0,0,1
 264 486 264 486 310 512 c 0,2,3
 333 524 333 524 361 524 c 0,4,5
 421 524 421 524 446 478 c 1,6,-1
 455 455 l 1,7,8
 457 445 457 445 457 435 c 0,9,10
 457 381 457 381 410 356 c 0,11,12
 388 345 388 345 361 345 c 0,13,14
 301 345 301 345 275 392 c 0,15,16
 264 412 264 412 264 435 c 0,0,1
341 195 m 0,17,18
 341 248 341 248 388 272 c 0,19,20
 411 284 411 284 438 284 c 0,21,22
 499 284 499 284 524 237 c 0,23,24
 534 218 534 218 534 195 c 0,25,26
 534 142 534 142 487 117 c 0,27,28
 465 106 465 106 438 106 c 0,29,30
 378 106 378 106 352 153 c 0,31,32
 341 172 341 172 341 195 c 0,17,18
503 376 m 2,33,34
 508 379 508 379 512 379 c 0,35,36
 529 379 529 379 530 360 c 0,37,38
 530 347 530 347 517 342 c 2,39,-1
 295 254 l 2,40,41
 289 252 289 252 287 252 c 0,42,43
 271 252 271 252 268 270 c 1,44,45
 268 282 268 282 282 289 c 1,46,-1
 503 376 l 2,33,34
306 435 m 0,47,48
 306 397 306 397 342 387 c 0,49,50
 351 385 351 385 361 385 c 0,51,52
 404 385 404 385 414 420 c 0,53,54
 416 427 416 427 416 435 c 0,55,56
 416 473 416 473 380 483 c 1,57,-1
 361 485 l 1,58,59
 318 485 318 485 308 450 c 0,60,61
 306 443 306 443 306 435 c 0,47,48
382 195 m 0,62,63
 382 158 382 158 418 148 c 0,64,65
 427 145 427 145 438 145 c 0,66,67
 481 145 481 145 491 180 c 0,68,69
 493 187 493 187 493 195 c 0,70,71
 493 233 493 233 457 243 c 1,72,-1
 438 245 l 1,73,74
 396 245 396 245 384 211 c 0,75,76
 382 203 382 203 382 195 c 0,62,63
EndSplineSet
Validated: 1
EndChar

StartChar: ampersand
Encoding: 38 38 9
Width: 600
GlyphClass: 2
Flags: W
LayerCount: 2
Fore
SplineSet
425 167 m 1,0,-1
 351 267 l 1,1,2
 313 239 313 239 313 202 c 0,3,4
 313 163 313 163 346 147 c 0,5,6
 358 141 358 141 371 141 c 0,7,8
 397 141 397 141 425 167 c 1,0,-1
454 128 m 1,9,10
 410 90 410 90 357 90 c 0,11,12
 299 90 299 90 270 139 c 0,13,14
 255 165 255 165 255 196 c 0,15,16
 255 255 255 255 317 302 c 0,17,18
 319 304 319 304 322 306 c 1,19,20
 291 352 291 352 291 384 c 0,21,22
 291 432 291 432 334 455 c 0,23,24
 355 467 355 467 380 467 c 0,25,26
 403 467 403 467 439 448 c 1,27,-1
 447 448 l 2,28,29
 470 448 470 448 470 429 c 0,30,31
 470 409 470 409 452 400 c 1,32,-1
 444 398 l 1,33,34
 439 398 439 398 413 413 c 0,35,36
 396 423 396 423 382 423 c 0,37,38
 353 423 353 423 345 398 c 0,39,40
 344 392 344 392 344 387 c 0,41,42
 344 369 344 369 374 327 c 2,43,-1
 455 215 l 1,44,-1
 476 282 l 1,45,46
 482 293 482 293 495 293 c 2,47,-1
 515 293 l 2,48,49
 528 293 528 293 532 276 c 0,50,51
 533 272 533 272 533 268 c 0,52,53
 533 248 533 248 518 244 c 1,54,-1
 512 243 l 1,55,56
 505 212 505 212 487 174 c 1,57,-1
 507 146 l 1,58,-1
 516 146 l 2,59,60
 528 146 528 146 530 123 c 1,61,62
 530 98 530 98 513 97 c 1,63,-1
 485 97 l 2,64,65
 478 97 478 97 464 115 c 2,66,-1
 454 128 l 1,9,10
EndSplineSet
Validated: 1
EndChar

StartChar: quotesingle
Encoding: 39 39 10
Width: 600
VWidth: 2648
GlyphClass: 2
Flags: W
LayerCount: 2
Fore
SplineSet
387 1143 m 2,0,1
 373 1143 373 1143 371 1158 c 0,2,3
 370 1161 370 1161 370 1164 c 2,4,-1
 360 1290 l 1,5,-1
 360 1294 l 2,6,7
 360 1311 360 1311 375 1311 c 2,8,-1
 421 1311 l 2,9,10
 437 1311 437 1311 437 1294 c 2,11,-1
 437 1290 l 1,12,-1
 426 1164 l 2,13,14
 425 1144 425 1144 408 1143 c 1,15,-1
 387 1143 l 2,0,1
EndSplineSet
Validated: 1
EndChar

StartChar: parenleft
Encoding: 40 40 11
Width: 600
GlyphClass: 2
Flags: W
LayerCount: 2
Fore
SplineSet
465 562 m 0,0,1
 465 557 465 557 442 508 c 0,2,3
 440 502 440 502 437 496 c 0,4,5
 396 396 396 396 396 310 c 0,6,7
 396 227 396 227 428 145 c 1,8,-1
 464 62 l 1,9,-1
 465 58 l 1,10,11
 465 42 465 42 452 42 c 0,12,13
 428 42 428 42 389 105 c 0,14,15
 331 199 331 199 331 310 c 0,16,17
 331 420 331 420 389 514 c 0,18,19
 428 577 428 577 452 577 c 0,20,21
 465 577 465 577 465 562 c 0,0,1
EndSplineSet
Validated: 1
EndChar

StartChar: parenright
Encoding: 41 41 12
Width: 600
GlyphClass: 2
Flags: W
LayerCount: 2
Fore
SplineSet
332 58 m 0,0,1
 332 62 332 62 352 104 c 0,2,3
 356 114 356 114 360 123 c 0,4,5
 401 219 401 219 401 310 c 0,6,7
 401 391 401 391 369 475 c 1,8,-1
 333 557 l 2,9,10
 332 560 332 560 332 562 c 0,11,12
 332 577 332 577 345 577 c 0,13,14
 369 577 369 577 408 514 c 0,15,16
 466 420 466 420 466 310 c 0,17,18
 466 199 466 199 408 105 c 0,19,20
 369 42 369 42 345 42 c 0,21,22
 332 42 332 42 332 58 c 0,0,1
EndSplineSet
Validated: 1
EndChar

StartChar: asterisk
Encoding: 42 42 13
Width: 600
GlyphClass: 2
Flags: W
LayerCount: 2
Fore
SplineSet
418 514 m 1,0,-1
 506 551 l 2,1,2
 512 553 512 553 514 553 c 0,3,4
 518 553 518 553 523 541 c 1,5,-1
 531 516 l 1,6,-1
 533 507 l 1,7,8
 533 501 533 501 523 499 c 2,9,-1
 430 478 l 1,10,-1
 492 406 l 2,11,12
 497 401 497 401 497 397 c 0,13,14
 497 392 497 392 489 387 c 2,15,-1
 467 372 l 1,16,17
 460 366 460 366 457 366 c 0,18,19
 452 366 452 366 448 374 c 2,20,-1
 400 455 l 1,21,-1
 350 374 l 2,22,23
 345 366 345 366 341 366 c 0,24,25
 340 366 340 366 331 372 c 2,26,-1
 310 387 l 2,27,28
 302 392 302 392 302 397 c 256,29,30
 302 402 302 402 306 406 c 2,31,-1
 368 478 l 1,32,-1
 277 499 l 2,33,34
 266 501 266 501 266 506 c 256,35,36
 266 511 266 511 268 516 c 2,37,-1
 277 541 l 1,38,39
 280 553 280 553 285 553 c 128,-1,40
 290 553 290 553 293 551 c 2,41,-1
 381 514 l 1,42,-1
 372 608 l 1,43,-1
 372 612 l 2,44,45
 372 622 372 622 386 622 c 2,46,-1
 412 622 l 2,47,48
 427 622 427 622 427 612 c 2,49,-1
 427 608 l 1,50,-1
 418 514 l 1,0,-1
EndSplineSet
Validated: 1
EndChar

StartChar: plus
Encoding: 43 43 14
Width: 600
GlyphClass: 2
Flags: W
LayerCount: 2
Fore
SplineSet
542 350 m 2,0,1
 566 350 566 350 569 325 c 1,2,3
 564 305 564 305 542 302 c 1,4,-1
 423 302 l 1,5,-1
 423 178 l 2,6,7
 423 154 423 154 398 152 c 1,8,9
 380 152 380 152 374 170 c 0,10,11
 373 174 373 174 373 178 c 2,12,-1
 373 302 l 1,13,-1
 254 302 l 2,14,15
 231 302 231 302 228 325 c 1,16,17
 228 344 228 344 248 349 c 0,18,19
 251 350 251 350 254 350 c 2,20,-1
 373 350 l 1,21,-1
 373 474 l 2,22,23
 373 498 373 498 398 500 c 1,24,25
 421 500 421 500 423 474 c 1,26,-1
 423 350 l 1,27,-1
 542 350 l 2,0,1
EndSplineSet
Validated: 1
EndChar

StartChar: comma
Encoding: 44 44 15
Width: 600
GlyphClass: 2
Flags: W
LayerCount: 2
Fore
SplineSet
360 49 m 1,0,1
 370 65 370 65 381 67 c 1,2,-1
 454 67 l 2,3,4
 465 67 465 67 465 60 c 0,5,6
 465 57 465 57 462 51 c 2,7,-1
 371 -138 l 2,8,9
 366 -149 366 -149 356 -149 c 0,10,11
 354 -149 354 -149 350 -147 c 2,12,-1
 327 -139 l 2,13,14
 317 -135 317 -135 317 -126 c 2,15,-1
 317 -118 l 1,16,-1
 360 49 l 1,0,1
EndSplineSet
Validated: 1
EndChar

StartChar: hyphen
Encoding: 45 45 16
Width: 600
GlyphClass: 2
Flags: W
LayerCount: 2
Fore
SplineSet
262 339 m 2,0,1
 247 339 247 339 247 354 c 2,2,-1
 247 389 l 2,3,4
 247 403 247 403 262 403 c 2,5,-1
 535 403 l 2,6,7
 551 403 551 403 551 389 c 2,8,-1
 551 354 l 2,9,10
 551 342 551 342 535 339 c 1,11,-1
 262 339 l 2,0,1
EndSplineSet
Validated: 1
EndChar

StartChar: period
Encoding: 46 46 17
Width: 600
GlyphClass: 2
Flags: W
LayerCount: 2
Fore
SplineSet
333 97 m 0,0,1
 333 138 333 138 372 152 c 0,2,3
 384 156 384 156 398 156 c 0,4,5
 445 156 445 156 459 119 c 0,6,7
 463 109 463 109 463 97 c 0,8,9
 463 55 463 55 423 42 c 1,10,-1
 398 38 l 1,11,12
 351 38 351 38 337 75 c 0,13,14
 333 85 333 85 333 97 c 0,0,1
EndSplineSet
Validated: 1
EndChar

StartChar: slash
Encoding: 47 47 18
Width: 600
GlyphClass: 2
Flags: W
LayerCount: 2
Fore
SplineSet
323 128 m 2,0,1
 311 100 311 100 294 100 c 0,2,3
 278 100 278 100 272 115 c 0,4,5
 271 119 271 119 271 123 c 0,6,7
 271 130 271 130 274 136 c 2,8,-1
 481 580 l 2,9,10
 493 607 493 607 510 609 c 1,11,12
 530 604 530 604 534 587 c 1,13,14
 534 581 534 581 531 575 c 2,15,-1
 323 128 l 2,0,1
EndSplineSet
Validated: 1
EndChar

StartChar: zero
Encoding: 48 48 19
Width: 300
GlyphClass: 2
Flags: W
LayerCount: 2
Fore
SplineSet
150 103 m 0,0,1
 71 103 71 103 36 194 c 0,2,3
 15 247 15 247 15 322 c 0,4,5
 15 471 15 471 88 522 c 0,6,7
 115 541 115 541 150 541 c 0,8,9
 231 541 231 541 266 448 c 1,10,-1
 278 403 l 1,11,12
 285 366 285 366 285 322 c 0,13,14
 285 170 285 170 211 121 c 0,15,16
 184 103 184 103 150 103 c 0,0,1
150 494 m 1,17,18
 94 494 94 494 77 401 c 0,19,20
 70 367 70 367 70 322 c 0,21,22
 70 178 70 178 129 154 c 0,23,24
 139 150 139 150 150 150 c 0,25,26
 211 150 211 150 226 256 c 0,27,28
 230 286 230 286 230 322 c 0,29,30
 230 471 230 471 167 491 c 1,31,-1
 150 494 l 1,17,18
EndSplineSet
Validated: 1
EndChar

StartChar: one
Encoding: 49 49 20
Width: 300
GlyphClass: 2
Flags: W
LayerCount: 2
Fore
SplineSet
72 457 m 2,0,1
 68 456 68 456 61 456 c 0,2,3
 39 456 39 456 38 476 c 0,4,5
 38 493 38 493 60 499 c 2,6,-1
 158 526 l 1,7,8
 170 528 170 528 172 528 c 0,9,10
 186 528 186 528 186 506 c 2,11,-1
 186 149 l 1,12,-1
 239 149 l 2,13,14
 276 149 276 149 281 139 c 1,15,-1
 284 126 l 1,16,17
 284 103 284 103 257 103 c 2,18,-1
 60 103 l 2,19,20
 34 103 34 103 34 126 c 0,21,22
 34 146 34 146 55 148 c 0,23,24
 62 149 62 149 79 149 c 2,25,-1
 134 149 l 1,26,-1
 134 472 l 1,27,-1
 72 457 l 2,0,1
EndSplineSet
Validated: 1
EndChar

StartChar: two
Encoding: 50 50 21
Width: 300
GlyphClass: 2
Flags: W
LayerCount: 2
Fore
SplineSet
49 103 m 2,0,1
 15 103 15 103 15 132 c 0,2,3
 15 152 15 152 56 192 c 1,4,5
 48 184 48 184 88 222 c 0,6,7
 178 308 178 308 192 325 c 0,8,9
 230 368 230 368 230 405 c 0,10,11
 230 460 230 460 187 478 c 0,12,13
 173 484 173 484 157 484 c 0,14,15
 111 484 111 484 87 452 c 1,16,-1
 72 430 l 1,17,18
 64 422 64 422 51 422 c 1,19,20
 33 431 33 431 32 456 c 0,21,22
 32 475 32 475 43 485 c 0,23,24
 88 530 88 530 159 530 c 256,25,26
 230 530 230 530 267 476 c 0,27,28
 287 446 287 446 287 408 c 0,29,30
 287 351 287 351 225 286 c 1,31,-1
 131 194 l 1,32,-1
 91 155 l 1,33,-1
 241 155 l 1,34,35
 244 184 244 184 266 184 c 256,36,37
 288 184 288 184 290 157 c 1,38,-1
 289 151 l 1,39,-1
 289 150 l 1,40,-1
 286 124 l 2,41,42
 283 103 283 103 267 103 c 2,43,-1
 49 103 l 2,0,1
EndSplineSet
Validated: 1
EndChar

StartChar: three
Encoding: 51 51 22
Width: 300
GlyphClass: 2
Flags: W
LayerCount: 2
Fore
SplineSet
191 342 m 1,0,1
 263 323 263 323 271 251 c 0,2,3
 272 243 272 243 272 235 c 0,4,5
 272 162 272 162 210 125 c 0,6,7
 174 104 174 104 126 104 c 0,8,9
 52 104 52 104 13 138 c 0,10,11
 -3 152 -3 152 -3 166 c 1,12,13
 2 185 2 185 22 188 c 0,14,15
 27 188 27 188 62 171.5 c 128,-1,16
 97 155 97 155 128 155 c 0,17,18
 188 155 188 155 209 201 c 0,19,20
 216 217 216 217 216 235 c 0,21,22
 216 290 216 290 166 307 c 0,23,24
 160 310 160 310 153 311 c 2,25,-1
 111 316 l 1,26,27
 101 320 101 320 101 337 c 256,28,29
 101 354 101 354 114 357 c 2,30,-1
 146 362 l 2,31,32
 188 368 188 368 200 405 c 0,33,34
 203 414 203 414 203 424 c 0,35,36
 203 473 203 473 163 490 c 0,37,38
 150 496 150 496 135 496 c 0,39,40
 107 496 107 496 65 471 c 1,41,-1
 46 462 l 2,42,43
 43 461 43 461 41 461 c 0,44,45
 23 461 23 461 20 482 c 1,46,47
 20 502 20 502 58 522 c 0,48,49
 95 542 95 542 139 542 c 0,50,51
 209 542 209 542 242 490 c 0,52,53
 258 464 258 464 258 434 c 0,54,55
 258 365 258 365 191 342 c 1,0,1
EndSplineSet
Validated: 1
EndChar

StartChar: four
Encoding: 52 52 23
Width: 300
GlyphClass: 2
Flags: W
LayerCount: 2
Fore
SplineSet
151 102 m 1,0,1
 126 110 126 110 124 126 c 1,2,3
 124 149 124 149 148 149 c 2,4,-1
 187 149 l 1,5,-1
 187 204 l 1,6,-1
 33 229 l 2,7,8
 15 232 15 232 15 250 c 2,9,-1
 15 273 l 2,10,11
 15 285 15 285 27 304 c 2,12,-1
 167 516 l 1,13,14
 173 528 173 528 183 528 c 2,15,-1
 192 528 l 1,16,-1
 225 522 l 2,17,18
 235 520 235 520 235 505 c 2,19,-1
 235 254 l 1,20,-1
 252 254 l 2,21,22
 259 254 259 254 265 262 c 0,23,24
 268 266 268 266 273 266 c 0,25,26
 288 266 288 266 288 250 c 0,27,28
 288 244 288 244 287 238 c 2,29,-1
 284 225 l 2,30,31
 280 206 280 206 263 204 c 1,32,-1
 235 204 l 1,33,-1
 235 149 l 1,34,-1
 247 149 l 1,35,36
 282 145 282 145 284 126 c 1,37,38
 284 102 284 102 258 102 c 2,39,-1
 151 102 l 1,0,1
187 254 m 1,40,-1
 187 478 l 1,41,-1
 62 254 l 1,42,-1
 187 254 l 1,40,-1
EndSplineSet
Validated: 1
EndChar

StartChar: five
Encoding: 53 53 24
Width: 300
GlyphClass: 2
Flags: W
LayerCount: 2
Fore
SplineSet
83 366 m 1,0,1
 126 382 126 382 158 382 c 0,2,3
 232 382 232 382 271 322 c 0,4,5
 293 287 293 287 293 242 c 0,6,7
 293 164 293 164 231 123 c 0,8,9
 192 97 192 97 141 97 c 0,10,11
 52 97 52 97 20 129 c 0,12,13
 11 138 11 138 11 148 c 0,14,15
 11 165 11 165 28 170 c 0,16,17
 31 171 31 171 34 171 c 0,18,19
 36 171 36 171 76 157 c 0,20,21
 109 145 109 145 138 145 c 0,22,23
 201 145 201 145 227 195 c 0,24,25
 237 216 237 216 237 240 c 0,26,27
 237 296 237 296 192 323 c 1,28,-1
 170 333 l 1,29,30
 158 336 158 336 145 336 c 0,31,32
 114 336 114 336 73 313 c 0,33,34
 60 306 60 306 53 306 c 1,35,36
 36 313 36 313 35 340 c 1,37,-1
 35 504 l 2,38,39
 35 524 35 524 65 524 c 2,40,-1
 232 524 l 2,41,42
 264 524 264 524 264 498 c 0,43,44
 264 473 264 473 232 473 c 2,45,-1
 83 473 l 1,46,-1
 83 366 l 1,0,1
EndSplineSet
Validated: 1
EndChar

StartChar: six
Encoding: 54 54 25
Width: 300
GlyphClass: 2
Flags: W
LayerCount: 2
Fore
SplineSet
70 333 m 1,0,1
 106 379 106 379 158 379 c 0,2,3
 221 379 221 379 259 325 c 1,4,5
 283 289 283 289 283 243 c 0,6,7
 283 163 283 163 225 126 c 0,8,9
 195 106 195 106 157 106 c 0,10,11
 73 106 73 106 35 187 c 0,12,13
 14 232 14 232 14 295 c 0,14,15
 14 436 14 436 99 503 c 0,16,17
 152 544 152 544 224 544 c 0,18,19
 270 544 270 544 276 530 c 1,20,-1
 277 522 l 1,21,22
 277 503 277 503 255 501 c 2,23,-1
 196 497 l 1,24,25
 110 481 110 481 80 380 c 0,26,27
 73 358 73 358 70 333 c 1,0,1
78 245 m 0,28,29
 78 183 78 183 122 161 c 0,30,31
 137 153 137 153 154 153 c 0,32,33
 200 153 200 153 219 199 c 0,34,35
 227 218 227 218 227 241 c 0,36,37
 227 302 227 302 184 324 c 0,38,39
 169 331 169 331 152 331 c 0,40,41
 106 331 106 331 86 286 c 0,42,43
 78 268 78 268 78 245 c 0,28,29
EndSplineSet
Validated: 1
EndChar

StartChar: seven
Encoding: 55 55 26
Width: 300
GlyphClass: 2
Flags: W
LayerCount: 2
Fore
SplineSet
155 116 m 1,0,1
 147 105 147 105 141 104 c 1,2,-1
 136 104 l 1,3,-1
 112 104 l 2,4,5
 98 104 98 104 98 114 c 0,6,7
 98 115 98 115 100 125 c 1,8,-1
 230 477 l 1,9,-1
 62 477 l 1,10,11
 61 446 61 446 38 446 c 0,12,13
 16 446 16 446 16 469 c 2,14,-1
 16 477 l 1,15,-1
 20 507 l 2,16,17
 22 526 22 526 42 526 c 2,18,-1
 260 526 l 2,19,20
 278 526 278 526 278 509 c 2,21,-1
 278 498 l 2,22,23
 278 488 278 488 272 470 c 2,24,-1
 155 116 l 1,0,1
EndSplineSet
Validated: 1
EndChar

StartChar: eight
Encoding: 56 56 27
Width: 300
GlyphClass: 2
Flags: W
LayerCount: 2
Fore
SplineSet
84 330 m 1,0,1
 20 363 20 363 20 427 c 0,2,3
 20 494 20 494 78 527 c 0,4,5
 109 544 109 544 150 544 c 0,6,7
 226 544 226 544 263 489 c 1,8,-1
 275 464 l 1,9,10
 281 446 281 446 281 427 c 0,11,12
 281 362 281 362 216 330 c 1,13,14
 285 302 285 302 285 229 c 0,15,16
 285 158 285 158 225 124 c 0,17,18
 192 106 192 106 150 106 c 0,19,20
 69 106 69 106 33 165 c 0,21,22
 16 194 16 194 16 230 c 0,23,24
 16 301 16 301 84 330 c 1,0,1
73 427 m 2,25,26
 73 379 73 379 115 360 c 0,27,28
 131 353 131 353 150 353 c 0,29,30
 203 353 203 353 221 396 c 0,31,32
 227 411 227 411 227 428 c 0,33,34
 227 473 227 473 187 493 c 0,35,36
 171 501 171 501 150 501 c 0,37,38
 97 501 97 501 79 458 c 1,39,-1
 73 434 l 1,40,-1
 73 427 l 2,25,26
70 229 m 0,41,42
 70 178 70 178 114 159 c 0,43,44
 130 152 130 152 150 152 c 0,45,46
 209 152 209 152 226 199 c 0,47,48
 231 213 231 213 231 229 c 0,49,50
 231 282 231 282 184 300 c 0,51,52
 169 306 169 306 150 306 c 0,53,54
 95 306 95 306 76 262 c 0,55,56
 70 247 70 247 70 229 c 0,41,42
EndSplineSet
Validated: 1
EndChar

StartChar: nine
Encoding: 57 57 28
Width: 300
GlyphClass: 2
Flags: W
LayerCount: 2
Fore
SplineSet
215 405 m 0,0,1
 215 467 215 467 171 489 c 0,2,3
 156 497 156 497 138 497 c 0,4,5
 91 497 91 497 74 450 c 0,6,7
 67 432 67 432 67 409 c 0,8,9
 67 348 67 348 110 326 c 0,10,11
 124 319 124 319 141 319 c 0,12,13
 186 319 186 319 206 362 c 0,14,15
 215 382 215 382 215 405 c 0,0,1
222 316 m 1,16,17
 186 271 186 271 136 271 c 0,18,19
 72 271 72 271 35 326 c 0,20,21
 11 361 11 361 11 406 c 0,22,23
 11 487 11 487 69 525 c 0,24,25
 98 544 98 544 136 544 c 0,26,27
 218 544 218 544 257 465 c 0,28,29
 273 433 273 433 278 390 c 0,30,31
 280 373 280 373 280 354 c 0,32,33
 280 212 280 212 192 145 c 0,34,35
 151 115 151 115 97 108 c 0,36,37
 82 106 82 106 67 106 c 0,38,39
 22 106 22 106 17 119 c 0,40,41
 16 123 16 123 16 128 c 0,42,43
 16 147 16 147 39 149 c 2,44,-1
 95 153 l 1,45,-1
 96 153 l 1,46,47
 190 172 190 172 216 282 c 0,48,49
 220 298 220 298 222 316 c 1,16,17
EndSplineSet
Validated: 1
EndChar

StartChar: colon
Encoding: 58 58 29
Width: 600
GlyphClass: 2
Flags: W
LayerCount: 2
Fore
SplineSet
333 157 m 0,0,1
 333 198 333 198 372 212 c 0,2,3
 384 216 384 216 398 216 c 0,4,5
 446 216 446 216 460 178 c 0,6,7
 463 168 463 168 463 157 c 0,8,9
 463 116 463 116 424 102 c 0,10,11
 412 98 412 98 398 98 c 0,12,13
 351 98 351 98 337 135 c 0,14,15
 333 145 333 145 333 157 c 0,0,1
333 340 m 0,16,17
 333 381 333 381 372 395 c 0,18,19
 384 399 384 399 398 399 c 0,20,21
 445 399 445 399 459 362 c 0,22,23
 463 352 463 352 463 340 c 0,24,25
 463 298 463 298 423 285 c 1,26,-1
 398 281 l 1,27,28
 351 281 351 281 337 318 c 0,29,30
 333 328 333 328 333 340 c 0,16,17
EndSplineSet
Validated: 1
EndChar

StartChar: semicolon
Encoding: 59 59 30
Width: 600
GlyphClass: 2
Flags: W
LayerCount: 2
Fore
SplineSet
332 219 m 0,0,1
 332 260 332 260 371 274 c 0,2,3
 383 278 383 278 397 278 c 0,4,5
 443 278 443 278 458 242 c 0,6,7
 463 231 463 231 463 219 c 0,8,9
 463 177 463 177 423 164 c 0,10,11
 411 160 411 160 397 160 c 0,12,13
 350 160 350 160 336 197 c 0,14,15
 332 207 332 207 332 219 c 0,0,1
358 63 m 1,16,17
 367 79 367 79 378 80 c 1,18,-1
 446 80 l 2,19,20
 456 80 456 80 456 73 c 0,21,22
 456 68 456 68 454 64 c 2,23,-1
 369 -113 l 2,24,25
 363 -124 363 -124 354 -124 c 0,26,27
 352 -124 352 -124 348 -122 c 2,28,-1
 327 -114 l 2,29,30
 317 -111 317 -111 317 -103 c 0,31,32
 317 -97 317 -97 318 -95 c 2,33,-1
 358 63 l 1,16,17
EndSplineSet
Validated: 1
EndChar

StartChar: less
Encoding: 60 60 31
Width: 600
GlyphClass: 2
Flags: W
LayerCount: 2
Fore
SplineSet
252 353 m 2,0,-1
 515 473 l 2,1,2
 531 481 531 481 541 481 c 0,3,4
 562 481 562 481 563 460 c 0,5,6
 563 444 563 444 536 431 c 2,7,-1
 302 320 l 1,8,-1
 536 209 l 2,9,10
 563 196 563 196 563 180 c 0,11,12
 563 160 563 160 541 159 c 0,13,14
 531 159 531 159 515 167 c 2,15,-1
 252 289 l 2,16,17
 225 302 225 302 221 310 c 0,18,19
 219 315 219 315 219 321 c 0,20,21
 219 337 219 337 238 346 c 0,22,23
 241 348 241 348 252 353 c 2,0,-1
EndSplineSet
Validated: 1
EndChar

StartChar: equal
Encoding: 61 61 32
Width: 600
GlyphClass: 2
Flags: W
LayerCount: 2
Fore
SplineSet
251 242 m 2,0,1
 230 242 230 242 230 267 c 0,2,3
 230 291 230 291 251 291 c 2,4,-1
 546 291 l 2,5,6
 567 291 567 291 567 267 c 0,7,8
 567 242 567 242 546 242 c 2,9,-1
 251 242 l 2,0,1
251 353 m 2,10,11
 230 353 230 353 230 377 c 0,12,13
 230 402 230 402 251 402 c 2,14,-1
 546 402 l 2,15,16
 567 402 567 402 567 377 c 0,17,18
 567 353 567 353 546 353 c 2,19,-1
 251 353 l 2,10,11
EndSplineSet
Validated: 1
EndChar

StartChar: greater
Encoding: 62 62 33
Width: 600
GlyphClass: 2
Flags: W
LayerCount: 2
Fore
SplineSet
545 292 m 1,0,-1
 283 172 l 1,1,2
 268 164 268 164 256 164 c 0,3,4
 235 164 235 164 235 185 c 0,5,6
 235 202 235 202 263 214 c 1,7,-1
 495 325 l 1,8,-1
 263 436 l 1,9,10
 235 448 235 448 235 465 c 0,11,12
 235 486 235 486 256 486 c 0,13,14
 265 486 265 486 283 478 c 2,15,-1
 545 356 l 2,16,17
 572 343 572 343 576 336 c 1,18,-1
 579 324 l 1,19,20
 579 308 579 308 559 298 c 1,21,-1
 545 292 l 1,0,-1
EndSplineSet
Validated: 1
EndChar

StartChar: question
Encoding: 63 63 34
Width: 600
GlyphClass: 2
Flags: W
LayerCount: 2
Fore
SplineSet
353 280 m 2,0,1
 353 312 353 312 380 326 c 2,2,-1
 439 355 l 1,3,4
 471 376 471 376 471 409 c 0,5,6
 471 459 471 459 422 473 c 0,7,8
 408 477 408 477 391 477 c 0,9,10
 348 477 348 477 327 457 c 1,11,-1
 322 431 l 1,12,13
 316 418 316 418 301 418 c 0,14,15
 282 418 282 418 278 440 c 0,16,17
 277 443 277 443 277 447 c 2,18,-1
 277 480 l 2,19,20
 277 503 277 503 334 516 c 0,21,22
 363 523 363 523 396 523 c 0,23,24
 477 523 477 523 510 464 c 0,25,26
 524 439 524 439 524 408 c 0,27,28
 524 344 524 344 448 306 c 1,29,-1
 402 287 l 1,30,-1
 402 261 l 2,31,32
 402 237 402 237 377 236 c 0,33,34
 353 236 353 236 353 260 c 2,35,-1
 353 280 l 2,0,1
316 155 m 0,36,37
 316 190 316 190 353 201 c 0,38,39
 364 204 364 204 377 204 c 0,40,41
 424 204 424 204 436 170 c 0,42,43
 439 163 439 163 439 155 c 0,44,45
 439 119 439 119 400 108 c 0,46,47
 390 105 390 105 377 105 c 0,48,49
 332 105 332 105 319 138 c 0,50,51
 316 146 316 146 316 155 c 0,36,37
EndSplineSet
Validated: 1
EndChar

StartChar: at
Encoding: 64 64 35
Width: 600
GlyphClass: 2
Flags: W
LayerCount: 2
Fore
SplineSet
459 437 m 1,0,-1
 459 446 l 2,1,2
 459 540 459 540 401 540 c 256,3,4
 343 540 343 540 322 446 c 0,5,6
 313 404 313 404 313 347 c 0,7,8
 313 137 313 137 420 137 c 0,9,10
 432 137 432 137 468 148 c 0,11,12
 475 150 475 150 480 150 c 0,13,14
 492 150 492 150 495 133 c 1,15,16
 495 109 495 109 454 99 c 0,17,18
 437 95 437 95 417 95 c 0,19,20
 312 95 312 95 280 225 c 0,21,22
 268 274 268 274 268 340 c 0,23,24
 268 524 268 524 354 569 c 0,25,26
 377 581 377 581 404 581 c 0,27,28
 482 581 482 581 499 491 c 1,29,-1
 504 439 l 2,30,31
 504 431 504 431 504 422 c 2,32,-1
 504 288 l 1,33,34
 515 274 515 274 515 264 c 0,35,36
 515 244 515 244 497 238 c 0,37,38
 493 237 493 237 489 237 c 0,39,40
 479 237 479 237 464 252 c 1,41,42
 437 241 437 241 413 241 c 0,43,44
 368 241 368 241 347 285 c 0,45,46
 338 306 338 306 338 332 c 0,47,48
 338 406 338 406 400 430 c 0,49,50
 421 438 421 438 448 438 c 1,51,-1
 458 437 l 1,52,-1
 459 437 l 1,0,-1
459 290 m 1,53,-1
 459 399 l 1,54,55
 455 400 455 400 447 400 c 0,56,57
 395 400 395 400 383 354 c 0,58,59
 381 345 381 345 381 334 c 1,60,61
 386 285 386 285 427 282 c 0,62,63
 437 282 437 282 459 290 c 1,53,-1
EndSplineSet
Validated: 1
EndChar

StartChar: A
Encoding: 65 65 36
Width: 600
GlyphClass: 2
Flags: W
LayerCount: 2
Fore
SplineSet
302 441 m 1,0,-1
 254 441 l 2,1,2
 220 441 220 441 218 465 c 1,3,4
 218 486 218 486 239 488 c 0,5,6
 245 489 245 489 264 489 c 2,7,-1
 358 489 l 2,8,9
 380 489 380 489 388 478 c 1,10,-1
 394 466 l 1,11,-1
 523 144 l 1,12,-1
 529 144 l 1,13,14
 558 138 558 138 560 121 c 1,15,16
 560 100 560 100 542 98 c 2,17,-1
 530 97 l 1,18,-1
 440 97 l 2,19,20
 407 97 407 97 403 110 c 0,21,22
 401 114 401 114 401 121 c 0,23,24
 401 141 401 141 423 143 c 0,25,26
 429 144 429 144 438 144 c 2,27,-1
 469 144 l 1,28,-1
 437 222 l 1,29,-1
 269 222 l 1,30,-1
 241 144 l 1,31,-1
 273 144 l 1,32,33
 307 138 307 138 310 121 c 1,34,35
 310 101 310 101 293 98 c 1,36,-1
 272 97 l 1,37,-1
 185 97 l 2,38,39
 156 97 156 97 152 111 c 0,40,41
 151 115 151 115 151 121 c 1,42,43
 161 142 161 142 182 144 c 1,44,-1
 190 144 l 1,45,-1
 302 441 l 1,0,-1
285 266 m 1,46,-1
 421 266 l 1,47,-1
 349 441 l 1,48,-1
 285 266 l 1,46,-1
EndSplineSet
Validated: 1
EndChar

StartChar: B
Encoding: 66 66 37
Width: 600
GlyphClass: 2
Flags: W
LayerCount: 2
Fore
SplineSet
394 97 m 1,0,-1
 246 97 l 2,1,2
 223 97 223 97 223 121 c 0,3,4
 223 140 223 140 241 143 c 0,5,6
 248 144 248 144 264 144 c 2,7,-1
 276 144 l 1,8,-1
 276 441 l 1,9,-1
 265 441 l 2,10,11
 232 441 232 441 227 453 c 0,12,13
 225 458 225 458 225 465 c 0,14,15
 225 489 225 489 248 489 c 2,16,-1
 402 489 l 2,17,18
 530 489 530 489 544 402 c 0,19,20
 545 393 545 393 545 383 c 0,21,22
 545 330 545 330 501 305 c 1,23,24
 571 280 571 280 571 210 c 0,25,26
 571 156 571 156 528 124 c 1,27,28
 488 97 488 97 418 97 c 2,29,-1
 394 97 l 1,0,-1
328 320 m 1,30,-1
 397 320 l 2,31,32
 489 320 489 320 489 381 c 1,33,34
 483 439 483 439 410 441 c 1,35,-1
 328 441 l 1,36,-1
 328 320 l 1,30,-1
328 144 m 1,37,-1
 401 144 l 2,38,39
 491 144 491 144 508 181 c 0,40,41
 514 194 514 194 514 212 c 0,42,43
 514 263 514 263 463 274 c 1,44,-1
 420 279 l 1,45,-1
 404 279 l 1,46,-1
 328 279 l 1,47,-1
 328 144 l 1,37,-1
EndSplineSet
Validated: 1
EndChar

StartChar: C
Encoding: 67 67 38
Width: 600
GlyphClass: 2
Flags: W
LayerCount: 2
Fore
SplineSet
503 483 m 1,0,1
 510 499 510 499 528 499 c 0,2,3
 549 499 549 499 551 482 c 0,4,5
 552 477 552 477 552 466 c 2,6,-1
 553 384 l 2,7,8
 553 361 553 361 538 359 c 0,9,10
 534 358 534 358 530 358 c 0,11,12
 509 358 509 358 504 375 c 2,13,-1
 497 404 l 1,14,15
 487 441 487 441 443 455 c 0,16,17
 428 459 428 459 411 459 c 0,18,19
 329 459 329 459 297 382 c 0,20,21
 282 346 282 346 282 297 c 0,22,23
 282 201 282 201 347 162 c 0,24,25
 377 144 377 144 413 144 c 0,26,27
 453 144 453 144 490 166 c 1,28,-1
 531 192 l 2,29,30
 534 193 534 193 537 193 c 0,31,32
 557 188 557 188 561 169 c 1,33,34
 561 151 561 151 524 128 c 1,35,36
 472 93 472 93 410 93 c 0,37,38
 315 93 315 93 261 168 c 0,39,40
 222 222 222 222 222 297 c 0,41,42
 222 401 222 401 293 461 c 0,43,44
 343 504 343 504 411 504 c 0,45,46
 451 504 451 504 503 483 c 1,0,1
EndSplineSet
Validated: 1
EndChar

StartChar: D
Encoding: 68 68 39
Width: 600
GlyphClass: 2
Flags: W
LayerCount: 2
Fore
SplineSet
320 96 m 1,0,-1
 268 96 l 1,1,-1
 253 96 l 2,2,3
 228 96 228 96 228 120 c 1,4,5
 238 141 238 141 259 143 c 1,6,-1
 268 143 l 1,7,-1
 268 440 l 1,8,-1
 260 440 l 1,9,10
 230 445 230 445 228 464 c 1,11,12
 228 484 228 484 247 486 c 0,13,14
 254 487 254 487 268 487 c 2,15,-1
 320 487 l 1,16,-1
 393 487 l 2,17,18
 500 487 500 487 546 402 c 0,19,20
 572 356 572 356 572 291 c 0,21,22
 572 201 572 201 518 144 c 1,23,24
 469 95 469 95 366 95 c 1,25,-1
 321 96 l 1,26,-1
 320 96 l 1,0,-1
320 143 m 1,27,28
 334 141 334 141 361 141 c 0,29,30
 488 141 488 141 512 235 c 0,31,32
 518 259 518 259 518 291 c 0,33,34
 518 405 518 405 434 431 c 0,35,36
 403 441 403 441 358 441 c 0,37,38
 333 441 333 441 320 440 c 1,39,-1
 320 143 l 1,27,28
EndSplineSet
Validated: 1
EndChar

StartChar: E
Encoding: 69 69 40
Width: 600
GlyphClass: 2
Flags: W
LayerCount: 2
Fore
SplineSet
258 98 m 1,0,-1
 242 98 l 2,1,2
 218 98 218 98 218 122 c 0,3,4
 218 141 218 141 237 144 c 0,5,6
 243 145 243 145 258 145 c 2,7,-1
 278 145 l 1,8,-1
 278 442 l 1,9,-1
 258 442 l 2,10,11
 224 442 224 442 219 455 c 0,12,13
 218 460 218 460 218 466 c 0,14,15
 218 487 218 487 239 489 c 0,16,17
 245 490 245 490 258 490 c 2,18,-1
 530 490 l 2,19,20
 553 490 553 490 553 463 c 2,21,-1
 553 386 l 2,22,23
 553 357 553 357 530 355 c 1,24,25
 507 355 507 355 506 384 c 1,26,-1
 506 395 l 1,27,-1
 506 442 l 1,28,-1
 331 442 l 1,29,-1
 331 331 l 1,30,-1
 417 331 l 1,31,32
 417 334 417 334 416 348 c 1,33,34
 420 378 420 378 438 380 c 1,35,36
 456 380 456 380 458 357 c 0,37,38
 459 351 459 351 459 341 c 2,39,-1
 459 280 l 2,40,41
 459 248 459 248 450 243 c 1,42,-1
 438 241 l 1,43,44
 420 241 420 241 418 264 c 0,45,46
 417 271 417 271 417 282 c 2,47,-1
 417 291 l 1,48,-1
 331 291 l 1,49,-1
 331 145 l 1,50,-1
 506 145 l 1,51,-1
 506 198 l 2,52,53
 506 231 506 231 518 236 c 0,54,55
 523 238 523 238 530 238 c 0,56,57
 550 238 550 238 553 217 c 0,58,59
 553 213 553 213 553 206 c 2,60,-1
 553 123 l 2,61,62
 553 98 553 98 530 98 c 2,63,-1
 258 98 l 1,0,-1
EndSplineSet
Validated: 1
EndChar

StartChar: F
Encoding: 70 70 41
Width: 600
GlyphClass: 2
Flags: W
LayerCount: 2
Fore
SplineSet
397 145 m 1,0,-1
 409 145 l 2,1,2
 436 145 436 145 436 122 c 0,3,4
 436 98 436 98 413 98 c 2,5,-1
 250 98 l 2,6,7
 227 98 227 98 227 122 c 1,8,9
 235 143 235 143 255 145 c 1,10,-1
 266 145 l 1,11,-1
 287 145 l 1,12,-1
 287 442 l 1,13,-1
 266 442 l 1,14,-1
 253 442 l 2,15,16
 227 442 227 442 227 466 c 128,-1,17
 227 490 227 490 250 490 c 2,18,-1
 542 490 l 2,19,20
 565 490 565 490 565 463 c 2,21,-1
 565 378 l 2,22,23
 565 355 565 355 542 355 c 256,24,25
 519 355 519 355 518 384 c 1,26,-1
 518 395 l 1,27,-1
 518 442 l 1,28,-1
 339 442 l 1,29,-1
 339 331 l 1,30,-1
 426 331 l 1,31,-1
 426 340 l 1,32,33
 431 377 431 377 447 380 c 1,34,35
 468 380 468 380 468 354 c 2,36,-1
 468 270 l 1,37,38
 463 243 463 243 447 241 c 1,39,40
 429 241 429 241 427 267 c 0,41,42
 426 273 426 273 426 282 c 2,43,-1
 426 291 l 1,44,-1
 339 291 l 1,45,-1
 339 145 l 1,46,-1
 397 145 l 1,0,-1
EndSplineSet
Validated: 1
EndChar

StartChar: G
Encoding: 71 71 42
Width: 600
GlyphClass: 2
Flags: W
LayerCount: 2
Fore
SplineSet
503 161 m 1,0,-1
 503 239 l 1,1,-1
 421 239 l 2,2,3
 402 239 402 239 402 261 c 1,4,5
 408 281 408 281 423 283 c 1,6,-1
 566 283 l 2,7,8
 582 283 582 283 582 261 c 1,9,10
 576 241 576 241 557 239 c 1,11,-1
 553 239 l 1,12,-1
 553 148 l 1,13,-1
 553 140 l 2,14,15
 553 126 553 126 543 121 c 0,16,17
 492 96 492 96 416 94 c 1,18,19
 303 94 303 94 250 179 c 0,20,21
 218 229 218 229 218 299 c 0,22,23
 218 404 218 404 289 464 c 0,24,25
 339 506 339 506 407 506 c 0,26,27
 451 506 451 506 499 486 c 1,28,29
 506 502 506 502 524 502 c 0,30,31
 544 502 544 502 547 482 c 1,32,-1
 549 450 l 1,33,-1
 549 406 l 2,34,35
 549 378 549 378 524 376 c 1,36,37
 508 376 508 376 501 394 c 0,38,39
 496 405 496 405 495 407 c 0,40,41
 468 460 468 460 407 462 c 1,42,43
 324 462 324 462 292 383 c 0,44,45
 278 347 278 347 278 299 c 0,46,47
 278 201 278 201 346 160 c 0,48,49
 379 140 379 140 421 140 c 0,50,51
 460 140 460 140 503 161 c 1,0,-1
EndSplineSet
Validated: 1
EndChar

StartChar: H
Encoding: 72 72 43
Width: 600
GlyphClass: 2
Flags: W
LayerCount: 2
Fore
SplineSet
319 145 m 1,0,1
 321 145 321 145 341 146 c 1,2,3
 375 146 375 146 377 122 c 1,4,5
 377 101 377 101 355 99 c 0,6,7
 349 98 349 98 339 98 c 2,8,-1
 267 98 l 1,9,-1
 252 98 l 2,10,11
 228 98 228 98 228 122 c 1,12,13
 238 143 238 143 259 145 c 1,14,-1
 268 145 l 1,15,-1
 268 442 l 1,16,-1
 260 442 l 1,17,18
 230 447 230 447 228 466 c 1,19,20
 228 486 228 486 248 489 c 0,21,22
 255 490 255 490 267 490 c 2,23,-1
 336 490 l 2,24,25
 370 490 370 490 375 478 c 1,26,-1
 377 466 l 1,27,28
 377 446 377 446 352 443 c 1,29,-1
 334 442 l 1,30,-1
 319 442 l 1,31,-1
 319 328 l 1,32,-1
 477 328 l 1,33,-1
 477 442 l 1,34,-1
 455 442 l 2,35,36
 420 442 420 442 420 466 c 0,37,38
 420 486 420 486 439 489 c 0,39,40
 445 490 445 490 464 490 c 2,41,-1
 529 490 l 1,42,-1
 544 490 l 2,43,44
 569 490 569 490 569 466 c 0,45,46
 569 443 569 443 537 442 c 1,47,-1
 529 442 l 1,48,-1
 529 145 l 1,49,-1
 537 145 l 1,50,51
 566 139 566 139 569 122 c 1,52,53
 569 101 569 101 548 99 c 0,54,55
 542 98 542 98 529 98 c 2,56,-1
 461 98 l 2,57,58
 428 98 428 98 422 109 c 0,59,60
 420 114 420 114 420 122 c 0,61,62
 420 141 420 141 443 144 c 0,63,64
 450 145 450 145 461 145 c 2,65,-1
 477 145 l 1,66,-1
 477 282 l 1,67,-1
 319 282 l 1,68,-1
 319 145 l 1,0,1
EndSplineSet
Validated: 1
EndChar

StartChar: I
Encoding: 73 73 44
Width: 600
GlyphClass: 2
Flags: W
LayerCount: 2
Fore
SplineSet
498 146 m 2,0,1
 532 146 532 146 536 134 c 1,2,-1
 538 123 l 1,3,4
 538 102 538 102 517 100 c 0,5,6
 511 99 511 99 498 99 c 2,7,-1
 298 99 l 1,8,-1
 283 99 l 2,9,10
 258 99 258 99 258 123 c 0,11,12
 258 142 258 142 277 145 c 0,13,14
 284 146 284 146 298 146 c 2,15,-1
 372 146 l 1,16,-1
 372 443 l 1,17,-1
 298 443 l 2,18,19
 264 443 264 443 259 456 c 0,20,21
 258 461 258 461 258 467 c 0,22,23
 258 488 258 488 281 490 c 0,24,25
 287 491 287 491 298 491 c 2,26,-1
 498 491 l 1,27,-1
 514 491 l 2,28,29
 538 491 538 491 538 467 c 0,30,31
 538 447 538 447 518 444 c 0,32,33
 511 443 511 443 498 443 c 2,34,-1
 424 443 l 1,35,-1
 424 146 l 1,36,-1
 498 146 l 2,0,1
EndSplineSet
Validated: 1
EndChar

StartChar: J
Encoding: 74 74 45
Width: 600
GlyphClass: 2
Flags: W
LayerCount: 2
Fore
SplineSet
448 450 m 1,0,-1
 359 450 l 2,1,2
 324 450 324 450 320 464 c 0,3,4
 319 468 319 468 319 473 c 0,5,6
 319 494 319 494 340 496 c 0,7,8
 346 497 346 497 359 497 c 2,9,-1
 543 497 l 1,10,-1
 559 497 l 2,11,12
 582 497 582 497 582 473 c 0,13,14
 582 454 582 454 563 451 c 1,15,-1
 543 450 l 1,16,-1
 500 450 l 1,17,-1
 500 239 l 2,18,19
 500 132 500 132 432 106 c 0,20,21
 405 96 405 96 365 96 c 0,22,23
 305 96 305 96 250 125 c 1,24,25
 232 144 232 144 231 160 c 1,26,-1
 231 238 l 2,27,28
 231 265 231 265 241 270 c 0,29,30
 245 272 245 272 253 272 c 0,31,32
 268 272 268 272 275 260 c 1,33,34
 277 254 277 254 277 236 c 2,35,-1
 277 232 l 2,36,37
 277 214 277 214 281 194 c 1,38,39
 295 146 295 146 347 139 c 0,40,41
 354 138 354 138 362 138 c 0,42,43
 431 138 431 138 444 202 c 0,44,45
 448 221 448 221 448 247 c 2,46,-1
 448 450 l 1,0,-1
EndSplineSet
Validated: 1
EndChar

StartChar: K
Encoding: 75 75 46
Width: 600
GlyphClass: 2
Flags: W
LayerCount: 2
Fore
SplineSet
330 146 m 1,0,1
 332 146 332 146 353 147 c 1,2,3
 387 147 387 147 388 123 c 0,4,5
 388 102 388 102 368 100 c 2,6,-1
 355 99 l 1,7,-1
 242 99 l 2,8,9
 219 99 219 99 219 123 c 1,10,11
 227 144 227 144 247 146 c 1,12,-1
 258 146 l 1,13,-1
 279 146 l 1,14,-1
 279 443 l 1,15,-1
 258 443 l 1,16,-1
 245 443 l 2,17,18
 219 443 219 443 219 467 c 128,-1,19
 219 491 219 491 242 491 c 2,20,-1
 355 491 l 2,21,22
 384 491 384 491 387 475 c 2,23,-1
 388 467 l 1,24,25
 388 447 388 447 363 444 c 1,26,-1
 345 443 l 1,27,-1
 330 443 l 1,28,-1
 330 309 l 1,29,-1
 468 443 l 1,30,-1
 457 443 l 2,31,32
 426 443 426 443 426 467 c 128,-1,33
 426 491 426 491 450 491 c 2,34,-1
 547 491 l 2,35,36
 570 491 570 491 570 467 c 0,37,38
 570 446 570 446 547 444 c 0,39,40
 543 443 543 443 536 443 c 2,41,-1
 530 443 l 1,42,-1
 403 320 l 1,43,44
 445 312 445 312 491 237 c 0,45,46
 508 209 508 209 541 146 c 1,47,-1
 551 146 l 1,48,49
 580 141 580 141 582 123 c 1,50,51
 582 99 582 99 559 99 c 2,52,-1
 527 99 l 2,53,54
 510 99 510 99 502 112 c 2,55,-1
 452 204 l 2,56,57
 412 277 412 277 367 284 c 1,58,-1
 330 249 l 1,59,-1
 330 146 l 1,0,1
EndSplineSet
Validated: 1
EndChar

StartChar: L
Encoding: 76 76 47
Width: 600
GlyphClass: 2
Flags: W
LayerCount: 2
Fore
SplineSet
522 233 m 2,0,1
 522 266 522 266 535 271 c 0,2,3
 540 272 540 272 546 272 c 0,4,5
 566 272 566 272 569 252 c 0,6,7
 570 246 570 246 570 233 c 2,8,-1
 570 124 l 2,9,10
 570 99 570 99 546 99 c 2,11,-1
 253 99 l 1,12,-1
 238 99 l 2,13,14
 214 99 214 99 214 123 c 0,15,16
 214 142 214 142 232 145 c 0,17,18
 239 146 239 146 253 146 c 2,19,-1
 294 146 l 1,20,-1
 294 443 l 1,21,-1
 253 443 l 2,22,23
 220 443 220 443 215 456 c 0,24,25
 214 461 214 461 214 467 c 0,26,27
 214 487 214 487 234 490 c 0,28,29
 241 491 241 491 253 491 c 2,30,-1
 402 491 l 1,31,-1
 417 491 l 2,32,33
 442 491 442 491 442 467 c 0,34,35
 442 447 442 447 423 444 c 1,36,-1
 402 443 l 1,37,-1
 346 443 l 1,38,-1
 346 146 l 1,39,-1
 522 146 l 1,40,-1
 522 233 l 2,0,1
EndSplineSet
Validated: 1
EndChar

StartChar: M
Encoding: 77 77 48
Width: 600
GlyphClass: 2
Flags: W
LayerCount: 2
Fore
SplineSet
382 262 m 1,0,-1
 452 468 l 2,1,2
 460 491 460 491 488 491 c 2,3,-1
 543 491 l 2,4,5
 564 491 564 491 564 468 c 0,6,7
 564 449 564 449 545 447 c 0,8,9
 540 446 540 446 533 446 c 2,10,-1
 527 446 l 1,11,-1
 537 146 l 1,12,-1
 547 146 l 1,13,14
 577 140 577 140 580 123 c 1,15,16
 580 99 580 99 557 99 c 2,17,-1
 464 99 l 2,18,19
 435 99 435 99 432 115 c 0,20,21
 431 118 431 118 431 123 c 0,22,23
 431 143 431 143 454 145 c 0,24,25
 461 146 461 146 471 146 c 2,26,-1
 485 146 l 1,27,-1
 478 430 l 1,28,-1
 413 240 l 2,29,30
 405 216 405 216 379 216 c 0,31,32
 354 216 354 216 346 240 c 2,33,-1
 280 430 l 1,34,-1
 274 146 l 1,35,36
 276 146 276 146 296 147 c 1,37,38
 330 147 330 147 331 123 c 0,39,40
 331 102 331 102 311 100 c 2,41,-1
 298 99 l 1,42,-1
 205 99 l 2,43,44
 183 99 183 99 183 123 c 0,45,46
 183 143 183 143 203 145 c 0,47,48
 208 146 208 146 215 146 c 2,49,-1
 226 146 l 1,50,-1
 235 446 l 1,51,-1
 230 446 l 1,52,53
 200 450 200 450 198 468 c 1,54,55
 198 491 198 491 220 491 c 2,56,-1
 274 491 l 2,57,58
 301 491 301 491 310 468 c 2,59,-1
 382 262 l 1,0,-1
EndSplineSet
Validated: 1
EndChar

StartChar: N
Encoding: 78 78 49
Width: 600
GlyphClass: 2
Flags: W
LayerCount: 2
Fore
SplineSet
309 149 m 1,0,-1
 326 149 l 1,1,-1
 349 149 l 2,2,3
 383 149 383 149 383 126 c 0,4,5
 383 106 383 106 363 103 c 0,6,7
 357 102 357 102 344 102 c 2,8,-1
 262 102 l 1,9,-1
 246 102 l 2,10,11
 223 102 223 102 223 126 c 0,12,13
 223 146 223 146 243 148 c 0,14,15
 248 149 248 149 256 149 c 2,16,-1
 262 149 l 1,17,-1
 262 446 l 1,18,19
 215 446 215 446 209 460 c 0,20,21
 207 464 207 464 207 470 c 0,22,23
 207 490 207 490 232 492 c 0,24,25
 240 493 240 493 262 493 c 2,26,-1
 293 493 l 2,27,28
 315 493 315 493 323 482 c 1,29,-1
 329 472 l 1,30,-1
 495 185 l 1,31,-1
 495 446 l 1,32,-1
 482 446 l 1,33,-1
 459 446 l 2,34,35
 425 446 425 446 425 470 c 0,36,37
 425 490 425 490 443 492 c 0,38,39
 449 493 449 493 461 493 c 2,40,-1
 540 493 l 1,41,-1
 555 493 l 2,42,43
 579 493 579 493 579 470 c 0,44,45
 579 449 579 449 558 447 c 0,46,47
 553 446 553 446 546 446 c 2,48,-1
 541 446 l 1,49,-1
 541 113 l 2,50,51
 541 98 541 98 528 97 c 1,52,-1
 517 97 l 1,53,-1
 513 97 l 2,54,55
 496 97 496 97 491 104 c 0,56,57
 489 106 489 106 484 115 c 2,58,-1
 309 418 l 1,59,-1
 309 149 l 1,0,-1
EndSplineSet
Validated: 1
EndChar

StartChar: O
Encoding: 79 79 50
Width: 600
GlyphClass: 2
Flags: W
LayerCount: 2
Fore
SplineSet
398 142 m 0,0,1
 476 142 476 142 505 221 c 0,2,3
 517 255 517 255 517 301 c 0,4,5
 517 416 517 416 448 450 c 0,6,7
 425 461 425 461 398 461 c 0,8,9
 316 461 316 461 289 377 c 0,10,11
 279 344 279 344 279 301 c 0,12,13
 279 186 279 186 349 152 c 0,14,15
 371 142 371 142 398 142 c 0,0,1
577 301 m 0,16,17
 577 189 577 189 504 131 c 0,18,19
 459 95 459 95 398 95 c 0,20,21
 309 95 309 95 258 169 c 0,22,23
 220 224 220 224 220 301 c 0,24,25
 220 415 220 415 294 473 c 0,26,27
 338 507 338 507 398 507 c 0,28,29
 491 507 491 507 542 429 c 0,30,31
 577 376 577 376 577 301 c 0,16,17
EndSplineSet
Validated: 1
EndChar

StartChar: P
Encoding: 80 80 51
Width: 600
GlyphClass: 2
Flags: W
LayerCount: 2
Fore
SplineSet
411 146 m 2,0,1
 442 146 442 146 442 123 c 0,2,3
 442 102 442 102 422 100 c 2,4,-1
 409 99 l 1,5,-1
 247 99 l 2,6,7
 224 99 224 99 224 123 c 0,8,9
 224 146 224 146 248 146 c 2,10,-1
 291 146 l 1,11,-1
 291 443 l 1,12,-1
 268 443 l 2,13,14
 231 443 231 443 226 455 c 0,15,16
 224 460 224 460 224 467 c 0,17,18
 224 491 224 491 247 491 c 2,19,-1
 400 491 l 2,20,21
 564 491 564 491 564 368 c 0,22,23
 564 247 564 247 400 247 c 2,24,-1
 343 247 l 1,25,-1
 343 146 l 1,26,-1
 411 146 l 2,0,1
343 443 m 1,27,-1
 343 290 l 1,28,-1
 403 290 l 2,29,30
 507 290 507 290 507 367 c 0,31,32
 507 443 507 443 403 443 c 2,33,-1
 343 443 l 1,27,-1
EndSplineSet
Validated: 1
EndChar

StartChar: Q
Encoding: 81 81 52
Width: 600
GlyphClass: 2
Flags: W
LayerCount: 2
Fore
SplineSet
398 162 m 0,0,1
 470 162 470 162 501 233 c 0,2,3
 517 270 517 270 517 321 c 0,4,5
 517 431 517 431 450 467 c 0,6,7
 427 480 427 480 398 480 c 0,8,9
 325 480 325 480 295 408 c 0,10,11
 279 371 279 371 279 321 c 0,12,13
 279 211 279 211 346 175 c 0,14,15
 369 162 369 162 398 162 c 0,0,1
346 126 m 1,16,17
 270 147 270 147 237 229 c 0,18,19
 220 272 220 272 220 322 c 0,20,21
 220 425 220 425 288 485 c 0,22,23
 335 527 335 527 398 527 c 0,24,25
 483 527 483 527 536 455 c 0,26,27
 577 398 577 398 577 321 c 0,28,29
 577 206 577 206 501 151 c 0,30,31
 457 118 457 118 396 118 c 0,32,33
 382 118 382 118 375 119 c 1,34,-1
 339 84 l 1,35,36
 378 100 378 100 421 100 c 0,37,38
 432 100 432 100 476 88 c 0,39,40
 489 84 489 84 499 84 c 0,41,42
 506 84 506 84 533 94 c 0,43,44
 539 97 539 97 544 97 c 0,45,46
 557 97 557 97 562 80 c 0,47,48
 563 77 563 77 563 73 c 0,49,50
 563 59 563 59 534 48 c 0,51,52
 518 41 518 41 501 41 c 0,53,54
 486 41 486 41 433 56 c 0,55,56
 411 62 411 62 396 62 c 0,57,58
 370 62 370 62 326 42 c 0,59,60
 317 38 317 38 312 38 c 0,61,62
 299 38 299 38 292 54 c 0,63,64
 290 59 290 59 290 63 c 0,65,66
 290 71 290 71 324 104 c 0,67,68
 337 116 337 116 346 126 c 1,16,17
EndSplineSet
Validated: 1
EndChar

StartChar: R
Encoding: 82 82 53
Width: 600
GlyphClass: 2
Flags: W
LayerCount: 2
Fore
SplineSet
324 146 m 1,0,1
 326 146 326 146 346 147 c 1,2,3
 380 147 380 147 381 123 c 0,4,5
 381 102 381 102 361 100 c 2,6,-1
 348 99 l 1,7,-1
 237 99 l 2,8,9
 214 99 214 99 214 123 c 1,10,11
 224 144 224 144 243 146 c 1,12,-1
 254 146 l 1,13,-1
 272 146 l 1,14,-1
 272 446 l 1,15,-1
 254 446 l 1,16,-1
 241 446 l 2,17,18
 214 446 214 446 214 468 c 0,19,20
 214 491 214 491 237 491 c 2,21,-1
 377 491 l 2,22,23
 460 491 460 491 491 472 c 0,24,25
 498 468 498 468 504 462 c 0,26,27
 541 430 541 430 541 378 c 0,28,29
 541 309 541 309 475 282 c 0,30,31
 465 278 465 278 454 275 c 1,32,33
 472 263 472 263 482 247 c 2,34,-1
 548 146 l 1,35,-1
 559 146 l 1,36,37
 588 140 588 140 591 123 c 1,38,39
 591 99 591 99 568 99 c 2,40,-1
 531 99 l 2,41,42
 515 99 515 99 502 119 c 1,43,-1
 497 126 l 1,44,-1
 433 222 l 2,45,46
 408 260 408 260 388 266 c 0,47,48
 379 269 379 269 367 269 c 2,49,-1
 324 269 l 1,50,-1
 324 146 l 1,0,1
324 446 m 1,51,-1
 324 313 l 1,52,-1
 392 313 l 2,53,54
 485 313 485 313 485 379 c 0,55,56
 485 446 485 446 394 446 c 2,57,-1
 324 446 l 1,51,-1
EndSplineSet
Validated: 1
EndChar

StartChar: S
Encoding: 83 83 54
Width: 600
GlyphClass: 2
Flags: W
LayerCount: 2
Fore
SplineSet
303 117 m 1,0,1
 293 93 293 93 276 91 c 1,2,3
 249 91 249 91 248 126 c 2,4,-1
 244 202 l 1,5,-1
 244 209 l 1,6,7
 250 235 250 235 270 237 c 1,8,9
 288 237 288 237 296 215 c 0,10,11
 304 190 304 190 306 187 c 0,12,13
 335 142 335 142 402 139 c 1,14,15
 469 139 469 139 491 182 c 0,16,17
 498 196 498 196 498 211 c 0,18,19
 498 264 498 264 434 273 c 2,20,-1
 385 280 l 1,21,22
 272 295 272 295 257 363 c 0,23,24
 254 376 254 376 254 390 c 0,25,26
 254 451 254 451 312 486 c 0,27,28
 350 509 350 509 400 509 c 0,29,30
 434 509 434 509 484 489 c 1,31,32
 484 505 484 505 505 506 c 1,33,34
 528 506 528 506 531 493 c 1,35,-1
 532 481 l 1,36,-1
 537 412 l 1,37,-1
 537 409 l 2,38,39
 537 385 537 385 512 384 c 0,40,41
 494 384 494 384 487 404 c 0,42,43
 479 425 479 425 475 430 c 0,44,45
 452 464 452 464 397 464 c 0,46,47
 335 464 335 464 314 421 c 0,48,49
 308 408 308 408 308 393 c 0,50,51
 308 344 308 344 383 333 c 1,52,-1
 436 326 l 2,53,54
 552 311 552 311 552 217 c 0,55,56
 552 143 552 143 483 111 c 1,57,-1
 449 100 l 1,58,59
 426 95 426 95 400 95 c 0,60,61
 355 95 355 95 303 117 c 1,0,1
EndSplineSet
Validated: 1
EndChar

StartChar: T
Encoding: 84 84 55
Width: 600
GlyphClass: 2
Flags: W
LayerCount: 2
Fore
SplineSet
275 358 m 2,0,1
 274 326 274 326 263 321 c 1,2,-1
 249 319 l 1,3,4
 226 319 226 319 226 343 c 1,5,-1
 227 359 l 1,6,-1
 230 468 l 2,7,8
 231 491 231 491 255 491 c 2,9,-1
 541 491 l 2,10,11
 566 491 566 491 566 468 c 2,12,-1
 570 359 l 2,13,14
 570 356 570 356 571 343 c 1,15,16
 571 319 571 319 548 319 c 0,17,18
 527 319 527 319 524 336 c 0,19,20
 523 343 523 343 522 358 c 2,21,-1
 519 443 l 1,22,-1
 424 443 l 1,23,-1
 424 146 l 1,24,-1
 475 146 l 1,25,-1
 487 146 l 2,26,27
 514 146 514 146 514 123 c 0,28,29
 514 99 514 99 491 99 c 2,30,-1
 306 99 l 2,31,32
 283 99 283 99 283 123 c 1,33,34
 291 144 291 144 311 146 c 1,35,-1
 322 146 l 1,36,-1
 372 146 l 1,37,-1
 372 443 l 1,38,-1
 277 443 l 1,39,-1
 275 358 l 2,0,1
EndSplineSet
Validated: 1
EndChar

StartChar: U
Encoding: 85 85 56
Width: 600
GlyphClass: 2
Flags: W
LayerCount: 2
Fore
SplineSet
256 451 m 1,0,-1
 248 451 l 2,1,2
 217 451 217 451 216 475 c 0,3,4
 216 496 216 496 239 498 c 0,5,6
 245 499 245 499 256 499 c 2,7,-1
 324 499 l 2,8,9
 357 499 357 499 363 488 c 1,10,-1
 365 475 l 1,11,12
 365 454 365 454 339 452 c 0,13,14
 333 451 333 451 324 451 c 2,15,-1
 310 451 l 1,16,-1
 310 270 l 2,17,18
 310 213 310 213 324 187 c 0,19,20
 349 144 349 144 402 144 c 0,21,22
 477 144 477 144 490 221 c 0,23,24
 493 240 493 240 493 264 c 2,25,-1
 493 451 l 1,26,-1
 475 451 l 2,27,28
 436 451 436 451 433 469 c 0,29,30
 432 472 432 472 432 475 c 0,31,32
 432 496 432 496 452 498 c 0,33,34
 458 499 458 499 468 499 c 2,35,-1
 541 499 l 1,36,-1
 556 499 l 2,37,38
 580 499 580 499 580 475 c 1,39,40
 570 453 570 453 547 451 c 1,41,-1
 542 451 l 1,42,-1
 542 257 l 2,43,44
 542 97 542 97 399 97 c 0,45,46
 309 97 309 97 273 167 c 0,47,48
 256 200 256 200 256 245 c 2,49,-1
 256 451 l 1,0,-1
EndSplineSet
Validated: 1
EndChar

StartChar: V
Encoding: 86 86 57
Width: 600
GlyphClass: 2
Flags: W
LayerCount: 2
Fore
SplineSet
214 445 m 1,0,1
 182 451 182 451 179 469 c 1,2,3
 179 493 179 493 202 493 c 2,4,-1
 302 493 l 2,5,6
 331 493 331 493 334 477 c 2,7,-1
 335 469 l 1,8,9
 335 445 335 445 305 445 c 2,10,-1
 268 445 l 1,11,-1
 381 157 l 1,12,-1
 490 445 l 1,13,-1
 446 445 l 2,14,15
 416 445 416 445 416 469 c 0,16,17
 416 490 416 490 436 492 c 0,18,19
 441 493 441 493 449 493 c 2,20,-1
 552 493 l 2,21,22
 575 493 575 493 575 469 c 1,23,24
 567 447 567 447 544 445 c 1,25,-1
 540 445 l 1,26,-1
 421 134 l 2,27,28
 408 102 408 102 396 98 c 0,29,30
 393 97 393 97 389 97 c 2,31,-1
 371 97 l 2,32,33
 351 97 351 97 340 120 c 0,34,35
 339 124 339 124 335 134 c 2,36,-1
 214 445 l 1,0,1
EndSplineSet
Validated: 1
EndChar

StartChar: W
Encoding: 87 87 58
Width: 600
GlyphClass: 2
Flags: W
LayerCount: 2
Fore
SplineSet
292 184 m 1,0,-1
 349 381 l 1,1,2
 358 396 358 396 369 397 c 1,3,-1
 384 397 l 2,4,5
 399 397 399 397 405 383 c 1,6,-1
 469 184 l 1,7,-1
 502 446 l 1,8,-1
 449 446 l 2,9,10
 420 446 420 446 420 468 c 1,11,12
 429 489 429 489 452 491 c 1,13,-1
 559 491 l 1,14,15
 574 485 574 485 577 468 c 1,16,17
 577 446 577 446 552 446 c 2,18,-1
 547 446 l 1,19,-1
 502 116 l 2,20,21
 499 99 499 99 489 99 c 2,22,-1
 465 99 l 2,23,24
 451 99 451 99 447 114 c 2,25,-1
 375 341 l 1,26,-1
 312 113 l 2,27,28
 308 100 308 100 294 99 c 1,29,-1
 269 99 l 2,30,31
 257 99 257 99 255 117 c 2,32,-1
 205 446 l 1,33,-1
 201 446 l 2,34,35
 175 446 175 446 175 468 c 0,36,37
 175 488 175 488 193 491 c 1,38,-1
 300 491 l 1,39,40
 329 485 329 485 332 468 c 1,41,42
 332 446 332 446 303 446 c 2,43,-1
 256 446 l 1,44,-1
 292 184 l 1,0,-1
EndSplineSet
Validated: 1
EndChar

StartChar: X
Encoding: 88 88 59
Width: 600
GlyphClass: 2
Flags: W
LayerCount: 2
Fore
SplineSet
259 443 m 1,0,1
 234 444 234 444 233 467 c 1,2,3
 233 491 233 491 256 491 c 2,4,-1
 339 491 l 2,5,6
 363 491 363 491 363 467 c 128,-1,7
 363 443 363 443 333 443 c 2,8,-1
 323 443 l 1,9,-1
 398 337 l 1,10,-1
 476 443 l 1,11,-1
 466 443 l 2,12,13
 431 443 431 443 431 467 c 0,14,15
 431 489 431 489 458 491 c 1,16,-1
 541 491 l 2,17,18
 564 491 564 491 564 467 c 128,-1,19
 564 443 564 443 535 443 c 1,20,-1
 429 301 l 1,21,-1
 544 146 l 1,22,23
 573 144 573 144 573 123 c 1,24,25
 568 103 568 103 548 99 c 1,26,-1
 460 99 l 2,27,28
 435 99 435 99 432 114 c 0,29,30
 431 118 431 118 431 123 c 1,31,32
 441 145 441 145 464 147 c 1,33,-1
 479 146 l 1,34,-1
 480 146 l 1,35,-1
 396 262 l 1,36,-1
 312 146 l 1,37,38
 318 147 318 147 330 147 c 1,39,40
 363 143 363 143 365 123 c 1,41,42
 356 101 356 101 336 99 c 1,43,-1
 248 99 l 2,44,45
 226 99 226 99 224 123 c 1,46,47
 224 145 224 145 253 146 c 1,48,-1
 364 299 l 1,49,-1
 259 443 l 1,0,1
EndSplineSet
Validated: 1
EndChar

StartChar: Y
Encoding: 89 89 60
Width: 600
GlyphClass: 2
Flags: W
LayerCount: 2
Fore
SplineSet
470 146 m 2,0,1
 504 146 504 146 508 134 c 1,2,-1
 510 123 l 1,3,4
 510 102 510 102 490 100 c 2,5,-1
 475 99 l 1,6,-1
 318 99 l 2,7,8
 288 99 288 99 284 114 c 0,9,10
 283 118 283 118 283 123 c 0,11,12
 283 142 283 142 302 145 c 0,13,14
 309 146 309 146 322 146 c 2,15,-1
 370 146 l 1,16,-1
 370 256 l 1,17,-1
 260 443 l 1,18,-1
 255 443 l 1,19,20
 222 448 222 448 220 467 c 1,21,22
 220 488 220 488 243 490 c 0,23,24
 249 491 249 491 260 491 c 2,25,-1
 336 491 l 2,26,27
 365 491 365 491 368 475 c 2,28,-1
 369 467 l 1,29,30
 369 447 369 447 346 444 c 1,31,-1
 331 443 l 1,32,-1
 320 443 l 1,33,-1
 400 300 l 1,34,-1
 483 443 l 1,35,-1
 470 443 l 1,36,37
 439 448 439 448 437 467 c 1,38,39
 437 487 437 487 454 490 c 0,40,41
 461 491 461 491 474 491 c 2,42,-1
 483 491 l 1,43,-1
 535 491 l 2,44,45
 567 491 567 491 572 479 c 0,46,47
 574 475 574 475 574 467 c 0,48,49
 574 446 574 446 551 444 c 0,50,51
 547 443 547 443 540 443 c 2,52,-1
 535 443 l 1,53,-1
 422 251 l 1,54,-1
 422 146 l 1,55,-1
 470 146 l 2,0,1
EndSplineSet
Validated: 1
EndChar

StartChar: Z
Encoding: 90 90 61
Width: 600
GlyphClass: 2
Flags: W
LayerCount: 2
Fore
SplineSet
321 443 m 1,0,-1
 317 375 l 1,1,-1
 317 359 l 2,2,3
 317 336 317 336 292 336 c 0,4,5
 269 336 269 336 269 363 c 2,6,-1
 269 369 l 1,7,-1
 269 377 l 1,8,-1
 273 468 l 1,9,10
 273 491 273 491 298 491 c 2,11,-1
 487 491 l 2,12,13
 526 491 526 491 526 462 c 0,14,15
 526 447 526 447 514 429 c 2,16,-1
 319 146 l 1,17,-1
 472 146 l 1,18,-1
 476 223 l 2,19,20
 477 255 477 255 486 259 c 0,21,22
 491 262 491 262 501 262 c 0,23,24
 525 262 525 262 525 234 c 1,25,-1
 524 223 l 1,26,-1
 524 222 l 1,27,-1
 519 122 l 1,28,29
 519 99 519 99 494 99 c 2,30,-1
 287 99 l 2,31,32
 262 99 262 99 256 121 c 0,33,34
 255 125 255 125 255 129 c 0,35,36
 255 144 255 144 271 168 c 2,37,-1
 461 443 l 1,38,-1
 321 443 l 1,0,-1
EndSplineSet
Validated: 1
EndChar

StartChar: bracketleft
Encoding: 91 91 62
Width: 600
GlyphClass: 2
Flags: W
LayerCount: 2
Fore
SplineSet
388 92 m 1,0,-1
 443 92 l 2,1,2
 465 92 465 92 465 73 c 0,3,4
 465 52 465 52 444 52 c 2,5,-1
 355 52 l 2,6,7
 334 52 334 52 331 73 c 1,8,-1
 331 544 l 1,9,10
 336 562 336 562 355 565 c 1,11,-1
 444 565 l 2,12,13
 465 565 465 565 465 545 c 0,14,15
 465 527 465 527 443 525 c 1,16,-1
 388 525 l 1,17,-1
 388 92 l 1,0,-1
EndSplineSet
Validated: 1
EndChar

StartChar: backslash
Encoding: 92 92 63
Width: 600
GlyphClass: 2
Flags: W
LayerCount: 2
Fore
SplineSet
488 114 m 2,0,-1
 273 574 l 2,1,2
 270 580 270 580 270 586 c 1,3,4
 275 604 275 604 293 608 c 1,5,6
 309 608 309 608 316 593 c 2,7,-1
 529 136 l 2,8,9
 533 126 533 126 533 122 c 1,10,11
 528 103 528 103 510 99 c 1,12,13
 495 99 495 99 488 114 c 2,0,-1
EndSplineSet
Validated: 1
EndChar

StartChar: bracketright
Encoding: 93 93 64
Width: 600
GlyphClass: 2
Flags: W
LayerCount: 2
Fore
SplineSet
408 525 m 1,0,-1
 353 525 l 2,1,2
 332 525 332 525 331 545 c 0,3,4
 331 565 331 565 352 565 c 2,5,-1
 441 565 l 2,6,7
 462 565 462 565 465 544 c 1,8,-1
 465 73 l 1,9,10
 460 55 460 55 441 52 c 1,11,-1
 352 52 l 2,12,13
 331 52 331 52 331 73 c 0,14,15
 331 92 331 92 353 92 c 2,16,-1
 408 92 l 1,17,-1
 408 525 l 1,0,-1
EndSplineSet
Validated: 1
EndChar

StartChar: asciicircum
Encoding: 94 94 65
Width: 600
GlyphClass: 2
Flags: W
LayerCount: 2
Fore
SplineSet
421 916 m 1,0,-1
 512 800 l 1,1,2
 516 790 516 790 516 787 c 0,3,4
 516 773 516 773 499 770 c 0,5,6
 494 770 494 770 490 774 c 2,7,-1
 398 866 l 1,8,-1
 306 774 l 2,9,10
 303 770 303 770 298 770 c 0,11,12
 284 770 284 770 281 787 c 1,13,14
 281 793 281 793 285 800 c 1,15,-1
 377 916 l 2,16,17
 383 924 383 924 398 924 c 256,18,19
 413 924 413 924 421 916 c 1,0,-1
EndSplineSet
Validated: 1
EndChar

StartChar: underscore
Encoding: 95 95 66
Width: 600
GlyphClass: 2
Flags: W
LayerCount: 2
Fore
SplineSet
583 -301 m 2,0,1
 599 -301 599 -301 599 -314 c 2,2,-1
 599 -339 l 2,3,4
 599 -353 599 -353 583 -356 c 1,5,-1
 13 -356 l 2,6,7
 0 -356 0 -356 -1 -339 c 1,8,-1
 -1 -314 l 2,9,10
 -1 -301 -1 -301 13 -301 c 2,11,-1
 583 -301 l 2,0,1
EndSplineSet
Validated: 1
EndChar

StartChar: grave
Encoding: 96 96 67
Width: 600
GlyphClass: 2
Flags: W
LayerCount: 2
Fore
SplineSet
461 842 m 1,0,-1
 288 903 l 2,1,2
 280 906 280 906 280 916 c 0,3,4
 280 921 280 921 281 923 c 2,5,-1
 292 943 l 2,6,7
 297 953 297 953 307 953 c 0,8,9
 310 953 310 953 312 951 c 2,10,-1
 469 860 l 1,11,-1
 461 842 l 1,0,-1
EndSplineSet
Validated: 1
EndChar

StartChar: a
Encoding: 97 97 68
Width: 600
GlyphClass: 2
Flags: W
LayerCount: 2
Fore
SplineSet
472 149 m 1,0,1
 417 99 417 99 349 99 c 0,2,3
 275 99 275 99 249 153 c 0,4,5
 239 173 239 173 239 198 c 0,6,7
 239 276 239 276 326 299 c 0,8,9
 355 307 355 307 392 307 c 0,10,11
 431 307 431 307 470 297 c 1,12,-1
 470 299 l 2,13,14
 470 372 470 372 396 373 c 0,15,16
 370 373 370 373 324 354 c 1,17,-1
 301 346 l 1,18,-1
 286 344 l 1,19,20
 266 350 266 350 274 373 c 1,21,22
 274 396 274 396 323 411 c 1,23,24
 356 420 356 420 397 420 c 0,25,26
 508 420 508 420 519 328 c 1,27,-1
 521 303 l 1,28,-1
 521 154 l 1,29,-1
 538 154 l 2,30,31
 579 154 579 154 576 138 c 0,32,33
 576 138 576 138 578 122 c 0,34,35
 579 107 579 107 551 107 c 2,36,-1
 499 107 l 2,37,38
 479 107 479 107 476 129 c 1,39,-1
 472 149 l 1,0,1
466 244 m 1,40,41
 435 267 435 267 404 267 c 0,42,-1
 392 266 l 0,43,44
 330 258 330 258 304 236 c 0,45,46
 287 222 287 222 292 192 c 0,47,48
 297 164 297 164 329 154 c 0,49,50
 342 150 342 150 357 150 c 0,51,52
 426 150 426 150 453 185 c 0,53,54
 471 209 471 209 470 217 c 2,55,-1
 466 244 l 1,40,41
EndSplineSet
Validated: 1
EndChar

StartChar: b
Encoding: 98 98 69
Width: 600
GlyphClass: 2
Flags: W
LayerCount: 2
Fore
SplineSet
313 370 m 1,0,1
 351 417 351 417 422 417 c 0,2,3
 502 417 502 417 548 354 c 0,4,5
 577 314 577 314 577 262 c 0,6,7
 577 185 577 185 516 138 c 0,8,9
 474 106 474 106 420 106 c 0,10,11
 351 106 351 106 318 156 c 1,12,-1
 318 129 l 2,13,14
 318 112 318 112 304 112 c 2,15,-1
 244 112 l 2,16,17
 218 112 218 112 218 136 c 0,18,19
 218 155 218 155 239 158 c 0,20,21
 246 159 246 159 256 159 c 2,22,-1
 263 159 l 1,23,-1
 263 497 l 1,24,-1
 249 498 l 1,25,-1
 248 498 l 2,26,27
 219 498 219 498 218 521 c 0,28,29
 218 544 218 544 244 544 c 2,30,-1
 294 544 l 2,31,32
 313 544 313 544 313 531 c 2,33,-1
 313 370 l 1,0,1
416 158 m 0,34,35
 480 158 480 158 508 210 c 0,36,37
 520 234 520 234 520 264 c 0,38,39
 520 326 520 326 470 355 c 0,40,41
 446 369 446 369 416 369 c 0,42,43
 352 369 352 369 325 317 c 0,44,45
 312 293 312 293 312 264 c 0,46,47
 312 200 312 200 362 172 c 0,48,49
 386 158 386 158 416 158 c 0,34,35
EndSplineSet
Validated: 1
EndChar

StartChar: c
Encoding: 99 99 70
Width: 600
GlyphClass: 2
Flags: W
LayerCount: 2
Fore
SplineSet
548 312 m 2,0,1
 548 288 548 288 523 288 c 0,2,3
 507 288 507 288 495 310 c 0,4,5
 494 312 494 312 492 315 c 0,6,7
 460 369 460 369 401 369 c 0,8,9
 332 369 332 369 300 317 c 0,10,11
 285 291 285 291 285 260 c 0,12,13
 285 189 285 189 342 160 c 0,14,15
 366 148 366 148 398 148 c 0,16,17
 439 148 439 148 475 173 c 2,18,-1
 512 199 l 1,19,20
 519 202 519 202 526 202 c 0,21,22
 548 202 548 202 549 179 c 1,23,24
 549 154 549 154 501 127 c 0,25,26
 451 99 451 99 395 99 c 0,27,28
 307 99 307 99 258 164 c 1,29,30
 228 206 228 206 228 259 c 0,31,32
 228 341 228 341 293 388 c 0,33,34
 337 420 337 420 394 420 c 0,35,36
 442 420 442 420 498 392 c 1,37,-1
 498 394 l 2,38,39
 498 415 498 415 524 415 c 0,40,41
 545 415 545 415 547 390 c 2,42,-1
 548 374 l 1,43,-1
 548 312 l 2,0,1
EndSplineSet
Validated: 1
EndChar

StartChar: d
Encoding: 100 100 71
Width: 600
GlyphClass: 2
Flags: W
LayerCount: 2
Fore
SplineSet
281 257 m 0,0,1
 281 192 281 192 334 165 c 0,2,3
 357 154 357 154 384 154 c 0,4,5
 446 154 446 154 475 206 c 0,6,7
 489 231 489 231 489 261 c 0,8,9
 489 325 489 325 438 353 c 0,10,11
 414 366 414 366 385 366 c 0,12,13
 319 366 319 366 293 311 c 0,14,15
 281 287 281 287 281 257 c 0,0,1
497 109 m 2,16,17
 484 109 484 109 484 126 c 2,18,-1
 484 153 l 1,19,20
 443 101 443 101 371 101 c 0,21,22
 292 101 292 101 250 166 c 0,23,24
 224 206 224 206 224 259 c 0,25,26
 224 338 224 338 285 384 c 0,27,28
 327 415 327 415 381 415 c 0,29,30
 449 415 449 415 488 368 c 1,31,-1
 488 494 l 1,32,-1
 471 494 l 2,33,34
 432 494 432 494 427 506 c 0,35,36
 425 511 425 511 425 518 c 0,37,38
 425 541 425 541 452 541 c 2,39,-1
 519 541 l 2,40,41
 538 541 538 541 538 528 c 2,42,-1
 538 156 l 1,43,-1
 553 156 l 2,44,45
 582 156 582 156 583 133 c 0,46,47
 583 110 583 110 560 109 c 1,48,-1
 497 109 l 2,16,17
EndSplineSet
Validated: 1
EndChar

StartChar: e
Encoding: 101 101 72
Width: 608
GlyphClass: 2
Flags: W
LayerCount: 2
Fore
SplineSet
296 289 m 1,0,-1
 511 289 l 1,1,2
 504 347 504 347 452 368 c 0,3,4
 432 376 432 376 409 376 c 0,5,6
 331 376 331 376 303 311 c 0,7,8
 299 301 299 301 296 289 c 1,0,-1
295 246 m 1,9,10
 299 166 299 166 373 149 c 0,11,12
 389 146 389 146 407 146 c 0,13,14
 447 146 447 146 509 175 c 0,15,16
 535 187 535 187 547 187 c 1,17,18
 566 182 566 182 570 166 c 1,19,20
 570 147 570 147 541 133 c 0,21,22
 475 100 475 100 403 100 c 0,23,24
 298 100 298 100 256 177 c 0,25,26
 237 213 237 213 237 261 c 0,27,28
 237 351 237 351 309 395 c 0,29,30
 352 421 352 421 409 421 c 0,31,32
 499 421 499 421 545 356 c 0,33,34
 571 320 571 320 571 277 c 0,35,36
 571 252 571 252 552 248 c 1,37,-1
 516 246 l 1,38,-1
 295 246 l 1,9,10
EndSplineSet
Validated: 1
EndChar

StartChar: f
Encoding: 102 102 73
Width: 600
GlyphClass: 2
Flags: W
LayerCount: 2
Fore
SplineSet
499 151 m 2,0,1
 527 151 527 151 527 127 c 128,-1,2
 527 103 527 103 500 103 c 2,3,-1
 285 103 l 2,4,5
 257 103 257 103 257 127 c 128,-1,6
 257 151 257 151 283 151 c 2,7,-1
 339 151 l 1,8,-1
 339 352 l 1,9,-1
 285 352 l 2,10,11
 258 352 258 352 258 376 c 128,-1,12
 258 400 258 400 284 400 c 2,13,-1
 337 400 l 1,14,15
 335 416 335 416 335 424 c 0,16,17
 335 510 335 510 414 529 c 0,18,19
 441 536 441 536 480 536 c 0,20,21
 552 536 552 536 552 502 c 1,22,23
 547 481 547 481 525 478 c 1,24,-1
 461 486 l 1,25,-1
 458 486 l 2,26,27
 398 486 398 486 390 441 c 0,28,29
 388 431 388 431 388 419 c 256,30,31
 388 407 388 407 389 400 c 1,32,-1
 504 400 l 2,33,34
 532 400 532 400 532 376 c 128,-1,35
 532 352 532 352 506 352 c 2,36,-1
 391 352 l 1,37,-1
 391 151 l 1,38,-1
 499 151 l 2,0,1
EndSplineSet
Validated: 1
EndChar

StartChar: g
Encoding: 103 103 74
Width: 600
GlyphClass: 2
Flags: W
LayerCount: 2
Fore
SplineSet
532 100 m 1,0,-1
 532 92 l 2,1,2
 532 30 532 30 514 5 c 0,3,4
 513 3 513 3 511 1 c 0,5,6
 474 -49 474 -49 381 -49 c 0,7,8
 310 -49 310 -49 309 -19 c 0,9,10
 309 -1 309 -1 327 5 c 0,11,12
 332 7 332 7 337 7 c 2,13,-1
 391 2 l 1,14,-1
 392 2 l 2,15,16
 462 2 462 2 476 52 c 0,17,18
 482 71 482 71 482 101 c 2,19,-1
 482 141 l 1,20,21
 443 96 443 96 382 96 c 0,22,23
 303 96 303 96 263 158 c 0,24,25
 239 194 239 194 239 242 c 0,26,27
 239 321 239 321 302 363 c 0,28,29
 338 388 338 388 384 388 c 0,30,31
 433 388 433 388 482 350 c 1,32,-1
 482 374 l 2,33,34
 482 387 482 387 501 387 c 2,35,-1
 551 387 l 2,36,37
 577 387 577 387 577 364 c 0,38,39
 577 343 577 343 549 340 c 1,40,-1
 538 340 l 1,41,-1
 532 340 l 1,42,-1
 532 100 l 1,0,-1
388 338 m 0,43,44
 326 338 326 338 301 289 c 0,45,46
 290 268 290 268 290 242 c 0,47,48
 290 183 290 183 339 158 c 0,49,50
 361 147 361 147 388 147 c 0,51,52
 451 147 451 147 476 197 c 0,53,54
 486 217 486 217 486 242 c 0,55,56
 486 302 486 302 436 327 c 0,57,58
 414 338 414 338 388 338 c 0,43,44
EndSplineSet
Validated: 1
EndChar

StartChar: h
Encoding: 104 104 75
Width: 600
GlyphClass: 2
Flags: W
LayerCount: 2
Fore
SplineSet
273 148 m 1,0,-1
 273 486 l 1,1,-1
 259 487 l 1,2,-1
 258 487 l 2,3,4
 229 487 229 487 228 510 c 0,5,6
 228 533 228 533 254 533 c 2,7,-1
 304 533 l 2,8,9
 323 533 323 533 323 520 c 2,10,-1
 323 371 l 1,11,12
 372 415 372 415 420 415 c 0,13,14
 493 415 493 415 518 352 c 0,15,16
 528 329 528 329 528 298 c 2,17,-1
 528 148 l 1,18,-1
 542 148 l 2,19,20
 573 148 573 148 573 125 c 128,-1,21
 573 102 573 102 547 102 c 2,22,-1
 459 102 l 2,23,24
 436 102 436 102 434 116 c 0,25,26
 433 119 433 119 433 125 c 0,27,28
 433 144 433 144 450 147 c 0,29,30
 456 148 456 148 465 148 c 2,31,-1
 478 148 l 1,32,-1
 478 285 l 2,33,34
 478 356 478 356 420 364 c 0,35,36
 414 365 414 365 408 365 c 0,37,38
 363 365 363 365 337 330 c 1,39,-1
 326 310 l 1,40,-1
 322 287 l 1,41,-1
 322 285 l 1,42,-1
 322 148 l 1,43,-1
 336 149 l 1,44,-1
 337 149 l 2,45,46
 364 149 364 149 367 133 c 0,47,48
 368 130 368 130 368 125 c 0,49,50
 368 105 368 105 354 103 c 0,51,52
 349 102 349 102 342 102 c 2,53,-1
 254 102 l 2,54,55
 228 102 228 102 228 125 c 0,56,57
 228 144 228 144 249 147 c 0,58,59
 256 148 256 148 266 148 c 2,60,-1
 273 148 l 1,0,-1
EndSplineSet
Validated: 1
EndChar

StartChar: i
Encoding: 105 105 76
Width: 600
GlyphClass: 2
Flags: W
LayerCount: 2
Fore
SplineSet
427 153 m 1,0,-1
 533 153 l 2,1,2
 558 153 558 153 558 130 c 0,3,4
 558 109 558 109 541 107 c 0,5,6
 537 106 537 106 531 106 c 2,7,-1
 275 106 l 2,8,9
 249 106 249 106 249 130 c 0,10,11
 249 153 249 153 277 153 c 2,12,-1
 377 153 l 1,13,-1
 377 364 l 1,14,-1
 313 364 l 2,15,16
 285 364 285 364 285 388 c 0,17,18
 285 411 285 411 312 411 c 2,19,-1
 408 411 l 2,20,21
 427 411 427 411 427 398 c 2,22,-1
 427 153 l 1,0,-1
366 506 m 0,23,24
 366 549 366 549 379 556 c 0,25,26
 385 560 385 560 400 560 c 0,27,28
 428 560 428 560 432 543 c 1,29,-1
 434 516 l 1,30,31
 434 483 434 483 424 478 c 0,32,33
 417 474 417 474 400 474 c 0,34,35
 373 474 373 474 368 487 c 0,36,37
 366 494 366 494 366 506 c 0,23,24
EndSplineSet
Validated: 1
EndChar

StartChar: j
Encoding: 106 106 77
Width: 600
GlyphClass: 2
Flags: W
LayerCount: 2
Fore
SplineSet
499 172 m 2,0,1
 499 91 499 91 489 67 c 1,2,3
 467 7 467 7 376 -3 c 0,4,5
 362 -4 362 -4 347 -4 c 0,6,7
 275 -4 275 -4 275 27 c 0,8,9
 275 45 275 45 295 51 c 0,10,11
 299 53 299 53 304 53 c 2,12,-1
 358 48 l 1,13,-1
 359 48 l 2,14,15
 429 48 429 48 443 98 c 0,16,17
 449 117 449 117 449 147 c 2,18,-1
 449 384 l 1,19,-1
 320 384 l 1,20,-1
 303 384 l 2,21,22
 272 384 272 384 272 408 c 0,23,24
 272 431 272 431 298 431 c 2,25,-1
 480 431 l 2,26,27
 499 431 499 431 499 418 c 2,28,-1
 499 395 l 1,29,-1
 499 172 l 2,0,1
410 526 m 0,30,31
 410 569 410 569 423 576 c 0,32,33
 429 580 429 580 444 580 c 0,34,35
 471 580 471 580 475 563 c 1,36,-1
 477 536 l 1,37,38
 477 503 477 503 467 498 c 0,39,40
 460 494 460 494 443 494 c 0,41,42
 416 494 416 494 412 507 c 0,43,44
 410 513 410 513 410 526 c 0,30,31
EndSplineSet
Validated: 1
EndChar

StartChar: k
Encoding: 107 107 78
Width: 600
GlyphClass: 2
Flags: W
LayerCount: 2
Fore
SplineSet
338 228 m 1,0,-1
 338 131 l 2,1,2
 338 105 338 105 319 102 c 1,3,-1
 258 102 l 2,4,5
 231 102 231 102 231 125 c 0,6,7
 231 144 231 144 252 147 c 0,8,9
 259 148 259 148 273 148 c 2,10,-1
 288 148 l 1,11,-1
 288 486 l 1,12,-1
 275 486 l 2,13,14
 238 486 238 486 232 498 c 0,15,16
 230 503 230 503 230 510 c 0,17,18
 230 533 230 533 256 533 c 2,19,-1
 319 533 l 2,20,21
 338 533 338 533 338 520 c 2,22,-1
 338 283 l 1,23,-1
 434 363 l 1,24,25
 413 371 413 371 413 387 c 0,26,27
 413 406 413 406 441 406 c 2,28,-1
 530 406 l 2,29,30
 556 406 556 406 556 384 c 0,31,32
 556 366 556 366 538 363 c 1,33,34
 539 363 539 363 514 360 c 0,35,36
 487 357 487 357 452 326 c 2,37,-1
 404 284 l 1,38,-1
 528 149 l 1,39,-1
 557 149 l 2,40,41
 584 149 584 149 584 125 c 0,42,43
 584 102 584 102 557 102 c 2,44,-1
 468 102 l 2,45,46
 440 102 440 102 440 123 c 0,47,48
 440 140 440 140 466 148 c 1,49,-1
 368 255 l 1,50,-1
 338 228 l 1,0,-1
EndSplineSet
Validated: 1
EndChar

StartChar: l
Encoding: 108 108 79
Width: 600
GlyphClass: 2
Flags: W
LayerCount: 2
Fore
SplineSet
375 487 m 1,0,-1
 319 487 l 1,1,-1
 303 488 l 1,2,-1
 302 488 l 2,3,4
 271 488 271 488 271 511 c 128,-1,5
 271 534 271 534 298 534 c 2,6,-1
 406 534 l 2,7,8
 425 534 425 534 425 521 c 2,9,-1
 425 149 l 1,10,-1
 528 149 l 2,11,12
 553 149 553 149 553 126 c 0,13,14
 553 106 553 106 537 104 c 2,15,-1
 526 103 l 1,16,-1
 283 103 l 2,17,18
 256 103 256 103 256 126 c 128,-1,19
 256 149 256 149 284 149 c 2,20,-1
 375 149 l 1,21,-1
 375 487 l 1,0,-1
EndSplineSet
Validated: 1
EndChar

StartChar: m
Encoding: 109 109 80
Width: 600
GlyphClass: 2
Flags: W
LayerCount: 2
Fore
SplineSet
484 290 m 2,0,1
 484 351 484 351 469 363 c 1,2,-1
 457 368 l 2,3,4
 454 369 454 369 449 369 c 0,5,6
 409 369 409 369 398 320 c 0,7,8
 395 306 395 306 395 290 c 2,9,-1
 395 153 l 1,10,-1
 401 153 l 2,11,12
 432 153 432 153 435 137 c 0,13,14
 436 134 436 134 436 130 c 0,15,16
 436 106 436 106 413 106 c 2,17,-1
 371 106 l 2,18,19
 351 106 351 106 349 122 c 0,20,21
 348 128 348 128 348 142 c 2,22,-1
 348 151 l 1,23,-1
 348 290 l 1,24,-1
 348 315 l 2,25,26
 348 359 348 359 316 368 c 0,27,28
 311 369 311 369 305 369 c 0,29,30
 274 369 274 369 256 334 c 1,31,-1
 256 153 l 1,32,-1
 270 153 l 1,33,34
 299 147 299 147 302 130 c 1,35,36
 302 109 302 109 285 107 c 0,37,38
 281 106 281 106 275 106 c 2,39,-1
 187 106 l 2,40,41
 161 106 161 106 161 130 c 0,42,43
 161 150 161 150 185 152 c 0,44,45
 191 153 191 153 200 153 c 2,46,-1
 207 153 l 1,47,-1
 207 364 l 1,48,-1
 192 364 l 2,49,50
 161 364 161 364 161 388 c 0,51,52
 161 411 161 411 187 411 c 2,53,-1
 238 411 l 2,54,55
 253 411 253 411 256 399 c 1,56,-1
 257 391 l 1,57,58
 282 420 282 420 320 420 c 0,59,60
 366 420 366 420 380 379 c 1,61,62
 409 420 409 420 454 420 c 0,63,64
 520 420 520 420 532 349 c 0,65,66
 535 329 535 329 535 302 c 2,67,-1
 535 153 l 1,68,-1
 541 153 l 2,69,70
 572 153 572 153 575 137 c 0,71,72
 576 134 576 134 576 130 c 0,73,74
 576 106 576 106 552 106 c 2,75,-1
 512 106 l 2,76,77
 484 106 484 106 484 139 c 2,78,-1
 484 290 l 2,0,1
EndSplineSet
Validated: 1
EndChar

StartChar: n
Encoding: 110 110 81
Width: 600
GlyphClass: 2
Flags: W
LayerCount: 2
Fore
SplineSet
275 147 m 1,0,-1
 275 358 l 1,1,-1
 260 358 l 2,2,3
 230 358 230 358 230 382 c 0,4,5
 230 402 230 402 250 404 c 0,6,7
 257 405 257 405 275 405 c 2,8,-1
 306 405 l 2,9,10
 325 405 325 405 325 391 c 2,11,-1
 325 369 l 1,12,13
 373 414 373 414 422 414 c 0,14,15
 494 414 494 414 519 352 c 0,16,17
 529 327 529 327 529 296 c 2,18,-1
 529 147 l 1,19,-1
 544 147 l 2,20,21
 575 147 575 147 575 124 c 1,22,23
 566 102 566 102 540 100 c 1,24,-1
 467 100 l 2,25,26
 440 100 440 100 436 111 c 0,27,28
 434 116 434 116 434 124 c 0,29,30
 434 144 434 144 455 146 c 0,31,32
 460 147 460 147 467 147 c 2,33,-1
 478 147 l 1,34,-1
 478 284 l 2,35,36
 478 363 478 363 410 363 c 0,37,38
 365 363 365 363 339 328 c 0,39,40
 324 308 324 308 324 284 c 2,41,-1
 324 147 l 1,42,-1
 339 147 l 1,43,44
 368 141 368 141 370 124 c 1,45,46
 370 104 370 104 354 101 c 1,47,-1
 335 100 l 1,48,-1
 275 100 l 1,49,-1
 258 100 l 2,50,51
 230 100 230 100 230 124 c 0,52,53
 230 143 230 143 251 146 c 0,54,55
 258 147 258 147 268 147 c 2,56,-1
 275 147 l 1,0,-1
EndSplineSet
Validated: 1
EndChar

StartChar: o
Encoding: 111 111 82
Width: 600
GlyphClass: 2
Flags: W
LayerCount: 2
Fore
SplineSet
572 258 m 0,0,1
 572 170 572 170 502 126 c 0,2,3
 459 98 459 98 400 98 c 0,4,5
 301 98 301 98 253 168 c 0,6,7
 227 207 227 207 227 258 c 0,8,9
 227 346 227 346 296 391 c 0,10,11
 340 419 340 419 400 419 c 0,12,13
 498 419 498 419 545 349 c 0,14,15
 572 309 572 309 572 258 c 0,0,1
400 144 m 0,16,17
 470 144 470 144 501 200 c 0,18,19
 515 226 515 226 515 258 c 0,20,21
 515 326 515 326 461 357 c 1,22,-1
 435 368 l 1,23,24
 418 373 418 373 400 373 c 0,25,26
 331 373 331 373 300 319 c 0,27,28
 284 292 284 292 284 258 c 0,29,30
 284 192 284 192 337 160 c 0,31,32
 365 144 365 144 400 144 c 0,16,17
EndSplineSet
Validated: 1
EndChar

StartChar: p
Encoding: 112 112 83
Width: 600
GlyphClass: 2
Flags: W
LayerCount: 2
Fore
SplineSet
416 143 m 0,0,1
 481 143 481 143 509 195 c 0,2,3
 521 218 521 218 521 247 c 0,4,5
 521 310 521 310 470 337 c 0,6,7
 446 350 446 350 416 350 c 0,8,9
 353 350 353 350 325 299 c 0,10,11
 312 276 312 276 312 247 c 0,12,13
 312 184 312 184 363 156 c 0,14,15
 387 143 387 143 416 143 c 0,0,1
314 11 m 1,16,-1
 393 11 l 2,17,18
 418 11 418 11 418 -13 c 1,19,20
 410 -34 410 -34 391 -36 c 1,21,-1
 245 -36 l 2,22,23
 218 -36 218 -36 218 -13 c 1,24,25
 227 9 227 9 258 11 c 1,26,-1
 264 11 l 1,27,-1
 264 353 l 1,28,-1
 249 353 l 2,29,30
 218 353 218 353 218 377 c 0,31,32
 218 400 218 400 245 400 c 2,33,-1
 295 400 l 2,34,35
 314 400 314 400 314 387 c 2,36,-1
 314 355 l 1,37,38
 360 401 360 401 422 401 c 0,39,40
 503 401 503 401 548 339 c 0,41,42
 578 298 578 298 578 243 c 0,43,44
 578 160 578 160 513 118 c 0,45,46
 476 95 476 95 428 95 c 0,47,48
 356 95 356 95 314 143 c 1,49,-1
 314 11 l 1,16,-1
EndSplineSet
Validated: 1
EndChar

StartChar: q
Encoding: 113 113 84
Width: 600
GlyphClass: 2
Flags: W
LayerCount: 2
Fore
SplineSet
484 13 m 1,0,-1
 484 145 l 1,1,2
 442 97 442 97 370 97 c 0,3,4
 285 97 285 97 243 161 c 0,5,6
 220 197 220 197 220 245 c 0,7,8
 220 330 220 330 285 375 c 0,9,10
 325 403 325 403 376 403 c 0,11,12
 438 403 438 403 484 357 c 1,13,-1
 484 389 l 2,14,15
 484 402 484 402 503 402 c 2,16,-1
 553 402 l 2,17,18
 579 402 579 402 579 379 c 0,19,20
 579 359 579 359 558 356 c 0,21,22
 551 355 551 355 540 355 c 2,23,-1
 534 355 l 1,24,-1
 534 13 l 1,25,-1
 548 13 l 2,26,27
 579 13 579 13 579 -11 c 0,28,29
 579 -34 579 -34 553 -34 c 2,30,-1
 407 -34 l 1,31,32
 381 -29 381 -29 379 -11 c 1,33,34
 379 13 379 13 405 13 c 2,35,-1
 484 13 l 1,0,-1
277 249 m 0,36,37
 277 183 277 183 331 156 c 0,38,39
 353 145 353 145 381 145 c 0,40,41
 446 145 446 145 473 198 c 0,42,43
 485 221 485 221 485 249 c 0,44,45
 485 311 485 311 435 339 c 0,46,47
 411 352 411 352 381 352 c 0,48,49
 316 352 316 352 289 300 c 0,50,51
 277 277 277 277 277 249 c 0,36,37
EndSplineSet
Validated: 1
EndChar

StartChar: r
Encoding: 114 114 85
Width: 600
GlyphClass: 2
Flags: W
LayerCount: 2
Fore
SplineSet
365 150 m 1,0,-1
 474 150 l 2,1,2
 499 150 499 150 499 127 c 0,3,4
 499 106 499 106 482 104 c 0,5,6
 478 103 478 103 472 103 c 2,7,-1
 257 103 l 2,8,9
 230 103 230 103 230 127 c 0,10,11
 230 150 230 150 257 150 c 2,12,-1
 316 150 l 1,13,-1
 316 361 l 1,14,-1
 293 361 l 1,15,-1
 276 361 l 2,16,17
 245 361 245 361 245 385 c 0,18,19
 245 408 245 408 272 408 c 2,20,-1
 347 408 l 2,21,22
 365 408 365 408 365 395 c 2,23,-1
 365 338 l 1,24,25
 426 416 426 416 503 416 c 0,26,27
 558 416 558 416 568 383 c 0,28,29
 569 379 569 379 569 374 c 0,30,31
 569 353 569 353 549 345 c 0,32,33
 545 343 545 343 540 343 c 0,34,35
 534 343 534 343 509 356 c 0,36,37
 495 363 495 363 482 363 c 0,38,39
 433 363 433 363 365 286 c 1,40,-1
 365 150 l 1,0,-1
EndSplineSet
Validated: 1
EndChar

StartChar: s
Encoding: 115 115 86
Width: 600
GlyphClass: 2
Flags: W
LayerCount: 2
Fore
SplineSet
254 131 m 2,0,-1
 254 190 l 2,1,2
 254 217 254 217 277 217 c 0,3,4
 290 217 290 217 298 200 c 0,5,6
 304 188 304 188 308 182 c 1,7,8
 342 145 342 145 408 143 c 1,9,10
 469 143 469 143 483 179 c 0,11,12
 486 186 486 186 486 194 c 0,13,14
 486 229 486 229 445 235 c 0,15,16
 432 237 432 237 412 237 c 2,17,-1
 393 237 l 2,18,19
 268 237 268 237 256 314 c 0,20,21
 255 321 255 321 255 329 c 0,22,23
 255 390 255 390 320 412 c 0,24,25
 347 421 347 421 382 421 c 0,26,27
 411 421 411 421 459 407 c 0,28,29
 464 406 464 406 466 406 c 256,30,31
 468 406 468 406 482 414 c 0,32,33
 491 419 491 419 500 419 c 0,34,35
 522 419 522 419 522 386 c 2,36,-1
 522 348 l 2,37,38
 522 315 522 315 500 315 c 0,39,40
 490 315 490 315 472 334 c 0,41,42
 464 343 464 343 458 349 c 0,43,44
 424 379 424 379 374 379 c 0,45,46
 322 379 322 379 309 345 c 1,47,-1
 306 331 l 1,48,49
 306 301 306 301 351 294 c 0,50,51
 370 292 370 292 408 291 c 0,52,53
 527 288 527 288 539 217 c 0,54,55
 541 208 541 208 541 198 c 0,56,57
 541 138 541 138 481 112 c 0,58,59
 451 100 451 100 412 100 c 0,60,61
 374 100 374 100 312 115 c 1,62,63
 288 100 288 100 278 100 c 0,64,65
 254 100 254 100 254 131 c 2,0,-1
EndSplineSet
Validated: 1
EndChar

StartChar: t
Encoding: 116 116 87
Width: 600
GlyphClass: 2
Flags: W
LayerCount: 2
Fore
SplineSet
489 390 m 2,0,1
 520 390 520 390 520 366 c 0,2,3
 520 343 520 343 492 343 c 2,4,-1
 358 343 l 1,5,-1
 358 233 l 2,6,7
 358 173 358 173 378 157 c 0,8,9
 392 145 392 145 420 145 c 0,10,11
 451 145 451 145 511 171 c 0,12,13
 534 181 534 181 544 181 c 0,14,15
 560 181 560 181 566 164 c 0,16,17
 567 161 567 161 567 157 c 0,18,19
 567 137 567 137 531 122 c 1,20,21
 465 97 465 97 424 97 c 0,22,23
 348 97 348 97 319 147 c 0,24,25
 307 166 307 166 307 223 c 2,26,-1
 307 233 l 1,27,-1
 307 343 l 1,28,-1
 251 343 l 2,29,30
 225 343 225 343 225 366 c 0,31,32
 225 386 225 386 246 389 c 0,33,34
 254 390 254 390 270 390 c 2,35,-1
 307 390 l 1,36,-1
 307 458 l 1,37,-1
 307 475 l 2,38,39
 307 503 307 503 332 503 c 0,40,41
 355 503 355 503 358 480 c 1,42,-1
 359 457 l 1,43,-1
 359 390 l 1,44,-1
 489 390 l 2,0,1
EndSplineSet
Validated: 1
EndChar

StartChar: u
Encoding: 117 117 88
Width: 600
GlyphClass: 2
Flags: W
LayerCount: 2
Fore
SplineSet
314 222 m 1,0,1
 320 145 320 145 389 142 c 1,2,3
 438 142 438 142 463 179 c 0,4,5
 476 198 476 198 476 222 c 2,6,-1
 476 358 l 1,7,-1
 430 358 l 2,8,9
 406 358 406 358 406 382 c 0,10,11
 406 405 406 405 433 405 c 2,12,-1
 503 405 l 2,13,14
 523 405 523 405 525 388 c 0,15,16
 526 384 526 384 526 373 c 2,17,-1
 526 147 l 1,18,-1
 541 147 l 2,19,20
 570 147 570 147 571 124 c 1,21,22
 571 100 571 100 545 100 c 2,23,-1
 495 100 l 2,24,25
 476 100 476 100 476 114 c 2,26,-1
 476 136 l 1,27,28
 418 94 418 94 373 93 c 1,29,30
 264 93 264 93 264 210 c 2,31,-1
 264 358 l 1,32,-1
 249 358 l 2,33,34
 219 358 219 358 219 382 c 0,35,36
 219 405 219 405 245 405 c 2,37,-1
 295 405 l 2,38,39
 312 405 312 405 314 394 c 0,40,41
 314 391 314 391 314 383 c 2,42,-1
 314 380 l 1,43,-1
 314 222 l 1,0,1
EndSplineSet
Validated: 1
EndChar

StartChar: v
Encoding: 118 118 89
Width: 600
GlyphClass: 2
Flags: W
LayerCount: 2
Fore
SplineSet
247 365 m 1,0,1
 214 365 214 365 211 380 c 0,2,3
 210 383 210 383 210 388 c 0,4,5
 210 411 210 411 236 411 c 2,6,-1
 329 411 l 2,7,8
 356 411 356 411 359 396 c 0,9,10
 360 393 360 393 360 388 c 0,11,12
 360 368 360 368 336 366 c 2,13,-1
 321 365 l 1,14,-1
 309 365 l 1,15,-1
 395 151 l 1,16,-1
 490 365 l 1,17,-1
 471 364 l 1,18,-1
 470 364 l 2,19,20
 432 364 432 364 428 381 c 0,21,22
 427 384 427 384 427 388 c 0,23,24
 427 408 427 408 445 410 c 0,25,26
 450 411 450 411 458 411 c 2,27,-1
 560 411 l 2,28,29
 587 411 587 411 587 388 c 0,30,31
 587 368 587 368 564 366 c 0,32,33
 558 365 558 365 549 365 c 2,34,-1
 543 365 l 1,35,-1
 434 124 l 2,36,37
 424 100 424 100 408 96 c 1,38,-1
 394 95 l 1,39,40
 369 95 369 95 359 118 c 0,41,42
 357 121 357 121 356 124 c 2,43,-1
 247 365 l 1,0,1
EndSplineSet
Validated: 1
EndChar

StartChar: w
Encoding: 119 119 90
Width: 600
GlyphClass: 2
Flags: W
LayerCount: 2
Fore
SplineSet
373 274 m 1,0,-1
 331 117 l 2,1,2
 325 95 325 95 303 95 c 256,3,4
 281 95 281 95 273 119 c 0,5,6
 272 121 272 121 271 124 c 2,7,-1
 195 365 l 1,8,9
 168 365 168 365 166 388 c 1,10,11
 166 411 166 411 191 411 c 2,12,-1
 280 411 l 2,13,14
 305 411 305 411 308 398 c 0,15,16
 309 394 309 394 309 388 c 0,17,18
 309 368 309 368 286 365 c 0,19,20
 279 364 279 364 269 364 c 0,21,22
 255 364 255 364 247 365 c 1,23,-1
 304 167 l 1,24,-1
 347 310 l 2,25,26
 353 333 353 333 374 333 c 0,27,28
 397 333 397 333 405 311 c 0,29,30
 406 308 406 308 407 304 c 2,31,-1
 448 167 l 1,32,-1
 503 365 l 1,33,34
 495 364 495 364 480 364 c 0,35,36
 446 364 446 364 443 381 c 0,37,38
 442 384 442 384 442 388 c 0,39,40
 442 408 442 408 460 410 c 0,41,42
 464 411 464 411 471 411 c 2,43,-1
 560 411 l 2,44,45
 580 411 580 411 580 388 c 1,46,47
 572 367 572 367 551 365 c 1,48,-1
 477 117 l 2,49,50
 470 95 470 95 449 95 c 0,51,52
 427 95 427 95 419 119 c 0,53,54
 418 121 418 121 417 124 c 2,55,-1
 373 274 l 1,0,-1
EndSplineSet
Validated: 1
EndChar

StartChar: x
Encoding: 120 120 91
Width: 600
GlyphClass: 2
Flags: W
LayerCount: 2
Fore
SplineSet
325 151 m 1,0,-1
 334 151 l 2,1,2
 370 151 370 151 370 127 c 0,3,4
 370 104 370 104 335 104 c 2,5,-1
 245 104 l 2,6,7
 222 104 222 104 222 129 c 0,8,9
 222 151 222 151 259 151 c 2,10,-1
 266 151 l 1,11,-1
 372 260 l 1,12,-1
 268 362 l 1,13,-1
 263 362 l 2,14,15
 230 362 230 362 229 385 c 0,16,17
 229 405 229 405 252 408 c 0,18,19
 259 409 259 409 270 409 c 2,20,-1
 337 409 l 2,21,22
 371 409 371 409 371 385 c 0,23,24
 371 362 371 362 333 362 c 1,25,-1
 404 293 l 1,26,-1
 472 362 l 1,27,-1
 465 362 l 2,28,29
 428 362 428 362 428 385 c 0,30,31
 428 409 428 409 462 409 c 2,32,-1
 548 409 l 2,33,34
 570 409 570 409 571 386 c 1,35,36
 571 362 571 362 537 362 c 2,37,-1
 527 362 l 1,38,-1
 432 264 l 1,39,-1
 548 151 l 1,40,-1
 551 151 l 2,41,42
 577 151 577 151 577 127 c 0,43,44
 577 108 577 108 558 105 c 1,45,-1
 537 104 l 1,46,-1
 470 104 l 2,47,48
 436 104 436 104 436 127 c 0,49,50
 436 151 436 151 466 151 c 2,51,-1
 484 151 l 1,52,-1
 401 232 l 1,53,-1
 325 151 l 1,0,-1
EndSplineSet
Validated: 1
EndChar

StartChar: y
Encoding: 121 121 92
Width: 600
GlyphClass: 2
Flags: W
LayerCount: 2
Fore
SplineSet
373 -9 m 1,0,-1
 387 -9 l 2,1,2
 425 -9 425 -9 428 -26 c 0,3,4
 429 -29 429 -29 429 -32 c 0,5,6
 429 -56 429 -56 402 -56 c 2,7,-1
 250 -56 l 2,8,9
 224 -56 224 -56 222 -32 c 1,10,11
 222 -9 222 -9 247 -9 c 2,12,-1
 319 -9 l 1,13,-1
 373 97 l 1,14,-1
 252 334 l 1,15,16
 217 339 217 339 214 357 c 1,17,18
 214 380 214 380 241 380 c 2,19,-1
 333 380 l 2,20,21
 360 380 360 380 363 365 c 0,22,23
 364 362 364 362 364 357 c 1,24,25
 354 336 354 336 325 334 c 1,26,-1
 313 334 l 1,27,-1
 402 152 l 1,28,-1
 493 334 l 1,29,-1
 481 334 l 2,30,31
 445 334 445 334 442 351 c 0,32,33
 441 354 441 354 441 357 c 0,34,35
 441 377 441 377 459 379 c 0,36,37
 464 380 464 380 472 380 c 2,38,-1
 554 380 l 2,39,40
 580 380 580 380 580 357 c 0,41,42
 580 335 580 335 547 334 c 1,43,-1
 373 -9 l 1,0,-1
EndSplineSet
Validated: 1
EndChar

StartChar: z
Encoding: 122 122 93
Width: 600
GlyphClass: 2
Flags: W
LayerCount: 2
Fore
SplineSet
326 151 m 1,0,-1
 490 151 l 1,1,-1
 490 168 l 2,2,3
 490 205 490 205 502 211 c 0,4,5
 507 213 507 213 514 213 c 0,6,7
 536 213 536 213 536 186 c 2,8,-1
 536 132 l 2,9,10
 536 107 536 107 510 105 c 0,11,12
 504 104 504 104 497 104 c 2,13,-1
 298 104 l 2,14,15
 260 104 260 104 260 134 c 0,16,17
 260 150 260 150 284 174 c 2,18,-1
 472 362 l 1,19,-1
 315 362 l 1,20,-1
 315 345 l 2,21,22
 315 308 315 308 303 302 c 0,23,24
 298 300 298 300 291 300 c 0,25,26
 268 300 268 300 268 326 c 2,27,-1
 268 382 l 2,28,29
 268 409 268 409 313 409 c 2,30,-1
 490 409 l 2,31,32
 536 409 536 409 536 376 c 0,33,34
 536 357 536 357 507 328 c 2,35,-1
 326 151 l 1,0,-1
EndSplineSet
Validated: 1
EndChar

StartChar: braceleft
Encoding: 123 123 94
Width: 600
GlyphClass: 2
Flags: W
LayerCount: 2
Fore
SplineSet
435 449 m 1,0,-1
 435 418 l 2,1,2
 435 346 435 346 406 323 c 0,3,4
 394 313 394 313 374 308 c 1,5,6
 422 293 422 293 431 245 c 1,7,-1
 435 202 l 1,8,-1
 435 196 l 1,9,-1
 435 165 l 2,10,11
 435 122 435 122 448 111 c 0,12,13
 455 106 455 106 468 103 c 2,14,-1
 498 97 l 1,15,16
 509 91 509 91 509 76 c 0,17,18
 509 49 509 49 481 49 c 0,19,20
 407 49 407 49 388 103 c 0,21,22
 379 130 379 130 379 182 c 2,23,-1
 379 203 l 2,24,25
 379 258 379 258 351 271 c 0,26,27
 341 276 341 276 314 281 c 1,28,29
 292 290 292 290 290 308 c 1,30,31
 290 327 290 327 310 333 c 1,32,33
 351 343 351 343 353 344 c 0,34,35
 379 357 379 357 379 412 c 2,36,-1
 379 433 l 2,37,38
 379 520 379 520 411 546 c 1,39,40
 434 566 434 566 484 566 c 0,41,42
 507 566 507 566 509 539 c 1,43,44
 509 519 509 519 489 516 c 2,45,-1
 472 514 l 1,46,47
 441 509 441 509 437 479 c 1,48,-1
 435 449 l 1,0,-1
EndSplineSet
Validated: 1
EndChar

StartChar: bar
Encoding: 124 124 95
Width: 600
GlyphClass: 2
Flags: W
LayerCount: 2
Fore
SplineSet
426 91 m 1,0,1
 424 76 424 76 398 74 c 1,2,3
 375 74 375 74 370 91 c 1,4,-1
 370 767 l 1,5,6
 372 781 372 781 398 783 c 1,7,8
 423 783 423 783 426 767 c 1,9,-1
 426 91 l 1,0,1
EndSplineSet
Validated: 1
EndChar

StartChar: braceright
Encoding: 125 125 96
Width: 600
GlyphClass: 2
Flags: W
LayerCount: 2
Fore
SplineSet
364 449 m 2,0,1
 364 492 364 492 351 503 c 1,2,-1
 336 511 l 2,3,4
 334 511 334 511 331 512 c 2,5,-1
 301 518 l 1,6,7
 290 524 290 524 290 539 c 0,8,9
 290 565 290 565 315 566 c 1,10,11
 391 566 391 566 410 514 c 0,12,13
 420 487 420 487 420 433 c 2,14,-1
 420 412 l 2,15,16
 420 355 420 355 448 343 c 1,17,18
 448 343 448 343 489 333 c 1,19,20
 509 327 509 327 509 308 c 0,21,22
 509 286 509 286 485 281 c 0,23,24
 443 273 443 273 432 259 c 1,25,-1
 424 242 l 1,26,-1
 420 210 l 1,27,-1
 420 203 l 1,28,-1
 420 182 l 2,29,30
 420 93 420 93 387 67 c 0,31,32
 364 49 364 49 319 49 c 0,33,34
 290 49 290 49 290 76 c 0,35,36
 290 96 290 96 311 100 c 1,37,38
 305 98 305 98 327 102 c 0,39,40
 357 107 357 107 362 131 c 0,41,42
 364 142 364 142 364 165 c 2,43,-1
 364 196 l 2,44,45
 364 268 364 268 393 292 c 0,46,47
 405 302 405 302 424 308 c 1,48,49
 377 321 377 321 368 370 c 0,50,51
 364 388 364 388 364 418 c 2,52,-1
 364 449 l 2,0,1
EndSplineSet
Validated: 1
EndChar

StartChar: asciitilde
Encoding: 126 126 97
Width: 600
GlyphClass: 2
Flags: W
LayerCount: 2
Fore
SplineSet
239 312 m 0,0,1
 239 334 239 334 276 353 c 0,2,3
 302 366 302 366 331 366 c 0,4,5
 351 366 351 366 413 347 c 0,6,7
 447 337 447 337 467 337 c 0,8,9
 489 337 489 337 525 356 c 0,10,11
 536 362 536 362 541 362 c 0,12,13
 558 362 558 362 558 341 c 256,14,15
 558 320 558 320 522 302 c 0,16,17
 495 288 495 288 466 288 c 0,18,19
 446 288 446 288 383 306 c 0,20,21
 350 316 350 316 329 316 c 0,22,23
 307 316 307 316 270 297 c 0,24,25
 260 292 260 292 255 292 c 0,26,27
 239 292 239 292 239 312 c 0,0,1
EndSplineSet
Validated: 1
EndChar

StartChar: uni00A0
Encoding: 160 160 98
Width: 600
GlyphClass: 2
Flags: W
LayerCount: 2
Fore
SplineSet
150 103 m 0,0,1
 71 103 71 103 36 194 c 0,2,3
 15 247 15 247 15 322 c 0,4,5
 15 471 15 471 88 522 c 0,6,7
 115 541 115 541 150 541 c 0,8,9
 231 541 231 541 266 448 c 1,10,-1
 278 403 l 1,11,12
 285 366 285 366 285 322 c 0,13,14
 285 170 285 170 211 121 c 0,15,16
 184 103 184 103 150 103 c 0,0,1
150 494 m 1,17,18
 94 494 94 494 77 401 c 0,19,20
 70 367 70 367 70 322 c 0,21,22
 70 178 70 178 129 154 c 0,23,24
 139 150 139 150 150 150 c 0,25,26
 211 150 211 150 226 256 c 0,27,28
 230 286 230 286 230 322 c 0,29,30
 230 471 230 471 167 491 c 1,31,-1
 150 494 l 1,17,18
302 441 m 1,32,-1
 254 441 l 2,33,34
 220 441 220 441 218 465 c 1,35,36
 218 486 218 486 239 488 c 0,37,38
 245 489 245 489 264 489 c 2,39,-1
 358 489 l 2,40,41
 380 489 380 489 388 478 c 1,42,-1
 394 466 l 1,43,-1
 523 144 l 1,44,-1
 529 144 l 1,45,46
 558 138 558 138 560 121 c 1,47,48
 560 100 560 100 542 98 c 2,49,-1
 530 97 l 1,50,-1
 440 97 l 2,51,52
 407 97 407 97 403 110 c 0,53,54
 401 114 401 114 401 121 c 0,55,56
 401 141 401 141 423 143 c 0,57,58
 429 144 429 144 438 144 c 2,59,-1
 469 144 l 1,60,-1
 437 222 l 1,61,-1
 269 222 l 1,62,-1
 241 144 l 1,63,-1
 273 144 l 1,64,65
 307 138 307 138 310 121 c 1,66,67
 310 101 310 101 293 98 c 1,68,-1
 272 97 l 1,69,-1
 185 97 l 2,70,71
 156 97 156 97 152 111 c 0,72,73
 151 115 151 115 151 121 c 1,74,75
 161 142 161 142 182 144 c 1,76,-1
 190 144 l 1,77,-1
 302 441 l 1,32,-1
285 266 m 1,78,-1
 421 266 l 1,79,-1
 349 441 l 1,80,-1
 285 266 l 1,78,-1
EndSplineSet
Validated: 5
EndChar

StartChar: exclamdown
Encoding: 161 161 99
Width: 552
GlyphClass: 2
Flags: W
LayerCount: 2
Fore
SplineSet
289 534 m 0,0,1
 289 570 289 570 325 582 c 0,2,3
 337 586 337 586 350 586 c 0,4,5
 397 586 397 586 409 550 c 1,6,-1
 412 534 l 1,7,8
 412 497 412 497 373 485 c 0,9,10
 363 482 363 482 350 482 c 0,11,12
 302 482 302 482 291 519 c 0,13,14
 289 526 289 526 289 534 c 0,0,1
312 210 m 1,15,-1
 323 424 l 1,16,17
 329 446 329 446 350 449 c 1,18,19
 373 444 373 444 377 424 c 1,20,-1
 389 210 l 1,21,-1
 389 207 l 1,22,23
 382 169 382 169 350 165 c 1,24,25
 318 165 318 165 313 198 c 0,26,27
 312 202 312 202 312 207 c 2,28,-1
 312 210 l 1,15,-1
EndSplineSet
Validated: 1
EndChar

StartChar: cent
Encoding: 162 162 100
Width: 540
GlyphClass: 2
Flags: W
LayerCount: 2
Fore
SplineSet
424 546 m 1,0,1
 436 553 436 553 445 553 c 0,2,3
 464 553 464 553 466 534 c 2,4,-1
 467 520 l 1,5,-1
 467 473 l 2,6,7
 467 451 467 451 444 451 c 0,8,9
 431 451 431 451 420 472 c 0,10,11
 419 473 419 473 415 481 c 0,12,13
 394 522 394 522 347 522 c 0,14,15
 290 522 290 522 264 473 c 0,16,17
 253 452 253 452 253 426 c 0,18,19
 253 362 253 362 307 339 c 0,20,21
 327 331 327 331 351 331 c 0,22,23
 384 331 384 331 425 355 c 0,24,25
 440 364 440 364 448 364 c 0,26,27
 467 364 467 364 468 344 c 1,28,29
 468 320 468 320 423 301 c 0,30,31
 393 288 393 288 353 285 c 1,32,-1
 348 212 l 2,33,34
 347 193 347 193 326 193 c 0,35,36
 303 193 303 193 303 212 c 2,37,-1
 303 213 l 1,38,-1
 307 289 l 1,39,40
 238 305 238 305 210 368 c 0,41,42
 199 395 199 395 199 425 c 0,43,44
 199 504 199 504 263 544 c 0,45,46
 288 560 288 560 319 565 c 1,47,-1
 323 633 l 2,48,49
 324 652 324 652 345 652 c 0,50,51
 369 652 369 652 369 634 c 2,52,-1
 369 633 l 1,53,-1
 365 565 l 1,54,55
 405 556 405 556 424 546 c 1,0,1
EndSplineSet
Validated: 1
EndChar

StartChar: sterling
Encoding: 163 163 101
Width: 571
GlyphClass: 2
Flags: W
LayerCount: 2
Fore
SplineSet
346 406 m 1,0,1
 359 366 359 366 359 337 c 0,2,3
 359 310 359 310 346 283 c 1,4,-1
 352 283 l 2,5,6
 361 283 361 283 408 274 c 0,7,8
 421 271 421 271 430 271 c 0,9,10
 448 271 448 271 474 288 c 0,11,12
 479 291 479 291 481 291 c 0,13,14
 487 291 487 291 490 285 c 2,15,-1
 501 267 l 1,16,17
 503 261 503 261 503 260 c 0,18,19
 503 249 503 249 477 234 c 0,20,21
 455 221 455 221 432 221 c 0,22,23
 421 221 421 221 369 233 c 0,24,25
 351 237 351 237 338 237 c 0,26,27
 322 237 322 237 287 223 c 1,28,-1
 269 218 l 1,29,30
 259 218 259 218 253 233 c 0,31,32
 252 236 252 236 252 239 c 0,33,34
 252 245 252 245 270 256 c 0,35,36
 277 260 277 260 282 264 c 0,37,38
 309 284 309 284 309 329 c 0,39,40
 309 353 309 353 292 406 c 1,41,-1
 263 406 l 2,42,43
 250 406 250 406 250 419 c 2,44,-1
 250 434 l 2,45,46
 250 444 250 444 261 444 c 2,47,-1
 282 444 l 1,48,49
 265 495 265 495 265 537 c 0,50,51
 265 601 265 601 318 629 c 0,52,53
 344 642 344 642 375 642 c 0,54,55
 437 642 437 642 471 616 c 0,56,57
 476 612 476 612 476 594 c 2,58,-1
 476 575 l 2,59,60
 476 555 476 555 461 550 c 0,61,62
 458 549 458 549 456 549 c 0,63,64
 443 549 443 549 437 567 c 0,65,66
 433 580 433 580 432 583 c 0,67,68
 424 604 424 604 385 604 c 0,69,70
 318 604 318 604 317 542 c 0,71,72
 317 507 317 507 335 444 c 1,73,-1
 452 444 l 2,74,75
 466 444 466 444 466 431 c 2,76,-1
 466 419 l 2,77,78
 466 406 466 406 455 406 c 2,79,-1
 346 406 l 1,0,1
EndSplineSet
Validated: 1
EndChar

StartChar: currency
Encoding: 164 164 102
Width: 555
GlyphClass: 2
Flags: W
LayerCount: 2
Fore
SplineSet
261 680 m 0,0,1
 261 629 261 629 303 601 c 0,2,3
 327 585 327 585 356 585 c 0,4,5
 408 585 408 585 436 629 c 0,6,7
 451 653 451 653 451 680 c 0,8,9
 451 733 451 733 406 761 c 0,10,11
 383 775 383 775 356 775 c 0,12,13
 303 775 303 775 275 730 c 0,14,15
 261 707 261 707 261 680 c 0,0,1
191 539 m 1,16,-1
 254 602 l 1,17,18
 227 636 227 636 227 680 c 0,19,20
 227 722 227 722 254 758 c 1,21,-1
 191 821 l 1,22,-1
 214 844 l 1,23,-1
 277 781 l 1,24,25
 310 808 310 808 356 808 c 0,26,27
 400 808 400 808 434 781 c 1,28,-1
 496 844 l 1,29,-1
 520 821 l 1,30,-1
 457 758 l 1,31,32
 483 723 483 723 483 680 c 128,-1,33
 483 637 483 637 457 602 c 1,34,-1
 520 539 l 1,35,-1
 496 516 l 1,36,-1
 434 579 l 1,37,38
 400 552 400 552 356 552 c 0,39,40
 310 552 310 552 277 579 c 1,41,-1
 214 516 l 1,42,-1
 191 539 l 1,16,-1
EndSplineSet
Validated: 1
EndChar

StartChar: yen
Encoding: 165 165 103
Width: 550
GlyphClass: 2
Flags: W
LayerCount: 2
Fore
SplineSet
420 239 m 2,0,1
 454 239 454 239 458 227 c 1,2,-1
 460 216 l 1,3,4
 460 195 460 195 440 193 c 2,5,-1
 425 192 l 1,6,-1
 268 192 l 2,7,8
 238 192 238 192 234 207 c 0,9,10
 233 211 233 211 233 216 c 0,11,12
 233 235 233 235 252 238 c 0,13,14
 259 239 259 239 272 239 c 2,15,-1
 322 239 l 1,16,-1
 322 347 l 1,17,-1
 201 347 l 1,18,19
 174 351 174 351 172 364 c 1,20,21
 172 382 172 382 201 382 c 2,22,-1
 302 382 l 1,23,-1
 268 438 l 1,24,-1
 201 438 l 1,25,26
 174 442 174 442 172 455 c 1,27,28
 172 473 172 473 201 473 c 2,29,-1
 249 473 l 1,30,-1
 212 536 l 1,31,-1
 206 536 l 1,32,33
 173 542 173 542 170 560 c 1,34,35
 170 581 170 581 193 583 c 0,36,37
 199 584 199 584 210 584 c 2,38,-1
 286 584 l 2,39,40
 315 584 315 584 318 568 c 2,41,-1
 319 560 l 1,42,43
 319 539 319 539 290 536 c 0,44,45
 285 536 285 536 277 536 c 2,46,-1
 264 536 l 1,47,-1
 350 385 l 1,48,-1
 440 536 l 1,49,-1
 423 536 l 2,50,51
 391 536 391 536 388 553 c 0,52,53
 387 556 387 556 387 560 c 0,54,55
 387 580 387 580 404 583 c 0,56,57
 411 584 411 584 424 584 c 2,58,-1
 433 584 l 1,59,-1
 485 584 l 2,60,61
 517 584 517 584 522 572 c 0,62,63
 524 568 524 568 524 560 c 0,64,65
 524 539 524 539 501 537 c 0,66,67
 497 536 497 536 490 536 c 2,68,-1
 485 536 l 1,69,-1
 447 473 l 1,70,-1
 489 473 l 2,71,72
 519 473 519 473 519 455 c 1,73,74
 510 439 510 439 489 438 c 1,75,-1
 427 438 l 1,76,-1
 391 381 l 1,77,-1
 489 381 l 2,78,79
 519 381 519 381 519 363 c 1,80,81
 512 348 512 348 489 347 c 1,82,-1
 372 347 l 1,83,-1
 372 239 l 1,84,-1
 420 239 l 2,0,1
EndSplineSet
Validated: 1
EndChar

StartChar: brokenbar
Encoding: 166 166 104
Width: 550
GlyphClass: 2
Flags: W
LayerCount: 2
Fore
SplineSet
329 41 m 1,0,-1
 329 291 l 1,1,-1
 369 291 l 1,2,-1
 369 41 l 1,3,-1
 329 41 l 1,0,-1
329 379 m 1,4,-1
 329 629 l 1,5,-1
 369 629 l 1,6,-1
 369 379 l 1,7,-1
 329 379 l 1,4,-1
EndSplineSet
Validated: 1
EndChar

StartChar: section
Encoding: 167 167 105
Width: 552
GlyphClass: 2
Flags: W
LayerCount: 2
Fore
SplineSet
245 49 m 2,0,1
 226 49 226 49 226 69 c 2,2,-1
 226 135 l 2,3,4
 226 153 226 153 243 159 c 0,5,6
 246 160 246 160 250 160 c 0,7,8
 273 160 273 160 273 135 c 2,9,-1
 273 93 l 1,10,-1
 353 93 l 2,11,12
 404 93 404 93 404 126 c 0,13,14
 404 154 404 154 353 190 c 0,15,16
 348 194 348 194 342 198 c 2,17,-1
 251 260 l 2,18,19
 198 295 198 295 198 347 c 0,20,21
 198 392 198 392 246 417 c 1,22,23
 245 427 245 427 245 439 c 0,24,25
 245 473 245 473 275 495 c 0,26,27
 299 512 299 512 352 512 c 2,28,-1
 364 512 l 1,29,-1
 455 512 l 2,30,31
 477 512 477 512 477 493 c 2,32,-1
 477 431 l 2,33,34
 477 404 477 404 454 404 c 1,35,36
 435 409 435 409 432 431 c 1,37,-1
 432 469 l 1,38,-1
 358 469 l 2,39,40
 297 469 297 469 297 435 c 0,41,42
 297 403 297 403 352 366 c 2,43,-1
 440 306 l 2,44,45
 494 270 494 270 501 232 c 1,46,-1
 502 215 l 1,47,48
 502 170 502 170 455 145 c 1,49,50
 457 129 457 129 457 124 c 0,51,52
 457 49 457 49 348 49 c 2,53,-1
 245 49 l 2,0,1
432 185 m 1,54,55
 452 194 452 194 452 214 c 0,56,57
 452 237 452 237 412 264 c 2,58,-1
 324 325 l 2,59,60
 282 353 282 353 266 376 c 1,61,62
 247 367 247 367 247 349 c 0,63,64
 247 324 247 324 291 293 c 2,65,-1
 363 244 l 1,66,67
 415 207 415 207 428 190 c 0,68,69
 430 187 430 187 432 185 c 1,54,55
EndSplineSet
Validated: 1
EndChar

StartChar: dieresis
Encoding: 168 168 106
Width: 550
GlyphClass: 2
Flags: W
LayerCount: 2
Fore
SplineSet
225 986 m 0,0,1
 225 1012 225 1012 251 1022 c 0,2,3
 258 1025 258 1025 266 1025 c 0,4,5
 292 1025 292 1025 302 1000 c 1,6,-1
 305 986 l 1,7,8
 305 954 305 954 277 946 c 0,9,10
 272 945 272 945 266 945 c 0,11,12
 237 945 237 945 227 972 c 0,13,14
 225 979 225 979 225 986 c 0,0,1
393 986 m 0,15,16
 393 1011 393 1011 418 1022 c 0,17,18
 425 1025 425 1025 433 1025 c 0,19,20
 460 1025 460 1025 470 1000 c 0,21,22
 473 993 473 993 473 986 c 0,23,24
 473 955 473 955 446 947 c 0,25,26
 440 945 440 945 433 945 c 0,27,28
 406 945 406 945 396 970 c 0,29,30
 393 978 393 978 393 986 c 0,15,16
EndSplineSet
Validated: 1
EndChar

StartChar: copyright
Encoding: 169 169 107
Width: 552
GlyphClass: 2
Flags: W
LayerCount: 2
Fore
SplineSet
400 592 m 1,0,1
 405 600 405 600 418 600 c 0,2,3
 433 600 433 600 436 581 c 0,4,5
 437 573 437 573 437 552 c 2,6,-1
 437 529 l 1,7,8
 433 508 433 508 417 507 c 0,9,10
 402 507 402 507 397 524 c 0,11,12
 396 525 396 525 393 539 c 0,13,14
 389 560 389 560 359 564 c 2,15,-1
 350 565 l 1,16,17
 297 565 297 565 284 509 c 0,18,19
 281 495 281 495 281 479 c 0,20,21
 281 419 281 419 324 400 c 0,22,23
 337 395 337 395 351 395 c 0,24,25
 373 395 373 395 410 418 c 0,26,27
 418 424 418 424 422 424 c 0,28,29
 441 424 441 424 441 405 c 0,30,31
 441 387 441 387 407 369 c 0,32,33
 380 355 380 355 349 355 c 0,34,35
 286 355 286 355 254 408 c 0,36,37
 235 438 235 438 235 477 c 0,38,39
 235 548 235 548 288 584 c 0,40,41
 316 602 316 602 350 602 c 0,42,43
 376 602 376 602 400 592 c 1,0,1
155 481 m 0,44,45
 155 562 155 562 212 618 c 1,46,47
 268 676 268 676 350 676 c 0,48,49
 433 676 433 676 488 619 c 1,50,51
 546 561 546 561 546 481 c 128,-1,52
 546 401 546 401 487 342 c 1,53,54
 432 285 432 285 350 285 c 0,55,56
 292 285 292 285 243 317 c 0,57,58
 163 370 163 370 156 465 c 0,59,60
 155 473 155 473 155 481 c 0,44,45
350 643 m 256,61,62
 282 643 282 643 235 595 c 0,63,64
 187 545 187 545 187 481 c 0,65,66
 187 415 187 415 236 366 c 0,67,68
 284 318 284 318 350 318 c 0,69,70
 419 318 419 318 465 366 c 1,71,72
 513 414 513 414 513 481 c 0,73,74
 513 550 513 550 465 596 c 1,75,76
 418 643 418 643 350 643 c 256,61,62
EndSplineSet
Validated: 1
EndChar

StartChar: ordfeminine
Encoding: 170 170 108
Width: 575
GlyphClass: 2
Flags: W
LayerCount: 2
Fore
SplineSet
434 465 m 1,0,1
 391 425 391 425 335 425 c 0,2,3
 275 425 275 425 255 471 c 0,4,5
 248 487 248 487 248 505 c 0,6,7
 248 571 248 571 325 587 c 0,8,9
 345 591 345 591 370 591 c 0,10,11
 398 591 398 591 432 583 c 1,12,-1
 432 585 l 2,13,14
 432 644 432 644 374 645 c 0,15,16
 354 645 354 645 316 628 c 1,17,-1
 296 622 l 1,18,-1
 294 622 l 2,19,20
 280 622 280 622 277 637 c 0,21,22
 276 640 276 640 276 642 c 0,23,24
 276 669 276 669 333 678 c 0,25,26
 354 682 354 682 380 682 c 0,27,28
 474 682 474 682 474 588 c 2,29,-1
 474 469 l 1,30,-1
 487 469 l 1,31,-1
 494 469 l 2,32,33
 518 469 518 469 518 450 c 0,34,35
 518 432 518 432 497 432 c 2,36,-1
 455 432 l 2,37,38
 440 432 440 432 437 449 c 2,39,-1
 434 465 l 1,0,1
432 549 m 1,40,41
 408 557 408 557 372 557 c 0,42,43
 310 557 310 557 293 523 c 0,44,45
 290 515 290 515 290 507 c 0,46,47
 290 476 290 476 325 467 c 0,48,49
 334 465 334 465 345 465 c 0,50,51
 390 465 390 465 420 496 c 0,52,53
 432 508 432 508 432 519 c 2,54,-1
 432 549 l 1,40,41
484 394 m 2,55,56
 495 394 495 394 495 384 c 2,57,-1
 495 366 l 2,58,59
 495 357 495 357 484 355 c 1,60,-1
 269 355 l 2,61,62
 258 355 258 355 258 366 c 2,63,-1
 258 384 l 2,64,65
 258 394 258 394 269 394 c 2,66,-1
 484 394 l 2,55,56
EndSplineSet
Validated: 1
EndChar

StartChar: guillemotleft
Encoding: 171 171 109
Width: 550
GlyphClass: 2
Flags: W
LayerCount: 2
Fore
SplineSet
406 257 m 1,0,-1
 450 165 l 1,1,2
 452 157 452 157 452 155 c 0,3,4
 452 138 452 138 433 135 c 1,5,6
 420 135 420 135 414 147 c 2,7,-1
 364 242 l 2,8,9
 359 250 359 250 359 257 c 128,-1,10
 359 264 359 264 364 272 c 2,11,-1
 414 368 l 1,12,13
 421 379 421 379 433 379 c 0,14,15
 449 379 449 379 452 359 c 0,16,17
 452 357 452 357 450 349 c 1,18,-1
 406 257 l 1,0,-1
294 257 m 1,19,-1
 337 165 l 2,20,21
 340 159 340 159 340 155 c 0,22,23
 340 138 340 138 320 135 c 1,24,25
 308 135 308 135 302 147 c 2,26,-1
 252 242 l 2,27,28
 247 250 247 250 247 257 c 128,-1,29
 247 264 247 264 252 272 c 2,30,-1
 302 368 l 1,31,32
 309 379 309 379 320 379 c 0,33,34
 337 379 337 379 340 359 c 0,35,36
 340 355 340 355 337 349 c 2,37,-1
 294 257 l 1,19,-1
EndSplineSet
Validated: 1
EndChar

StartChar: logicalnot
Encoding: 172 172 110
Width: 552
GlyphClass: 2
Flags: W
LayerCount: 2
Fore
SplineSet
471 469 m 1,0,-1
 206 469 l 2,1,2
 182 469 182 469 180 494 c 1,3,4
 180 512 180 512 199 516 c 0,5,6
 203 517 203 517 206 517 c 2,7,-1
 502 517 l 2,8,9
 521 517 521 517 521 504 c 2,10,-1
 521 359 l 2,11,12
 521 338 521 338 502 334 c 0,13,14
 499 333 499 333 496 333 c 0,15,16
 476 333 476 333 472 352 c 0,17,18
 471 356 471 356 471 359 c 2,19,-1
 471 469 l 1,0,-1
EndSplineSet
Validated: 1
EndChar

StartChar: registered
Encoding: 174 174 111
Width: 552
GlyphClass: 2
Flags: W
LayerCount: 2
Fore
SplineSet
155 481 m 0,0,1
 155 562 155 562 212 618 c 1,2,3
 268 676 268 676 350 676 c 0,4,5
 433 676 433 676 488 619 c 1,6,7
 546 561 546 561 546 481 c 128,-1,8
 546 401 546 401 487 342 c 1,9,10
 432 285 432 285 350 285 c 0,11,12
 292 285 292 285 243 317 c 0,13,14
 163 370 163 370 156 465 c 0,15,16
 155 473 155 473 155 481 c 0,0,1
350 643 m 256,17,18
 282 643 282 643 235 595 c 0,19,20
 187 545 187 545 187 481 c 0,21,22
 187 415 187 415 236 366 c 0,23,24
 284 318 284 318 350 318 c 0,25,26
 419 318 419 318 465 366 c 1,27,28
 513 414 513 414 513 481 c 0,29,30
 513 550 513 550 465 596 c 1,31,32
 418 643 418 643 350 643 c 256,17,18
322 410 m 1,33,-1
 329 410 l 2,34,35
 354 410 354 410 354 391 c 0,36,37
 354 373 354 373 330 373 c 2,38,-1
 270 373 l 2,39,40
 252 373 252 373 252 391 c 1,41,42
 258 409 258 409 279 410 c 1,43,-1
 284 410 l 1,44,-1
 284 560 l 1,45,-1
 279 560 l 2,46,47
 255 560 255 560 253 571 c 0,48,49
 252 574 252 574 252 577 c 0,50,51
 252 595 252 595 270 595 c 2,52,-1
 333 595 l 2,53,54
 428 595 428 595 428 529 c 0,55,56
 428 487 428 487 387 472 c 1,57,-1
 394 463 l 1,58,-1
 395 462 l 1,59,-1
 429 410 l 1,60,-1
 432 410 l 2,61,62
 455 410 455 410 455 391 c 0,63,64
 455 373 455 373 437 373 c 2,65,-1
 417 373 l 2,66,67
 404 373 404 373 393 390 c 2,68,-1
 359 442 l 1,69,70
 339 463 339 463 329 465 c 1,71,-1
 322 465 l 1,72,-1
 322 410 l 1,33,-1
322 560 m 1,73,-1
 322 500 l 1,74,-1
 341 500 l 2,75,76
 385 500 385 500 385 530 c 128,-1,77
 385 560 385 560 342 560 c 2,78,-1
 322 560 l 1,73,-1
EndSplineSet
Validated: 1
EndChar

StartChar: macron
Encoding: 175 175 112
Width: 550
GlyphClass: 2
Flags: W
LayerCount: 2
Fore
SplineSet
464 976 m 2,0,1
 464 965 464 965 454 965 c 2,2,-1
 245 965 l 2,3,4
 236 965 236 965 234 976 c 1,5,-1
 234 994 l 2,6,7
 234 1003 234 1003 245 1005 c 1,8,-1
 454 1005 l 2,9,10
 464 1005 464 1005 464 994 c 2,11,-1
 464 976 l 2,0,1
EndSplineSet
Validated: 1
EndChar

StartChar: degree
Encoding: 176 176 113
Width: 552
GlyphClass: 2
Flags: W
LayerCount: 2
Fore
SplineSet
244 834 m 0,0,1
 244 891 244 891 291 922 c 0,2,3
 318 940 318 940 350 940 c 0,4,5
 409 940 409 940 440 891 c 0,6,7
 456 865 456 865 456 834 c 0,8,9
 456 774 456 774 407 743 c 1,10,-1
 383 732 l 1,11,12
 367 727 367 727 350 727 c 0,13,14
 292 727 292 727 261 775 c 0,15,16
 244 802 244 802 244 834 c 0,0,1
294 834 m 0,17,18
 294 795 294 795 327 781 c 0,19,20
 338 776 338 776 350 776 c 0,21,22
 386 776 386 776 401 809 c 0,23,24
 406 821 406 821 406 834 c 0,25,26
 406 870 406 870 375 885 c 1,27,-1
 355 891 l 1,28,-1
 350 891 l 2,29,30
 313 891 313 891 299 857 c 0,31,32
 294 846 294 846 294 834 c 0,17,18
EndSplineSet
Validated: 1
EndChar

StartChar: plusminus
Encoding: 177 177 114
Width: 550
GlyphClass: 2
Flags: W
LayerCount: 2
Fore
SplineSet
243 281 m 1,0,1
 221 286 221 286 217 306 c 1,2,3
 217 324 217 324 237 328 c 0,4,5
 240 329 240 329 243 329 c 2,6,-1
 455 329 l 2,7,8
 478 329 478 329 481 306 c 1,9,10
 476 284 476 284 455 281 c 1,11,-1
 243 281 l 1,0,1
455 544 m 2,12,13
 478 544 478 544 481 520 c 1,14,15
 481 500 481 500 462 496 c 1,16,-1
 455 495 l 1,17,-1
 374 495 l 1,18,-1
 374 397 l 2,19,20
 374 374 374 374 350 371 c 1,21,22
 331 371 331 371 326 391 c 0,23,24
 325 394 325 394 325 397 c 2,25,-1
 325 495 l 1,26,-1
 243 495 l 2,27,28
 222 495 222 495 218 514 c 0,29,30
 217 517 217 517 217 520 c 0,31,32
 217 537 217 537 235 543 c 0,33,34
 239 544 239 544 243 544 c 2,35,-1
 325 544 l 1,36,-1
 325 643 l 1,37,38
 330 665 330 665 350 669 c 1,39,40
 371 664 371 664 374 643 c 1,41,-1
 374 544 l 1,42,-1
 455 544 l 2,12,13
EndSplineSet
Validated: 1
EndChar

StartChar: uni00B2
Encoding: 178 178 115
Width: 548
GlyphClass: 2
Flags: W
LayerCount: 2
Fore
SplineSet
291 595 m 1,0,-1
 399 595 l 1,1,-1
 402 606 l 1,2,3
 405 627 405 627 425 630 c 1,4,5
 443 630 443 630 447 611 c 0,6,7
 448 607 448 607 448 604 c 0,8,9
 448 599 448 599 447 597 c 2,10,-1
 443 575 l 2,11,12
 440 557 440 557 413 557 c 2,13,-1
 268 557 l 2,14,15
 243 557 243 557 242 586 c 0,16,17
 242 607 242 607 278 633 c 1,18,19
 269 626 269 626 315 658 c 0,20,21
 369 695 369 695 379 718 c 0,22,23
 383 728 383 728 383 739 c 0,24,25
 383 772 383 772 353 780 c 0,26,27
 347 781 347 781 341 781 c 0,28,29
 324 781 324 781 289 763 c 1,30,-1
 273 757 l 1,31,-1
 272 757 l 2,32,33
 254 757 254 757 251 774 c 1,34,35
 251 794 251 794 288 809 c 0,36,37
 315 821 315 821 346 821 c 0,38,39
 403 821 403 821 426 777 c 1,40,-1
 434 755 l 1,41,42
 435 748 435 748 435 740 c 0,43,44
 435 695 435 695 380 654 c 0,45,46
 361 639 361 639 291 595 c 1,0,-1
EndSplineSet
Validated: 1
EndChar

StartChar: uni00B3
Encoding: 179 179 116
Width: 552
GlyphClass: 2
Flags: W
LayerCount: 2
Fore
SplineSet
407 683 m 1,0,1
 458 659 458 659 458 616 c 0,2,3
 458 567 458 567 405 544 c 1,4,5
 377 533 377 533 342 533 c 0,6,7
 275 533 275 533 249 562 c 0,8,9
 242 570 242 570 242 577 c 0,10,11
 242 593 242 593 258 598 c 0,12,13
 261 599 261 599 264 599 c 0,14,15
 268 599 268 599 297 585 c 0,16,17
 322 574 322 574 345 574 c 0,18,19
 394 574 394 574 404 607 c 0,20,21
 406 613 406 613 406 620 c 0,22,23
 406 648 406 648 372 656 c 1,24,-1
 360 658 l 1,25,26
 329 661 329 661 324 664 c 0,27,28
 319 668 319 668 319 679 c 0,29,30
 319 693 319 693 336 697 c 0,31,32
 339 698 339 698 344 699 c 0,33,34
 381 704 381 704 388 713 c 0,35,36
 394 720 394 720 394 734 c 0,37,38
 394 765 394 765 359 769 c 0,39,40
 355 770 355 770 350 770 c 0,41,42
 332 770 332 770 298 749 c 0,43,44
 285 742 285 742 279 742 c 0,45,46
 263 742 263 742 260 760 c 1,47,48
 260 778 260 778 295 795 c 0,49,50
 325 810 325 810 357 810 c 0,51,52
 412 810 412 810 435 771 c 1,53,-1
 442 751 l 2,54,55
 443 746 443 746 443 741 c 0,56,57
 443 704 443 704 407 683 c 1,0,1
EndSplineSet
Validated: 1
EndChar

StartChar: acute
Encoding: 180 180 117
Width: 600
GlyphClass: 2
Flags: W
LayerCount: 2
Fore
SplineSet
328 960 m 1,0,-1
 485 1051 l 2,1,2
 487 1053 487 1053 490 1053 c 0,3,4
 499 1053 499 1053 506 1043 c 1,5,-1
 517 1023 l 2,6,7
 518 1021 518 1021 518 1016 c 0,8,9
 518 1007 518 1007 509 1003 c 2,10,-1
 337 942 l 1,11,-1
 328 960 l 1,0,-1
EndSplineSet
Validated: 1
EndChar

StartChar: uni00B5
Encoding: 181 181 118
Width: 528
GlyphClass: 2
Flags: W
LayerCount: 2
Fore
SplineSet
431 13 m 1,0,-1
 452 13 l 2,1,2
 471 13 471 13 471 -6 c 0,3,4
 471 -33 471 -33 442 -33 c 2,5,-1
 390 -33 l 2,6,7
 373 -33 373 -33 373 -22 c 1,8,-1
 375 -16 l 1,9,-1
 382 7 l 1,10,11
 329 -40 329 -40 270 -40 c 0,12,13
 235 -40 235 -40 215 -20 c 1,14,-1
 195 -130 l 2,15,16
 189 -164 189 -164 175 -167 c 2,17,-1
 169 -168 l 1,18,19
 144 -168 144 -168 144 -149 c 0,20,21
 144 -146 144 -146 148 -120 c 1,22,-1
 220 227 l 1,23,-1
 194 227 l 2,24,25
 173 227 173 227 173 246 c 0,26,27
 173 272 173 272 203 272 c 2,28,-1
 261 272 l 2,29,30
 277 272 277 272 277 262 c 0,31,32
 277 259 277 259 276 257 c 2,33,-1
 238 81 l 2,34,35
 233 58 233 58 233 51 c 0,36,37
 233 7 233 7 286 7 c 0,38,39
 344 7 344 7 380 53 c 0,40,41
 395 73 395 73 400 96 c 2,42,-1
 431 249 l 2,43,44
 434 268 434 268 447 271 c 0,45,46
 452 272 452 272 460 272 c 0,47,48
 482 272 482 272 482 255 c 2,49,-1
 482 249 l 1,50,-1
 431 13 l 1,0,-1
EndSplineSet
Validated: 1
EndChar

StartChar: paragraph
Encoding: 182 182 119
Width: 555
GlyphClass: 2
Flags: W
LayerCount: 2
Fore
SplineSet
344 158 m 1,0,-1
 344 338 l 1,1,-1
 333 338 l 2,2,3
 238 338 238 338 203 401 c 0,4,5
 189 426 189 426 189 458 c 0,6,7
 189 559 189 559 327 578 c 0,8,9
 355 582 355 582 389 582 c 2,10,-1
 487 582 l 2,11,12
 512 582 512 582 512 560 c 1,13,14
 504 539 504 539 487 537 c 1,15,-1
 460 537 l 1,16,-1
 460 158 l 1,17,-1
 499 158 l 2,18,19
 522 158 522 158 522 136 c 1,20,21
 514 116 514 116 497 114 c 1,22,-1
 434 114 l 2,23,24
 409 114 409 114 409 136 c 0,25,26
 409 148 409 148 421 158 c 1,27,-1
 421 537 l 1,28,-1
 383 537 l 1,29,-1
 383 158 l 1,30,31
 398 153 398 153 398 136 c 1,32,33
 390 116 390 116 372 114 c 1,34,-1
 275 114 l 2,35,36
 250 114 250 114 250 136 c 0,37,38
 250 155 250 155 271 157 c 0,39,40
 278 158 278 158 292 158 c 2,41,-1
 344 158 l 1,0,-1
EndSplineSet
Validated: 1
EndChar

StartChar: periodcentered
Encoding: 183 183 120
Width: 552
GlyphClass: 2
Flags: W
LayerCount: 2
Fore
SplineSet
287 426 m 0,0,1
 287 465 287 465 321 483 c 0,2,3
 335 490 335 490 350 490 c 0,4,5
 389 490 389 490 407 455 c 1,6,-1
 413 434 l 2,7,8
 414 430 414 430 414 426 c 0,9,10
 414 387 414 387 379 369 c 1,11,-1
 358 363 l 2,12,13
 354 362 354 362 350 362 c 0,14,15
 310 362 310 362 293 398 c 0,16,17
 287 411 287 411 287 426 c 0,0,1
EndSplineSet
Validated: 1
EndChar

StartChar: cedilla
Encoding: 184 184 121
Width: 557
GlyphClass: 2
Flags: W
LayerCount: 2
Fore
SplineSet
359 -376 m 1,0,-1
 359 -414 l 1,1,-1
 383 -411 l 1,2,3
 426 -411 426 -411 439 -447 c 0,4,5
 442 -457 442 -457 442 -468 c 0,6,7
 442 -516 442 -516 387 -525 c 0,8,9
 377 -527 377 -527 366 -527 c 0,10,11
 312 -527 312 -527 281 -506 c 0,12,13
 271 -499 271 -499 271 -491 c 0,14,15
 271 -480 271 -480 287 -478 c 1,16,-1
 342 -494 l 1,17,18
 350 -495 350 -495 358 -495 c 0,19,20
 389 -495 389 -495 389 -468 c 0,21,22
 389 -440 389 -440 354 -440 c 0,23,24
 346 -440 346 -440 336 -442 c 1,25,-1
 336 -376 l 1,26,-1
 359 -376 l 1,0,-1
EndSplineSet
Validated: 1
EndChar

StartChar: uni00B9
Encoding: 185 185 122
Width: 569
GlyphClass: 2
Flags: W
LayerCount: 2
Fore
SplineSet
350 781 m 1,0,-1
 305 772 l 2,1,2
 302 771 302 771 297 771 c 0,3,4
 279 771 279 771 279 787 c 0,5,6
 279 800 279 800 296 804 c 2,7,-1
 377 821 l 1,8,-1
 386 821 l 2,9,10
 398 821 398 821 398 808 c 2,11,-1
 398 592 l 1,12,-1
 454 592 l 2,13,14
 475 592 475 592 475 575 c 0,15,16
 475 557 475 557 454 557 c 2,17,-1
 296 557 l 2,18,19
 275 557 275 557 275 575 c 0,20,21
 275 592 275 592 296 592 c 2,22,-1
 350 592 l 1,23,-1
 350 781 l 1,0,-1
EndSplineSet
Validated: 1
EndChar

StartChar: ordmasculine
Encoding: 186 186 123
Width: 552
GlyphClass: 2
Flags: W
LayerCount: 2
Fore
SplineSet
350 462 m 0,0,1
 410 462 410 462 433 510 c 0,2,3
 443 530 443 530 443 553 c 0,4,5
 443 611 443 611 395 635 c 0,6,7
 375 645 375 645 350 645 c 0,8,9
 291 645 291 645 268 597 c 1,10,-1
 260 572 l 2,11,12
 258 563 258 563 258 553 c 0,13,14
 258 496 258 496 305 472 c 0,15,16
 325 462 325 462 350 462 c 0,0,1
489 553 m 0,17,18
 489 479 489 479 427 445 c 0,19,20
 394 426 394 426 350 426 c 0,21,22
 266 426 266 426 229 487 c 0,23,24
 211 516 211 516 211 553 c 0,25,26
 211 625 211 625 271 661 c 0,27,28
 305 682 305 682 350 682 c 0,29,30
 435 682 435 682 471 620 c 0,31,32
 489 590 489 590 489 553 c 0,17,18
457 394 m 2,33,34
 469 394 469 394 469 384 c 2,35,-1
 469 366 l 2,36,37
 469 357 469 357 457 355 c 1,38,-1
 242 355 l 2,39,40
 231 355 231 355 231 366 c 2,41,-1
 231 384 l 2,42,43
 231 394 231 394 242 394 c 2,44,-1
 457 394 l 2,33,34
EndSplineSet
Validated: 1
EndChar

StartChar: guillemotright
Encoding: 187 187 124
Width: 550
GlyphClass: 2
Flags: W
LayerCount: 2
Fore
SplineSet
293 257 m 1,0,-1
 249 349 l 2,1,2
 247 353 247 353 247 359 c 0,3,4
 247 378 247 378 266 379 c 0,5,6
 278 379 278 379 285 367 c 2,7,-1
 335 272 l 2,8,9
 340 264 340 264 340 257 c 128,-1,10
 340 250 340 250 335 242 c 2,11,-1
 285 147 l 2,12,13
 278 135 278 135 266 135 c 0,14,15
 248 135 248 135 247 155 c 0,16,17
 247 161 247 161 249 165 c 2,18,-1
 293 257 l 1,0,-1
405 257 m 1,19,-1
 361 349 l 1,20,21
 359 357 359 357 359 359 c 0,22,23
 359 378 359 378 378 379 c 0,24,25
 389 379 389 379 396 367 c 2,26,-1
 447 272 l 2,27,28
 452 262 452 262 452 257 c 128,-1,29
 452 252 452 252 447 242 c 2,30,-1
 396 147 l 2,31,32
 389 135 389 135 378 135 c 0,33,34
 360 135 360 135 359 155 c 0,35,36
 359 157 359 157 361 165 c 1,37,-1
 405 257 l 1,19,-1
EndSplineSet
Validated: 1
EndChar

StartChar: onequarter
Encoding: 188 188 125
Width: 550
GlyphClass: 2
Flags: W
LayerCount: 2
Fore
SplineSet
480 481 m 2,0,1
 486 484 486 484 491 484 c 0,2,3
 508 484 508 484 509 466 c 0,4,5
 509 455 509 455 497 448 c 2,6,-1
 214 305 l 2,7,8
 208 302 208 302 203 302 c 0,9,10
 190 302 190 302 186 316 c 0,11,12
 185 318 185 318 185 320 c 0,13,14
 185 331 185 331 197 338 c 2,15,-1
 480 481 l 2,0,1
460 152 m 2,16,17
 460 136 460 136 437 135 c 0,18,19
 418 135 418 135 418 152 c 2,20,-1
 418 186 l 1,21,-1
 318 186 l 2,22,23
 297 186 297 186 297 211 c 0,24,25
 297 234 297 234 310 249 c 2,26,-1
 403 364 l 2,27,28
 412 376 412 376 419 376 c 0,29,30
 424 376 424 376 430 374 c 2,31,-1
 449 369 l 2,32,33
 460 367 460 367 460 348 c 2,34,-1
 460 224 l 1,35,-1
 485 224 l 1,36,37
 500 216 500 216 501 206 c 1,38,39
 501 189 501 189 492 187 c 0,40,41
 489 186 489 186 485 186 c 2,42,-1
 460 186 l 1,43,-1
 460 152 l 2,16,17
422 224 m 1,44,-1
 422 335 l 1,45,-1
 337 224 l 1,46,-1
 422 224 l 1,44,-1
212 420 m 2,47,48
 189 420 189 420 189 439 c 0,49,50
 189 455 189 455 212 457 c 0,51,52
 219 457 219 457 229 457 c 2,53,-1
 251 457 l 1,54,-1
 251 616 l 1,55,-1
 226 614 l 1,56,-1
 224 614 l 2,57,58
 200 614 200 614 197 633 c 1,59,60
 197 652 197 652 223 654 c 2,61,-1
 270 658 l 1,62,-1
 274 658 l 2,63,64
 295 658 295 658 295 633 c 2,65,-1
 295 457 l 1,66,-1
 314 457 l 2,67,68
 349 457 349 457 353 447 c 1,69,-1
 354 439 l 1,70,71
 354 420 354 420 331 420 c 2,72,-1
 212 420 l 2,47,48
EndSplineSet
Validated: 1
EndChar

StartChar: onehalf
Encoding: 189 189 126
Width: 550
GlyphClass: 2
Flags: W
LayerCount: 2
Fore
SplineSet
480 484 m 2,0,1
 486 487 486 487 491 487 c 0,2,3
 506 487 506 487 509 469 c 1,4,5
 509 458 509 458 497 451 c 2,6,-1
 214 307 l 2,7,8
 210 305 210 305 203 305 c 0,9,10
 190 305 190 305 186 319 c 0,11,12
 185 321 185 321 185 323 c 0,13,14
 185 334 185 334 197 341 c 2,15,-1
 480 484 l 2,0,1
361 141 m 2,16,17
 337 141 337 141 337 168 c 0,18,19
 337 186 337 186 369 211 c 2,20,-1
 387 225 l 1,21,22
 444 267 444 267 451 290 c 0,23,24
 452 296 452 296 452 301 c 0,25,26
 452 334 452 334 423 339 c 0,27,28
 419 340 419 340 415 340 c 0,29,30
 402 340 402 340 372 324 c 0,31,32
 362 319 362 319 356 319 c 0,33,34
 338 319 338 319 338 338 c 0,35,36
 338 353 338 353 370 368 c 0,37,38
 395 379 395 379 422 379 c 0,39,40
 469 379 469 379 490 339 c 0,41,42
 498 323 498 323 498 305 c 0,43,44
 498 255 498 255 428 207 c 0,45,46
 410 195 410 195 386 181 c 1,47,-1
 477 181 l 2,48,49
 501 181 501 181 501 161 c 0,50,51
 501 143 501 143 478 141 c 1,52,-1
 361 141 l 2,16,17
212 422 m 2,53,54
 189 422 189 422 189 441 c 0,55,56
 189 458 189 458 214 460 c 0,57,58
 220 460 220 460 229 460 c 2,59,-1
 251 460 l 1,60,-1
 251 618 l 1,61,-1
 226 617 l 1,62,-1
 224 617 l 2,63,64
 200 617 200 617 197 636 c 1,65,66
 197 655 197 655 223 657 c 2,67,-1
 270 660 l 1,68,-1
 274 660 l 2,69,70
 295 660 295 660 295 636 c 2,71,-1
 295 460 l 1,72,-1
 314 460 l 2,73,74
 348 460 348 460 352 450 c 0,75,76
 354 446 354 446 354 441 c 0,77,78
 354 424 354 424 331 422 c 1,79,-1
 212 422 l 2,53,54
EndSplineSet
Validated: 1
EndChar

StartChar: threequarters
Encoding: 190 190 127
Width: 550
GlyphClass: 2
Flags: W
LayerCount: 2
Fore
SplineSet
460 152 m 2,0,1
 460 136 460 136 437 135 c 0,2,3
 418 135 418 135 418 152 c 2,4,-1
 418 186 l 1,5,-1
 318 186 l 2,6,7
 298 186 298 186 297 211 c 0,8,9
 297 234 297 234 310 249 c 2,10,-1
 402 364 l 2,11,12
 411 376 411 376 419 376 c 0,13,14
 423 376 423 376 429 374 c 2,15,-1
 449 369 l 2,16,17
 460 367 460 367 460 348 c 2,18,-1
 460 224 l 1,19,-1
 485 224 l 1,20,21
 500 216 500 216 501 206 c 1,22,23
 501 189 501 189 492 187 c 0,24,25
 489 186 489 186 485 186 c 2,26,-1
 460 186 l 1,27,-1
 460 152 l 2,0,1
421 224 m 1,28,-1
 421 335 l 1,29,-1
 336 224 l 1,30,-1
 421 224 l 1,28,-1
480 481 m 2,31,32
 486 484 486 484 491 484 c 0,33,34
 508 484 508 484 509 466 c 0,35,36
 509 455 509 455 497 448 c 2,37,-1
 214 305 l 2,38,39
 208 302 208 302 203 302 c 0,40,41
 190 302 190 302 186 316 c 0,42,43
 185 318 185 318 185 320 c 0,44,45
 185 331 185 331 197 338 c 2,46,-1
 480 481 l 2,31,32
322 545 m 1,47,48
 366 525 366 525 366 485 c 0,49,50
 366 440 366 440 320 420 c 0,51,52
 299 411 299 411 272 411 c 0,53,54
 215 411 215 411 194 435 c 0,55,56
 189 440 189 440 189 445 c 1,57,58
 194 463 194 463 212 466 c 0,59,60
 215 466 215 466 247 456 c 0,61,62
 261 451 261 451 272 451 c 0,63,64
 306 451 306 451 316 477 c 0,65,66
 318 483 318 483 318 489 c 0,67,68
 318 514 318 514 293 522 c 0,69,70
 287 524 287 524 281 524 c 2,71,-1
 277 524 l 2,72,73
 256 524 256 524 256 541 c 0,74,75
 256 555 256 555 274 558 c 0,76,77
 276 559 276 559 278 559 c 0,78,79
 311 562 311 562 311 589 c 0,80,81
 311 611 311 611 288 619 c 0,82,83
 282 621 282 621 276 621 c 0,84,85
 263 621 263 621 236 609 c 1,86,-1
 222 605 l 1,87,88
 209 605 209 605 205 619 c 0,89,90
 204 621 204 621 204 623 c 0,91,92
 204 638 204 638 236 650 c 0,93,94
 257 658 257 658 281 658 c 0,95,96
 330 658 330 658 350 621 c 0,97,98
 357 609 357 609 357 596 c 0,99,100
 357 562 357 562 322 545 c 1,47,48
EndSplineSet
Validated: 1
EndChar

StartChar: questiondown
Encoding: 191 191 128
Width: 552
GlyphClass: 2
Flags: W
LayerCount: 2
Fore
SplineSet
435 539 m 1,0,1
 435 504 435 504 398 493 c 0,2,3
 388 490 388 490 375 490 c 0,4,5
 327 490 327 490 316 525 c 0,6,7
 314 531 314 531 314 539 c 0,8,9
 314 574 314 574 351 586 c 0,10,11
 362 589 362 589 375 589 c 0,12,13
 420 589 420 589 432 555 c 1,14,-1
 435 539 l 1,0,1
399 414 m 2,15,16
 399 382 399 382 372 368 c 2,17,-1
 311 337 l 1,18,19
 281 318 281 318 281 285 c 0,20,21
 281 236 281 236 329 221 c 0,22,23
 344 217 344 217 362 217 c 0,24,25
 404 217 404 217 422 233 c 0,26,27
 424 234 424 234 425 236 c 2,28,-1
 431 264 l 1,29,30
 437 275 437 275 451 275 c 0,31,32
 470 275 470 275 474 253 c 2,33,-1
 475 246 l 1,34,-1
 475 214 l 2,35,36
 475 190 475 190 415 177 c 0,37,38
 387 171 387 171 356 171 c 0,39,40
 273 171 273 171 241 231 c 0,41,42
 228 255 228 255 228 286 c 0,43,44
 228 347 228 347 300 385 c 0,45,46
 321 396 321 396 350 407 c 1,47,-1
 350 433 l 2,48,49
 350 454 350 454 375 457 c 1,50,51
 399 457 399 457 399 434 c 2,52,-1
 399 414 l 2,15,16
EndSplineSet
Validated: 1
EndChar

StartChar: Aring
Encoding: 197 197 134
Width: 555
GlyphClass: 2
Flags: W
LayerCount: 2
Fore
SplineSet
296 880 m 0,0,1
 296 849 296 849 324 839 c 0,2,3
 332 836 332 836 340 836 c 0,4,5
 370 836 370 836 381 863 c 0,6,7
 385 871 385 871 385 880 c 0,8,9
 385 908 385 908 358 921 c 0,10,11
 349 925 349 925 340 925 c 0,12,13
 310 925 310 925 299 897 c 0,14,15
 296 889 296 889 296 880 c 0,0,1
256 881 m 0,16,17
 256 929 256 929 297 953 c 0,18,19
 317 964 317 964 340 964 c 0,20,21
 389 964 389 964 412 922 c 1,22,-1
 421 899 l 1,23,24
 423 890 423 890 423 881 c 0,25,26
 423 831 423 831 381 808 c 0,27,28
 362 797 362 797 340 797 c 0,29,30
 291 797 291 797 267 838 c 0,31,32
 256 858 256 858 256 881 c 0,16,17
285 553 m 1,33,-1
 421 553 l 1,34,-1
 349 728 l 1,35,-1
 285 553 l 1,33,-1
302 728 m 1,36,-1
 254 728 l 1,37,38
 221 734 221 734 218 752 c 1,39,40
 218 772 218 772 239 774 c 0,41,42
 245 775 245 775 264 775 c 2,43,-1
 358 775 l 2,44,45
 381 775 381 775 389 763 c 1,46,-1
 394 753 l 1,47,-1
 523 430 l 1,48,-1
 529 430 l 2,49,50
 556 430 556 430 559 416 c 0,51,52
 560 412 560 412 560 408 c 0,53,54
 560 387 560 387 542 385 c 2,55,-1
 530 384 l 1,56,-1
 440 384 l 2,57,58
 407 384 407 384 403 397 c 0,59,60
 401 401 401 401 401 408 c 0,61,62
 401 427 401 427 423 429 c 0,63,64
 429 430 429 430 438 430 c 2,65,-1
 469 430 l 1,66,-1
 437 509 l 1,67,-1
 269 509 l 1,68,-1
 241 430 l 1,69,-1
 273 430 l 1,70,71
 307 425 307 425 310 408 c 1,72,73
 310 388 310 388 293 385 c 1,74,-1
 272 384 l 1,75,-1
 185 384 l 2,76,77
 156 384 156 384 152 397 c 0,78,79
 151 401 151 401 151 408 c 1,80,81
 161 428 161 428 182 430 c 1,82,-1
 190 430 l 1,83,-1
 302 728 l 1,36,-1
EndSplineSet
Validated: 1
EndChar

StartChar: AE
Encoding: 198 198 135
Width: 534
GlyphClass: 2
Flags: W
LayerCount: 2
Fore
SplineSet
243 536 m 2,0,1
 217 536 217 536 217 560 c 1,2,3
 225 582 225 582 245 584 c 1,4,-1
 497 584 l 2,5,6
 520 584 520 584 520 557 c 2,7,-1
 520 472 l 2,8,9
 520 449 520 449 497 449 c 128,-1,10
 474 449 474 449 474 478 c 2,11,-1
 474 489 l 1,12,-1
 474 536 l 1,13,-1
 366 536 l 1,14,-1
 366 412 l 1,15,-1
 414 412 l 1,16,-1
 414 422 l 1,17,18
 419 461 419 461 435 464 c 1,19,20
 455 464 455 464 455 437 c 2,21,-1
 455 353 l 2,22,23
 455 326 455 326 435 324 c 1,24,25
 417 324 417 324 415 350 c 0,26,27
 414 356 414 356 414 365 c 2,28,-1
 414 376 l 1,29,-1
 366 376 l 1,30,-1
 366 239 l 1,31,-1
 473 239 l 1,32,-1
 473 292 l 1,33,-1
 473 306 l 2,34,35
 473 332 473 332 497 332 c 0,36,37
 520 332 520 332 520 309 c 2,38,-1
 520 217 l 2,39,40
 520 192 520 192 497 192 c 2,41,-1
 294 192 l 2,42,43
 274 192 274 192 274 216 c 0,44,45
 274 235 274 235 290 238 c 0,46,47
 296 239 296 239 308 239 c 2,48,-1
 319 239 l 1,49,-1
 319 323 l 1,50,-1
 247 323 l 1,51,-1
 220 239 l 1,52,-1
 240 239 l 2,53,54
 259 239 259 239 259 216 c 0,55,56
 259 196 259 196 244 193 c 1,57,-1
 226 192 l 1,58,-1
 153 192 l 2,59,60
 131 192 131 192 131 216 c 0,61,62
 131 236 131 236 150 238 c 0,63,64
 155 239 155 239 162 239 c 2,65,-1
 172 239 l 1,66,-1
 274 536 l 1,67,-1
 243 536 l 2,0,1
257 361 m 1,68,-1
 319 361 l 1,69,-1
 319 545 l 1,70,-1
 312 545 l 1,71,-1
 257 361 l 1,68,-1
EndSplineSet
Validated: 1
EndChar

StartChar: Eth
Encoding: 208 208 145
Width: 536
GlyphClass: 2
Flags: W
LayerCount: 2
Fore
SplineSet
255 238 m 1,0,1
 270 236 270 236 297 236 c 0,2,3
 422 236 422 236 446 326 c 0,4,5
 453 352 453 352 453 386 c 0,6,7
 453 499 453 499 372 526 c 0,8,9
 340 536 340 536 294 536 c 0,10,11
 269 536 269 536 255 535 c 1,12,-1
 255 419 l 1,13,-1
 337 419 l 2,14,15
 364 419 364 419 367 406 c 1,16,-1
 368 398 l 1,17,18
 358 378 358 378 337 376 c 1,19,-1
 255 376 l 1,20,-1
 255 238 l 1,0,1
255 191 m 1,21,-1
 203 191 l 1,22,-1
 188 191 l 2,23,24
 164 191 164 191 164 215 c 1,25,26
 174 236 174 236 195 238 c 1,27,-1
 204 238 l 1,28,-1
 204 376 l 1,29,-1
 175 376 l 1,30,31
 148 382 148 382 145 398 c 1,32,33
 151 418 151 418 175 419 c 1,34,-1
 204 419 l 1,35,-1
 204 535 l 1,36,-1
 196 535 l 1,37,38
 166 540 166 540 164 559 c 1,39,40
 164 579 164 579 184 581 c 0,41,42
 190 582 190 582 203 582 c 2,43,-1
 255 582 l 1,44,-1
 328 582 l 2,45,46
 434 582 434 582 481 498 c 0,47,48
 508 451 508 451 508 386 c 0,49,50
 508 296 508 296 453 239 c 0,51,52
 405 190 405 190 302 190 c 1,53,-1
 256 191 l 1,54,-1
 255 191 l 1,21,-1
EndSplineSet
Validated: 1
EndChar

StartChar: multiply
Encoding: 215 215 152
Width: 548
GlyphClass: 2
Flags: W
LayerCount: 2
Fore
SplineSet
347 480 m 1,0,-1
 431 565 l 1,1,2
 442 574 442 574 450 574 c 0,3,4
 468 574 468 574 473 555 c 0,5,6
 474 552 474 552 474 549 c 0,7,8
 474 540 474 540 465 531 c 2,9,-1
 381 446 l 1,10,-1
 468 359 l 1,11,12
 477 348 477 348 477 340 c 0,13,14
 477 322 477 322 459 317 c 1,15,-1
 453 316 l 1,16,17
 443 316 443 316 433 324 c 1,18,-1
 346 411 l 1,19,-1
 262 328 l 2,20,21
 253 319 253 319 243 319 c 0,22,23
 221 319 221 319 220 342 c 0,24,25
 220 354 220 354 228 361 c 2,26,-1
 312 446 l 1,27,-1
 224 534 l 2,28,29
 216 542 216 542 216 553 c 0,30,31
 216 569 216 569 232 576 c 0,32,33
 236 577 236 577 240 577 c 0,34,35
 252 577 252 577 259 568 c 1,36,-1
 347 480 l 1,0,-1
EndSplineSet
Validated: 1
EndChar

StartChar: Oslash
Encoding: 216 216 153
Width: 552
GlyphClass: 2
Flags: W
LayerCount: 2
Fore
SplineSet
468 544 m 1,0,1
 529 485 529 485 529 386 c 0,2,3
 529 274 529 274 456 216 c 0,4,5
 411 180 411 180 350 180 c 0,6,7
 305 180 305 180 264 203 c 1,8,-1
 239 163 l 2,9,10
 234 154 234 154 225 154 c 0,11,12
 208 154 208 154 201 168 c 0,13,14
 200 171 200 171 200 173 c 0,15,16
 200 178 200 178 203 184 c 2,17,-1
 231 230 l 1,18,19
 172 287 172 287 172 386 c 0,20,21
 172 498 172 498 244 556 c 0,22,23
 289 592 289 592 350 592 c 0,24,25
 396 592 396 592 434 570 c 1,26,-1
 457 607 l 2,27,28
 462 616 462 616 472 616 c 0,29,30
 490 616 490 616 495 602 c 0,31,32
 496 599 496 599 496 597 c 0,33,34
 496 590 496 590 493 586 c 2,35,-1
 468 544 l 1,0,1
441 497 m 1,36,-1
 289 245 l 1,37,38
 319 227 319 227 350 227 c 0,39,40
 430 227 430 227 458 309 c 0,41,42
 469 342 469 342 469 386 c 0,43,44
 469 456 469 456 441 497 c 1,36,-1
258 276 m 1,45,-1
 409 528 l 1,46,47
 378 545 378 545 350 545 c 0,48,49
 269 545 269 545 242 462 c 0,50,51
 231 429 231 429 231 386 c 0,52,53
 231 316 231 316 258 276 c 1,45,-1
EndSplineSet
Validated: 1
EndChar

StartChar: Thorn
Encoding: 222 222 159
Width: 532
GlyphClass: 2
Flags: W
LayerCount: 2
Fore
SplineSet
352 239 m 2,0,1
 382 239 382 239 382 216 c 0,2,3
 382 195 382 195 362 193 c 2,4,-1
 349 192 l 1,5,-1
 188 192 l 2,6,7
 165 192 165 192 165 216 c 0,8,9
 165 239 165 239 188 239 c 2,10,-1
 231 239 l 1,11,-1
 231 536 l 1,12,-1
 208 536 l 2,13,14
 173 536 173 536 168 546 c 0,15,16
 165 551 165 551 165 560 c 0,17,18
 165 584 165 584 188 584 c 2,19,-1
 337 584 l 2,20,21
 367 584 367 584 367 560 c 0,22,23
 367 539 367 539 347 537 c 2,24,-1
 334 536 l 1,25,-1
 283 536 l 1,26,-1
 283 500 l 1,27,-1
 334 500 l 2,28,29
 476 500 476 500 476 388 c 128,-1,30
 476 276 476 276 334 276 c 2,31,-1
 283 276 l 1,32,-1
 283 239 l 1,33,-1
 352 239 l 2,0,1
283 453 m 1,34,-1
 283 319 l 1,35,-1
 334 319 l 2,36,37
 416 319 416 319 416 386 c 128,-1,38
 416 453 416 453 334 453 c 2,39,-1
 283 453 l 1,34,-1
EndSplineSet
Validated: 1
EndChar

StartChar: germandbls
Encoding: 223 223 160
Width: 530
GlyphClass: 2
Flags: W
LayerCount: 2
Fore
SplineSet
206 273 m 1,0,-1
 206 523 l 2,1,2
 206 590 206 590 219 611 c 0,3,4
 222 615 222 615 225 619 c 0,5,6
 259 658 259 658 337 658 c 0,7,8
 424 658 424 658 450 600 c 0,9,10
 459 582 459 582 459 559 c 0,11,12
 459 500 459 500 393 482 c 1,13,14
 468 475 468 475 489 404 c 1,15,-1
 495 370 l 2,16,17
 496 363 496 363 496 355 c 0,18,19
 496 246 496 246 409 224 c 0,20,21
 390 219 390 219 367 219 c 0,22,23
 318 219 318 219 311 234 c 0,24,25
 309 238 309 238 309 245 c 0,26,27
 309 263 309 263 330 266 c 1,28,-1
 362 264 l 1,29,-1
 363 264 l 2,30,31
 441 264 441 264 441 358 c 0,32,33
 441 420 441 420 399 444 c 0,34,35
 388 451 388 451 376 452 c 2,36,-1
 326 457 l 1,37,38
 313 461 313 461 313 475 c 0,39,40
 313 494 313 494 342 497 c 0,41,42
 344 497 344 497 353 498 c 0,43,44
 400 504 400 504 406 544 c 0,45,46
 407 548 407 548 407 553 c 0,47,48
 407 596 407 596 363 610 c 0,49,50
 349 615 349 615 332 615 c 0,51,52
 275 615 275 615 262 574 c 0,53,54
 256 554 256 554 256 510 c 2,55,-1
 256 250 l 2,56,57
 256 226 256 226 236 226 c 2,58,-1
 185 226 l 2,59,60
 147 226 147 226 141 238 c 0,61,62
 139 243 139 243 139 250 c 0,63,64
 139 273 139 273 165 273 c 2,65,-1
 206 273 l 1,0,-1
EndSplineSet
Validated: 1
EndChar

StartChar: aring
Encoding: 229 229 166
Width: 600
GlyphClass: 2
Flags: W
LayerCount: 2
Fore
SplineSet
348 528 m 0,0,1
 348 497 348 497 376 487 c 0,2,3
 384 484 384 484 392 484 c 0,4,5
 423 484 423 484 433 512 c 0,6,7
 436 520 436 520 436 528 c 0,8,9
 436 558 436 558 409 570 c 0,10,11
 401 573 401 573 392 573 c 0,12,13
 362 573 362 573 351 545 c 0,14,15
 348 537 348 537 348 528 c 0,0,1
309 528 m 0,16,17
 309 576 309 576 350 600 c 0,18,19
 369 612 369 612 392 612 c 0,20,21
 441 612 441 612 465 571 c 1,22,-1
 474 548 l 1,23,24
 476 538 476 538 476 528 c 0,25,26
 476 480 476 480 435 456 c 0,27,28
 415 445 415 445 392 445 c 0,29,30
 345 445 345 445 321 486 c 0,31,32
 309 505 309 505 309 528 c 0,16,17
470 256 m 1,33,34
 432 268 432 268 401 268 c 0,35,36
 314 268 314 268 295 222 c 1,37,-1
 292 204 l 1,38,39
 292 170 292 170 329 157 c 0,40,41
 342 153 342 153 357 153 c 0,42,43
 415 153 415 153 453 188 c 0,44,45
 470 205 470 205 470 220 c 2,46,-1
 470 256 l 1,33,34
472 152 m 1,47,48
 416 102 416 102 349 102 c 0,49,50
 275 102 275 102 249 156 c 0,51,52
 239 176 239 176 239 201 c 0,53,54
 239 279 239 279 326 302 c 0,55,56
 355 310 355 310 392 310 c 0,57,58
 431 310 431 310 470 300 c 1,59,-1
 470 302 l 2,60,61
 470 375 470 375 396 376 c 0,62,63
 370 376 370 376 324 357 c 1,64,-1
 301 349 l 1,65,-1
 296 349 l 1,66,67
 277 354 277 354 274 376 c 1,68,69
 274 399 274 399 323 414 c 0,70,71
 355 423 355 423 397 423 c 0,72,73
 508 423 508 423 519 331 c 1,74,-1
 521 306 l 1,75,-1
 521 157 l 1,76,-1
 538 157 l 2,77,78
 573 157 573 157 576 141 c 2,79,-1
 577 134 l 1,80,81
 577 110 577 110 551 110 c 2,82,-1
 499 110 l 2,83,84
 479 110 479 110 476 132 c 1,85,-1
 472 152 l 1,47,48
EndSplineSet
Validated: 1
EndChar

StartChar: ae
Encoding: 230 230 167
Width: 548
GlyphClass: 2
Flags: W
LayerCount: 2
Fore
SplineSet
324 244 m 1,0,-1
 305 245 l 1,1,-1
 304 245 l 2,2,3
 214 245 214 245 205 202 c 0,4,5
 204 197 204 197 204 190 c 0,6,7
 204 145 204 145 251 145 c 0,8,9
 292 145 292 145 315 176 c 1,10,11
 324 190 324 190 324 204 c 2,12,-1
 324 244 l 1,0,-1
369 284 m 1,13,-1
 482 284 l 1,14,-1
 482 289 l 2,15,16
 482 371 482 371 429 374 c 1,17,18
 383 374 383 374 372 320 c 0,19,20
 369 307 369 307 369 292 c 2,21,-1
 369 284 l 1,13,-1
502 244 m 2,22,-1
 369 244 l 1,23,24
 368 237 368 237 368 224 c 1,25,26
 375 150 375 150 429 145 c 1,27,28
 456 145 456 145 490 173 c 0,29,30
 508 188 508 188 516 188 c 0,31,32
 532 188 532 188 535 167 c 1,33,34
 535 142 535 142 497 118 c 0,35,36
 465 98 465 98 427 98 c 0,37,38
 380 98 380 98 347 143 c 0,39,40
 345 145 345 145 344 147 c 1,41,42
 290 99 290 99 244 98 c 1,43,44
 188 98 188 98 166 145 c 0,45,46
 157 164 157 164 157 186 c 0,47,48
 157 277 157 277 268 283 c 0,49,50
 278 284 278 284 289 284 c 2,51,-1
 325 284 l 1,52,53
 327 300 327 300 327 306 c 0,54,55
 327 378 327 378 276 378 c 0,56,57
 254 378 254 378 223 357 c 1,58,-1
 205 347 l 1,59,60
 201 346 201 346 198 346 c 0,61,62
 184 346 184 346 181 365 c 1,63,64
 181 385 181 385 216 404 c 0,65,66
 245 420 245 420 279 420 c 0,67,68
 325 420 325 420 352 381 c 1,69,70
 385 420 385 420 430 420 c 0,71,72
 503 420 503 420 525 341 c 0,73,74
 533 313 533 313 533 278 c 0,75,76
 533 249 533 249 519 246 c 0,77,78
 514 244 514 244 502 244 c 2,22,-1
EndSplineSet
Validated: 1
EndChar

StartChar: eth
Encoding: 240 240 177
Width: 552
GlyphClass: 2
Flags: W
LayerCount: 2
Fore
SplineSet
350 264 m 0,0,1
 418 264 418 264 450 318 c 0,2,3
 466 344 466 344 466 377 c 0,4,5
 466 440 466 440 415 472 c 0,6,7
 386 490 386 490 350 490 c 0,8,9
 283 490 283 490 251 436 c 0,10,11
 235 410 235 410 235 377 c 0,12,13
 235 313 235 313 286 281 c 0,14,15
 314 264 314 264 350 264 c 0,0,1
398 525 m 1,16,17
 372 557 372 557 343 583 c 1,18,-1
 282 555 l 2,19,20
 268 549 268 549 262 549 c 0,21,22
 250 549 250 549 249 565 c 0,23,24
 249 574 249 574 268 584 c 1,25,-1
 316 605 l 1,26,-1
 259 641 l 2,27,28
 258 642 258 642 258 644 c 0,29,30
 258 655 258 655 277 658 c 0,31,32
 281 659 281 659 285 659 c 0,33,34
 298 659 298 659 360 625 c 1,35,-1
 414 649 l 2,36,37
 426 655 426 655 433 655 c 0,38,39
 446 655 446 655 447 640 c 0,40,41
 447 628 447 628 427 620 c 2,42,-1
 390 605 l 1,43,44
 523 501 523 501 523 384 c 0,45,46
 523 288 523 288 449 243 c 0,47,48
 407 218 407 218 350 218 c 0,49,50
 254 218 254 218 205 286 c 0,51,52
 177 326 177 326 177 377 c 0,53,54
 177 457 177 457 242 503 c 0,55,56
 285 534 285 534 342 534 c 0,57,58
 370 534 370 534 398 525 c 1,16,17
EndSplineSet
Validated: 1
EndChar

StartChar: divide
Encoding: 247 247 184
Width: 550
GlyphClass: 2
Flags: W
LayerCount: 2
Fore
SplineSet
350 567 m 0,0,1
 374 567 374 567 383 543 c 1,2,-1
 386 529 l 1,3,4
 386 506 386 506 365 496 c 0,5,6
 358 492 358 492 350 492 c 0,7,8
 324 492 324 492 315 517 c 0,9,10
 313 523 313 523 313 529 c 0,11,12
 313 555 313 555 336 564 c 0,13,14
 343 567 343 567 350 567 c 0,0,1
202 450 m 2,15,-1
 497 450 l 2,16,17
 518 450 518 450 518 426 c 128,-1,18
 518 402 518 402 497 402 c 2,19,-1
 202 402 l 2,20,21
 181 402 181 402 181 426 c 128,-1,22
 181 450 181 450 202 450 c 2,15,-1
350 359 m 0,23,24
 375 359 375 359 384 334 c 0,25,26
 386 328 386 328 386 322 c 0,27,28
 386 296 386 296 362 287 c 0,29,30
 356 285 356 285 350 285 c 0,31,32
 324 285 324 285 315 310 c 0,33,34
 313 316 313 316 313 322 c 0,35,36
 313 348 313 348 338 357 c 0,37,38
 344 359 344 359 350 359 c 0,23,24
EndSplineSet
Validated: 1
EndChar

StartChar: oslash
Encoding: 248 248 185
Width: 555
GlyphClass: 2
Flags: W
LayerCount: 2
Fore
SplineSet
484 366 m 1,0,1
 525 323 525 323 525 259 c 0,2,3
 525 174 525 174 456 129 c 1,4,-1
 426 113 l 1,5,6
 392 100 392 100 352 100 c 0,7,8
 295 100 295 100 246 130 c 1,9,-1
 214 98 l 1,10,11
 206 92 206 92 203 92 c 0,12,13
 190 92 190 92 184 106 c 0,14,15
 183 108 183 108 183 111 c 0,16,17
 183 118 183 118 187 122 c 2,18,-1
 220 154 l 1,19,20
 180 204 180 204 180 259 c 0,21,22
 180 345 180 345 249 390 c 0,23,24
 293 419 293 419 353 419 c 0,25,26
 406 419 406 419 456 391 c 1,27,-1
 487 422 l 2,28,29
 493 428 493 428 499 428 c 0,30,31
 511 428 511 428 517 415 c 0,32,33
 518 412 518 412 518 409 c 0,34,35
 518 401 518 401 514 397 c 2,36,-1
 484 366 l 1,0,1
258 193 m 1,37,-1
 421 355 l 1,38,39
 387 378 387 378 351 378 c 0,40,41
 279 378 279 378 249 321 c 0,42,43
 235 295 235 295 235 263 c 0,44,45
 235 225 235 225 258 193 c 1,37,-1
448 330 m 1,46,-1
 283 166 l 1,47,48
 321 143 321 143 358 143 c 0,49,50
 426 143 426 143 458 199 c 0,51,52
 473 226 473 226 473 259 c 0,53,54
 473 298 473 298 448 330 c 1,46,-1
EndSplineSet
Validated: 1
EndChar

StartChar: thorn
Encoding: 254 254 191
Width: 548
GlyphClass: 2
Flags: W
LayerCount: 2
Fore
SplineSet
364 148 m 0,0,1
 430 148 430 148 457 200 c 0,2,3
 469 223 469 223 469 251 c 0,4,5
 469 314 469 314 417 342 c 1,6,-1
 392 352 l 1,7,8
 378 355 378 355 364 355 c 0,9,10
 301 355 301 355 273 304 c 0,11,12
 260 280 260 280 260 251 c 0,13,14
 260 190 260 190 309 162 c 0,15,16
 334 148 334 148 364 148 c 0,0,1
262 15 m 1,17,-1
 341 15 l 2,18,19
 366 15 366 15 366 -8 c 1,20,21
 358 -30 358 -30 339 -32 c 1,22,-1
 193 -32 l 2,23,24
 166 -32 166 -32 166 -8 c 0,25,26
 166 12 166 12 189 14 c 0,27,28
 196 15 196 15 206 15 c 2,29,-1
 212 15 l 1,30,-1
 212 484 l 1,31,-1
 206 484 l 1,32,33
 169 489 169 489 166 508 c 1,34,35
 166 532 166 532 193 532 c 2,36,-1
 243 532 l 2,37,38
 262 532 262 532 262 518 c 2,39,-1
 262 359 l 1,40,41
 307 405 307 405 370 405 c 0,42,43
 452 405 452 405 497 342 c 0,44,45
 526 302 526 302 526 248 c 0,46,47
 526 166 526 166 462 124 c 0,48,49
 425 99 425 99 376 99 c 0,50,51
 304 99 304 99 262 147 c 1,52,-1
 262 15 l 1,17,-1
EndSplineSet
Validated: 1
EndChar

StartChar: dotlessi
Encoding: 305 305 193
Width: 567
GlyphClass: 2
Flags: W
LayerCount: 2
Fore
SplineSet
394 151 m 1,0,-1
 500 151 l 2,1,2
 525 151 525 151 525 128 c 0,3,4
 525 108 525 108 509 106 c 2,5,-1
 498 105 l 1,6,-1
 242 105 l 2,7,8
 216 105 216 105 216 128 c 128,-1,9
 216 151 216 151 244 151 c 2,10,-1
 344 151 l 1,11,-1
 344 363 l 1,12,-1
 280 363 l 2,13,14
 252 363 252 363 252 386 c 128,-1,15
 252 409 252 409 279 409 c 2,16,-1
 375 409 l 2,17,18
 394 409 394 409 394 396 c 2,19,-1
 394 151 l 1,0,-1
EndSplineSet
Validated: 1
EndChar

StartChar: Lslash
Encoding: 321 321 194
Width: 540
GlyphClass: 2
Flags: W
LayerCount: 2
Fore
SplineSet
462 326 m 2,0,1
 462 359 462 359 475 364 c 0,2,3
 480 365 480 365 486 365 c 0,4,5
 506 365 506 365 509 345 c 0,6,7
 510 339 510 339 510 326 c 2,8,-1
 510 217 l 2,9,10
 510 192 510 192 486 192 c 2,11,-1
 193 192 l 1,12,-1
 178 192 l 2,13,14
 154 192 154 192 154 216 c 0,15,16
 154 235 154 235 172 238 c 0,17,18
 179 239 179 239 193 239 c 2,19,-1
 234 239 l 1,20,-1
 234 347 l 1,21,-1
 202 324 l 2,22,23
 185 313 185 313 180 313 c 0,24,25
 165 313 165 313 162 328 c 0,26,27
 161 331 161 331 161 333 c 0,28,29
 161 342 161 342 179 356 c 1,30,-1
 234 395 l 1,31,-1
 234 536 l 1,32,-1
 193 536 l 2,33,34
 160 536 160 536 155 549 c 0,35,36
 154 554 154 554 154 560 c 0,37,38
 154 580 154 580 174 583 c 0,39,40
 181 584 181 584 193 584 c 2,41,-1
 342 584 l 1,42,-1
 357 584 l 2,43,44
 382 584 382 584 382 560 c 0,45,46
 382 540 382 540 363 537 c 1,47,-1
 342 536 l 1,48,-1
 286 536 l 1,49,-1
 286 420 l 1,50,-1
 353 465 l 2,51,52
 369 476 369 476 373 476 c 0,53,54
 386 476 386 476 391 461 c 0,55,56
 392 458 392 458 392 455 c 0,57,58
 392 444 392 444 375 434 c 1,59,-1
 286 373 l 1,60,-1
 286 239 l 1,61,-1
 462 239 l 1,62,-1
 462 326 l 2,0,1
EndSplineSet
Validated: 1
EndChar

StartChar: lslash
Encoding: 322 322 195
Width: 567
GlyphClass: 2
Flags: W
LayerCount: 2
Fore
SplineSet
342 435 m 1,0,-1
 297 404 l 2,1,2
 284 394 284 394 276 394 c 0,3,4
 262 394 262 394 259 411 c 1,5,6
 259 421 259 421 277 433 c 2,7,-1
 342 478 l 1,8,-1
 342 618 l 1,9,-1
 286 618 l 1,10,-1
 270 619 l 1,11,-1
 269 619 l 2,12,13
 238 619 238 619 238 642 c 128,-1,14
 238 665 238 665 265 665 c 2,15,-1
 373 665 l 2,16,17
 392 665 392 665 392 652 c 2,18,-1
 392 499 l 1,19,-1
 441 532 l 1,20,21
 455 543 455 543 462 543 c 0,22,23
 476 543 476 543 479 526 c 1,24,25
 479 516 479 516 461 504 c 2,26,-1
 392 456 l 1,27,-1
 392 280 l 1,28,-1
 495 280 l 2,29,30
 520 280 520 280 520 257 c 0,31,32
 520 237 520 237 504 235 c 2,33,-1
 493 234 l 1,34,-1
 250 234 l 2,35,36
 223 234 223 234 223 257 c 128,-1,37
 223 280 223 280 251 280 c 2,38,-1
 342 280 l 1,39,-1
 342 435 l 1,0,-1
EndSplineSet
Validated: 1
EndChar

StartChar: OE
Encoding: 338 338 196
Width: 559
GlyphClass: 2
Flags: W
LayerCount: 2
Fore
SplineSet
366 192 m 2,0,1
 289 192 289 192 254 215 c 0,2,3
 176 265 176 265 176 388 c 0,4,5
 176 514 176 514 253 563 c 0,6,7
 287 584 287 584 367 584 c 2,8,-1
 520 584 l 2,9,10
 543 584 543 584 543 557 c 2,11,-1
 543 472 l 2,12,13
 543 449 543 449 520 449 c 256,14,15
 497 449 497 449 496 478 c 1,16,-1
 496 489 l 1,17,-1
 496 540 l 1,18,-1
 391 540 l 1,19,-1
 391 412 l 1,20,-1
 437 412 l 1,21,-1
 437 434 l 2,22,23
 437 463 437 463 458 464 c 0,24,25
 478 464 478 464 478 437 c 2,26,-1
 478 353 l 2,27,28
 478 326 478 326 458 324 c 1,29,30
 440 324 440 324 438 347 c 0,31,32
 437 354 437 354 437 365 c 2,33,-1
 437 376 l 1,34,-1
 391 376 l 1,35,-1
 391 236 l 1,36,-1
 496 236 l 1,37,-1
 496 292 l 1,38,-1
 496 306 l 2,39,40
 496 332 496 332 519 332 c 128,-1,41
 542 332 542 332 542 309 c 2,42,-1
 542 217 l 2,43,44
 542 192 542 192 519 192 c 2,45,-1
 366 192 l 2,0,1
345 540 m 1,46,-1
 333 540 l 2,47,48
 230 540 230 540 230 388 c 128,-1,49
 230 236 230 236 333 236 c 2,50,-1
 345 236 l 1,51,-1
 345 540 l 1,46,-1
EndSplineSet
Validated: 1
EndChar

StartChar: oe
Encoding: 339 339 197
Width: 561
GlyphClass: 2
Flags: W
LayerCount: 2
Fore
SplineSet
383 284 m 1,0,-1
 493 284 l 1,1,-1
 493 290 l 2,2,3
 493 367 493 367 450 374 c 0,4,5
 447 375 447 375 443 375 c 0,6,7
 383 375 383 375 383 287 c 2,8,-1
 383 284 l 1,0,-1
284 145 m 1,9,10
 323 145 323 145 336 206 c 0,11,12
 340 226 340 226 340 252 c 0,13,14
 340 374 340 374 284 374 c 0,15,16
 240 374 240 374 231 295 c 0,17,18
 229 278 229 278 229 259 c 1,19,20
 235 152 235 152 284 145 c 1,9,10
383 245 m 1,21,-1
 382 231 l 1,22,-1
 382 230 l 1,23,24
 389 150 389 150 442 145 c 1,25,26
 467 145 467 145 501 174 c 0,27,28
 518 188 518 188 527 188 c 0,29,30
 545 188 545 188 546 168 c 1,31,32
 546 143 546 143 507 119 c 0,33,34
 475 99 475 99 438 99 c 0,35,36
 386 99 386 99 360 143 c 1,37,38
 328 99 328 99 281 99 c 0,39,40
 220 99 220 99 193 170 c 0,41,42
 179 207 179 207 179 259 c 0,43,44
 179 373 179 373 241 408 c 0,45,46
 261 420 261 420 286 420 c 0,47,48
 329 420 329 420 362 378 c 1,49,50
 397 422 397 422 443 422 c 0,51,52
 510 422 510 422 534 349 c 0,53,54
 544 319 544 319 544 279 c 0,55,56
 544 251 544 251 531 247 c 0,57,58
 526 245 526 245 512 245 c 2,59,-1
 383 245 l 1,21,-1
EndSplineSet
Validated: 1
EndChar

StartChar: florin
Encoding: 402 402 203
Width: 522
GlyphClass: 2
Flags: W
LayerCount: 2
Fore
SplineSet
311 150 m 2,0,1
 300 59 300 59 231 43 c 0,2,3
 213 39 213 39 190 39 c 0,4,5
 128 39 128 39 128 68 c 0,6,7
 128 86 128 86 148 91 c 1,8,-1
 203 83 l 1,9,-1
 204 83 l 2,10,11
 245 83 245 83 257 125 c 0,12,13
 262 141 262 141 265 169 c 2,14,-1
 288 365 l 1,15,-1
 236 365 l 2,16,17
 217 365 217 365 217 381 c 0,18,19
 217 402 217 402 246 402 c 2,20,-1
 292 402 l 1,21,-1
 298 452 l 1,22,23
 310 540 310 540 376 556 c 0,24,25
 394 561 394 561 418 561 c 0,26,27
 482 561 482 561 482 532 c 0,28,29
 482 516 482 516 467 512 c 0,30,31
 465 511 465 511 463 511 c 2,32,-1
 423 520 l 2,33,34
 418 521 418 521 413 521 c 0,35,36
 366 521 366 521 353 482 c 0,37,38
 349 468 349 468 346 445 c 2,39,-1
 340 402 l 1,40,-1
 388 402 l 2,41,42
 414 402 414 402 416 389 c 2,43,-1
 417 383 l 1,44,45
 417 365 417 365 386 365 c 2,46,-1
 336 365 l 1,47,-1
 311 150 l 2,0,1
EndSplineSet
Validated: 1
EndChar

StartChar: circumflex
Encoding: 710 710 204
Width: 1021
GlyphClass: 2
Flags: W
LayerCount: 2
Fore
SplineSet
616 1200 m 1,0,-1
 426 1098 l 2,1,2
 422 1096 422 1096 414 1096 c 0,3,4
 396 1096 396 1096 390 1112 c 0,5,6
 389 1116 389 1116 389 1120 c 0,7,8
 389 1132 389 1132 397 1138 c 2,9,-1
 580 1281 l 2,10,11
 596 1294 596 1294 616 1294 c 0,12,13
 637 1294 637 1294 653 1281 c 2,14,-1
 835 1138 l 2,15,16
 844 1132 844 1132 844 1120 c 0,17,18
 844 1101 844 1101 825 1097 c 0,19,20
 822 1096 822 1096 819 1096 c 0,21,22
 811 1096 811 1096 807 1098 c 2,23,-1
 616 1200 l 1,0,-1
EndSplineSet
Validated: 1
EndChar

StartChar: caron
Encoding: 711 711 205
Width: 1021
GlyphClass: 2
Flags: W
LayerCount: 2
Fore
SplineSet
616 1192 m 1,0,-1
 806 1294 l 2,1,2
 810 1296 810 1296 818 1296 c 0,3,4
 838 1296 838 1296 843 1278 c 1,5,-1
 844 1272 l 1,6,7
 844 1262 844 1262 835 1256 c 2,8,-1
 653 1111 l 2,9,10
 637 1098 637 1098 616 1098 c 0,11,12
 598 1098 598 1098 580 1111 c 2,13,-1
 397 1256 l 2,14,15
 389 1262 389 1262 389 1272 c 0,16,17
 389 1291 389 1291 408 1295 c 0,18,19
 411 1296 411 1296 414 1296 c 0,20,21
 422 1296 422 1296 426 1294 c 2,22,-1
 616 1192 l 1,0,-1
EndSplineSet
Validated: 1
EndChar

StartChar: breve
Encoding: 728 728 206
Width: 1021
GlyphClass: 2
Flags: W
LayerCount: 2
Fore
SplineSet
616 1129 m 0,0,1
 475 1129 475 1129 402 1201 c 0,2,3
 364 1239 364 1239 364 1281 c 0,4,5
 364 1308 364 1308 383 1308 c 256,6,7
 402 1308 402 1308 421 1282 c 1,8,-1
 442 1256 l 2,9,10
 447 1251 447 1251 453 1247 c 0,11,12
 501 1213 501 1213 616 1213 c 128,-1,13
 731 1213 731 1213 779 1247 c 0,14,15
 790 1255 790 1255 814 1286 c 0,16,17
 832 1308 832 1308 850 1308 c 0,18,19
 869 1308 869 1308 869 1281 c 0,20,21
 869 1224 869 1224 805 1180 c 0,22,23
 732 1129 732 1129 616 1129 c 0,0,1
EndSplineSet
Validated: 1
EndChar

StartChar: dotaccent
Encoding: 729 729 207
Width: 1021
GlyphClass: 2
Flags: W
LayerCount: 2
Fore
SplineSet
533 1206 m 0,0,1
 533 1250 533 1250 572 1276 c 0,2,3
 593 1290 593 1290 616 1290 c 0,4,5
 663 1290 663 1290 688 1250 c 1,6,-1
 697 1227 l 2,7,8
 700 1217 700 1217 700 1206 c 0,9,10
 700 1154 700 1154 656 1132 c 0,11,12
 638 1122 638 1122 616 1122 c 0,13,14
 568 1122 568 1122 544 1163 c 0,15,16
 533 1183 533 1183 533 1206 c 0,0,1
EndSplineSet
Validated: 1
EndChar

StartChar: ring
Encoding: 730 730 208
Width: 1021
GlyphClass: 2
Flags: W
LayerCount: 2
Fore
SplineSet
451 1278 m 0,0,1
 451 1359 451 1359 514 1409 c 0,2,3
 559 1444 559 1444 617 1444 c 0,4,5
 699 1444 699 1444 749 1380 c 0,6,7
 784 1336 784 1336 784 1278 c 0,8,9
 784 1195 784 1195 719 1145 c 0,10,11
 675 1110 675 1110 617 1110 c 0,12,13
 534 1110 534 1110 485 1175 c 0,14,15
 451 1220 451 1220 451 1278 c 0,0,1
528 1276 m 0,16,17
 528 1225 528 1225 571 1199 c 0,18,19
 592 1187 592 1187 617 1187 c 0,20,21
 666 1187 666 1187 693 1229 c 0,22,23
 706 1250 706 1250 706 1276 c 0,24,25
 706 1325 706 1325 663 1352 c 0,26,27
 642 1365 642 1365 617 1365 c 0,28,29
 566 1365 566 1365 540 1321 c 0,30,31
 528 1300 528 1300 528 1276 c 0,16,17
EndSplineSet
Validated: 1
EndChar

StartChar: ogonek
Encoding: 731 731 209
Width: 1050
GlyphClass: 2
Flags: W
LayerCount: 2
Fore
SplineSet
785 -52 m 1,0,1
 690 -130 690 -130 674 -193 c 0,2,3
 670 -209 670 -209 670 -227 c 0,4,5
 670 -292 670 -292 721 -299 c 0,6,7
 726 -300 726 -300 732 -300 c 0,8,9
 762 -300 762 -300 794 -268 c 0,10,11
 805 -258 805 -258 809 -258 c 0,12,13
 824 -258 824 -258 824 -270 c 0,14,15
 824 -292 824 -292 789 -326 c 1,16,-1
 764 -347 l 1,17,18
 723 -374 723 -374 677 -374 c 0,19,20
 607 -374 607 -374 582 -319 c 0,21,22
 573 -299 573 -299 573 -275 c 0,23,24
 573 -162 573 -162 750 -52 c 1,25,-1
 785 -52 l 1,0,1
EndSplineSet
Validated: 1
EndChar

StartChar: tilde
Encoding: 732 732 210
Width: 1021
GlyphClass: 2
Flags: W
LayerCount: 2
Fore
SplineSet
682 1232 m 1,0,1
 728 1222 728 1222 738 1222 c 0,2,3
 768 1222 768 1222 797 1249 c 0,4,5
 817 1268 817 1268 830 1268 c 0,6,7
 854 1268 854 1268 854 1243 c 0,8,9
 854 1215 854 1215 816 1182 c 0,10,11
 768 1141 768 1141 704 1141 c 0,12,13
 670 1141 670 1141 624 1152 c 1,14,-1
 549 1172 l 1,15,16
 520 1181 520 1181 493 1181 c 0,17,18
 463 1181 463 1181 434 1154 c 1,19,-1
 415 1140 l 2,20,21
 408 1136 408 1136 401 1136 c 0,22,23
 377 1136 377 1136 377 1160 c 0,24,25
 377 1190 377 1190 417 1223 c 0,26,27
 464 1262 464 1262 528 1262 c 0,28,29
 565 1262 565 1262 607 1251 c 2,30,-1
 682 1232 l 1,0,1
EndSplineSet
Validated: 1
EndChar

StartChar: hungarumlaut
Encoding: 733 733 211
Width: 1056
GlyphClass: 2
Flags: W
LayerCount: 2
Fore
SplineSet
473 1118 m 1,0,-1
 661 1283 l 2,1,2
 679 1298 679 1298 687 1298 c 0,3,4
 701 1298 701 1298 710 1287 c 2,5,-1
 738 1250 l 2,6,7
 745 1241 745 1241 745 1233 c 0,8,9
 745 1218 745 1218 729 1210 c 2,10,-1
 499 1088 l 1,11,-1
 473 1118 l 1,0,-1
695 1118 m 1,12,-1
 883 1283 l 2,13,14
 901 1298 901 1298 908 1298 c 0,15,16
 923 1298 923 1298 931 1287 c 2,17,-1
 961 1250 l 2,18,19
 967 1242 967 1242 967 1233 c 0,20,21
 967 1218 967 1218 950 1210 c 2,22,-1
 721 1088 l 1,23,-1
 695 1118 l 1,12,-1
EndSplineSet
Validated: 1
EndChar

StartChar: endash
Encoding: 8211 8211 212
Width: 552
GlyphClass: 2
Flags: W
LayerCount: 2
Fore
SplineSet
554 284 m 2,0,1
 570 284 570 284 570 271 c 2,2,-1
 570 245 l 2,3,4
 570 233 570 233 554 230 c 1,5,-1
 147 230 l 2,6,7
 133 230 133 230 133 245 c 2,8,-1
 133 271 l 2,9,10
 133 284 133 284 147 284 c 2,11,-1
 554 284 l 2,0,1
EndSplineSet
Validated: 1
EndChar

StartChar: emdash
Encoding: 8212 8212 213
Width: 552
GlyphClass: 2
Flags: W
LayerCount: 2
Fore
SplineSet
554 284 m 2,0,1
 570 284 570 284 570 271 c 2,2,-1
 570 245 l 2,3,4
 570 233 570 233 554 230 c 1,5,-1
 147 230 l 2,6,7
 133 230 133 230 133 245 c 2,8,-1
 133 271 l 2,9,10
 133 283 133 283 147 284 c 1,11,-1
 554 284 l 2,0,1
EndSplineSet
Validated: 1
EndChar

StartChar: quoteleft
Encoding: 8216 8216 214
Width: 552
GlyphClass: 2
Flags: W
LayerCount: 2
Fore
SplineSet
375 674 m 1,0,1
 366 660 366 660 358 659 c 1,2,-1
 298 659 l 2,3,4
 289 659 289 659 289 665 c 1,5,-1
 291 673 l 1,6,-1
 366 827 l 2,7,8
 370 836 370 836 378 836 c 1,9,-1
 382 835 l 1,10,-1
 383 835 l 1,11,-1
 402 827 l 2,12,13
 411 824 411 824 411 817 c 1,14,-1
 410 811 l 1,15,-1
 410 810 l 1,16,-1
 375 674 l 1,0,1
EndSplineSet
Validated: 1
EndChar

StartChar: quoteright
Encoding: 8217 8217 215
Width: 559
GlyphClass: 2
Flags: W
LayerCount: 2
Fore
SplineSet
334 787 m 1,0,1
 343 801 343 801 351 802 c 1,2,-1
 410 802 l 2,3,4
 419 802 419 802 419 796 c 0,5,6
 419 792 419 792 417 788 c 2,7,-1
 343 634 l 2,8,9
 339 626 339 626 331 626 c 2,10,-1
 325 626 l 1,11,-1
 306 634 l 2,12,13
 298 637 298 637 298 643 c 0,14,15
 298 648 298 648 299 651 c 2,16,-1
 334 787 l 1,0,1
EndSplineSet
Validated: 1
EndChar

StartChar: quotesinglbase
Encoding: 8218 8218 216
Width: 536
GlyphClass: 2
Flags: W
LayerCount: 2
Fore
SplineSet
303 -163 m 2,0,1
 306 -149 306 -149 320 -148 c 1,2,-1
 380 -148 l 2,3,4
 389 -148 389 -148 389 -154 c 0,5,6
 389 -156 389 -156 386 -162 c 2,7,-1
 312 -316 l 2,8,9
 308 -325 308 -325 300 -325 c 0,10,11
 297 -325 297 -325 295 -324 c 2,12,-1
 276 -317 l 2,13,14
 267 -314 267 -314 267 -306 c 0,15,16
 267 -302 267 -302 268 -300 c 2,17,-1
 303 -163 l 2,0,1
EndSplineSet
Validated: 1
EndChar

StartChar: quotedblleft
Encoding: 8220 8220 217
Width: 538
GlyphClass: 2
Flags: W
LayerCount: 2
Fore
SplineSet
289 684 m 1,0,1
 280 671 280 671 272 670 c 1,2,-1
 215 670 l 2,3,4
 206 670 206 670 206 675 c 1,5,-1
 208 683 l 1,6,-1
 280 832 l 1,7,8
 287 842 287 842 292 842 c 0,9,10
 293 842 293 842 297 840 c 2,11,-1
 316 833 l 2,12,13
 324 830 324 830 324 823 c 0,14,15
 324 819 324 819 323 817 c 2,16,-1
 289 684 l 1,0,1
419 684 m 1,17,18
 410 671 410 671 401 670 c 1,19,-1
 344 670 l 2,20,21
 336 670 336 670 336 675 c 0,22,23
 336 679 336 679 338 683 c 2,24,-1
 410 832 l 1,25,26
 417 842 417 842 421 842 c 0,27,28
 422 842 422 842 426 840 c 2,29,-1
 445 833 l 2,30,31
 453 830 453 830 453 823 c 2,32,-1
 453 817 l 1,33,-1
 419 684 l 1,17,18
EndSplineSet
Validated: 1
EndChar

StartChar: quotedblright
Encoding: 8221 8221 218
Width: 559
GlyphClass: 2
Flags: W
LayerCount: 2
Fore
SplineSet
400 793 m 2,0,1
 404 806 404 806 417 807 c 1,2,-1
 475 807 l 2,3,4
 483 807 483 807 483 801 c 1,5,-1
 481 793 l 1,6,-1
 408 644 l 1,7,8
 405 635 405 635 398 635 c 1,9,-1
 393 636 l 1,10,-1
 392 636 l 1,11,-1
 374 643 l 2,12,13
 365 647 365 647 365 653 c 0,14,15
 365 657 365 657 366 659 c 2,16,-1
 400 793 l 2,0,1
271 793 m 1,17,18
 278 806 278 806 287 807 c 1,19,-1
 345 807 l 2,20,21
 354 807 354 807 354 801 c 1,22,-1
 352 793 l 1,23,-1
 279 644 l 1,24,25
 276 635 276 635 268 635 c 1,26,-1
 263 636 l 1,27,-1
 262 636 l 1,28,-1
 244 643 l 2,29,30
 235 647 235 647 235 653 c 0,31,32
 235 655 235 655 237 659 c 2,33,-1
 271 793 l 1,17,18
EndSplineSet
Validated: 1
EndChar

StartChar: quotedblbase
Encoding: 8222 8222 219
Width: 548
GlyphClass: 2
Flags: W
LayerCount: 2
Fore
SplineSet
385 -158 m 1,0,1
 393 -145 393 -145 402 -144 c 1,2,-1
 459 -144 l 2,3,4
 468 -144 468 -144 468 -149 c 0,5,6
 468 -150 468 -150 466 -156 c 2,7,-1
 393 -306 l 1,8,9
 390 -315 390 -315 382 -315 c 0,10,11
 379 -315 379 -315 377 -314 c 2,12,-1
 358 -307 l 2,13,14
 349 -303 349 -303 349 -297 c 0,15,16
 349 -294 349 -294 351 -290 c 2,17,-1
 385 -158 l 1,0,1
255 -158 m 1,18,19
 264 -145 264 -145 272 -144 c 1,20,-1
 330 -144 l 2,21,22
 338 -144 338 -144 338 -149 c 0,23,24
 338 -150 338 -150 336 -156 c 2,25,-1
 264 -306 l 2,26,27
 260 -315 260 -315 253 -315 c 0,28,29
 249 -315 249 -315 247 -314 c 2,30,-1
 228 -307 l 2,31,32
 220 -304 220 -304 220 -297 c 0,33,34
 220 -292 220 -292 221 -290 c 2,35,-1
 255 -158 l 1,18,19
EndSplineSet
Validated: 1
EndChar

StartChar: dagger
Encoding: 8224 8224 220
Width: 552
GlyphClass: 2
Flags: W
LayerCount: 2
Fore
SplineSet
452 497 m 2,0,1
 466 497 466 497 471 482 c 0,2,3
 472 479 472 479 472 476 c 0,4,5
 472 459 472 459 456 456 c 0,6,7
 454 455 454 455 452 455 c 2,8,-1
 373 455 l 1,9,-1
 373 209 l 2,10,11
 373 185 373 185 350 184 c 0,12,13
 328 184 328 184 328 209 c 2,14,-1
 328 455 l 1,15,-1
 249 455 l 2,16,17
 233 455 233 455 230 471 c 0,18,19
 229 473 229 473 229 476 c 0,20,21
 229 491 229 491 243 496 c 0,22,23
 246 497 246 497 249 497 c 2,24,-1
 328 497 l 1,25,-1
 328 570 l 2,26,27
 328 596 328 596 350 596 c 1,28,29
 370 591 370 591 373 570 c 1,30,-1
 373 497 l 1,31,-1
 452 497 l 2,0,1
EndSplineSet
Validated: 1
EndChar

StartChar: daggerdbl
Encoding: 8225 8225 221
Width: 552
GlyphClass: 2
Flags: W
LayerCount: 2
Fore
SplineSet
452 495 m 2,0,1
 467 495 467 495 471 480 c 0,2,3
 472 477 472 477 472 475 c 0,4,5
 472 459 472 459 456 456 c 0,6,7
 454 455 454 455 452 455 c 2,8,-1
 373 455 l 1,9,-1
 373 326 l 1,10,-1
 452 326 l 2,11,12
 467 326 467 326 471 312 c 0,13,14
 472 309 472 309 472 307 c 0,15,16
 472 290 472 290 456 287 c 0,17,18
 454 286 454 286 452 286 c 2,19,-1
 373 286 l 1,20,-1
 373 209 l 2,21,22
 373 184 373 184 350 183 c 0,23,24
 332 183 332 183 328 202 c 0,25,26
 327 206 327 206 327 209 c 2,27,-1
 327 286 l 1,28,-1
 249 286 l 2,29,30
 233 286 233 286 230 302 c 0,31,32
 229 304 229 304 229 307 c 0,33,34
 229 323 229 323 249 326 c 1,35,-1
 327 326 l 1,36,-1
 327 455 l 1,37,-1
 249 455 l 2,38,39
 232 455 232 455 229 475 c 1,40,41
 229 490 229 490 245 494 c 0,42,43
 247 495 247 495 249 495 c 2,44,-1
 327 495 l 1,45,-1
 327 570 l 1,46,47
 332 591 332 591 350 595 c 1,48,49
 370 590 370 590 373 570 c 1,50,-1
 373 495 l 1,51,-1
 452 495 l 2,0,1
EndSplineSet
Validated: 1
EndChar

StartChar: bullet
Encoding: 8226 8226 222
Width: 552
GlyphClass: 2
Flags: W
LayerCount: 2
Fore
SplineSet
297 480 m 0,0,1
 297 515 297 515 328 528 c 0,2,3
 339 533 339 533 350 533 c 0,4,5
 383 533 383 533 398 503 c 0,6,7
 403 492 403 492 403 480 c 0,8,9
 403 447 403 447 373 432 c 0,10,11
 362 427 362 427 350 427 c 0,12,13
 316 427 316 427 302 458 c 0,14,15
 297 468 297 468 297 480 c 0,0,1
EndSplineSet
Validated: 1
EndChar

StartChar: ellipsis
Encoding: 8230 8230 223
Width: 550
GlyphClass: 2
Flags: W
LayerCount: 2
Fore
SplineSet
303 -96 m 0,0,1
 303 -64 303 -64 332 -52 c 0,2,3
 340 -49 340 -49 349 -49 c 0,4,5
 380 -49 380 -49 391 -77 c 0,6,7
 395 -86 395 -86 395 -96 c 0,8,9
 395 -125 395 -125 369 -137 c 0,10,11
 360 -142 360 -142 349 -142 c 0,12,13
 318 -142 318 -142 306 -113 c 0,14,15
 303 -105 303 -105 303 -96 c 0,0,1
439 -96 m 0,16,17
 439 -64 439 -64 468 -52 c 0,18,19
 476 -49 476 -49 485 -49 c 0,20,21
 515 -49 515 -49 527 -77 c 0,22,23
 531 -86 531 -86 531 -96 c 0,24,25
 531 -125 531 -125 505 -137 c 0,26,27
 496 -142 496 -142 485 -142 c 0,28,29
 454 -142 454 -142 442 -113 c 0,30,31
 439 -105 439 -105 439 -96 c 0,16,17
167 -96 m 0,32,33
 167 -64 167 -64 196 -52 c 0,34,35
 204 -49 204 -49 213 -49 c 0,36,37
 244 -49 244 -49 256 -77 c 0,38,39
 260 -86 260 -86 260 -96 c 0,40,41
 260 -126 260 -126 232 -138 c 0,42,43
 223 -142 223 -142 213 -142 c 0,44,45
 182 -142 182 -142 170 -113 c 0,46,47
 167 -105 167 -105 167 -96 c 0,32,33
EndSplineSet
Validated: 1
EndChar

StartChar: perthousand
Encoding: 8240 8240 224
Width: 563
GlyphClass: 2
Flags: W
LayerCount: 2
Fore
SplineSet
129 546 m 0,0,1
 129 598 129 598 175 623 c 0,2,3
 198 635 198 635 225 635 c 0,4,5
 285 635 285 635 310 589 c 1,6,-1
 319 566 l 1,7,8
 321 556 321 556 321 546 c 0,9,10
 321 492 321 492 274 467 c 0,11,12
 252 456 252 456 225 456 c 0,13,14
 167 456 167 456 141 501 c 0,15,16
 129 522 129 522 129 546 c 0,0,1
169 546 m 0,17,18
 169 511 169 511 204 499 c 0,19,20
 214 496 214 496 225 496 c 0,21,22
 267 496 267 496 279 530 c 0,23,24
 281 538 281 538 281 546 c 0,25,26
 281 583 281 583 245 593 c 0,27,28
 236 596 236 596 225 596 c 0,29,30
 184 596 184 596 172 563 c 0,31,32
 169 555 169 555 169 546 c 0,17,18
367 487 m 2,33,34
 373 490 373 490 377 490 c 0,35,36
 394 490 394 490 394 471 c 0,37,38
 394 457 394 457 381 453 c 1,39,-1
 160 365 l 1,40,41
 152 363 152 363 150 363 c 0,42,43
 135 363 135 363 132 381 c 1,44,45
 132 393 132 393 146 400 c 1,46,-1
 367 487 l 2,33,34
206 306 m 0,47,48
 206 360 206 360 254 384 c 0,49,50
 275 395 275 395 302 395 c 0,51,52
 361 395 361 395 387 349 c 1,53,-1
 396 326 l 1,54,55
 398 316 398 316 398 306 c 0,56,57
 398 255 398 255 353 230 c 0,58,59
 330 217 330 217 302 217 c 0,60,61
 242 217 242 217 217 263 c 0,62,63
 206 283 206 283 206 306 c 0,47,48
246 306 m 0,64,65
 246 269 246 269 282 259 c 0,66,67
 291 256 291 256 302 256 c 0,68,69
 344 256 344 256 356 290 c 0,70,71
 358 298 358 298 358 306 c 0,72,73
 358 343 358 343 322 353 c 0,74,75
 313 356 313 356 302 356 c 0,76,77
 260 356 260 356 248 322 c 0,78,79
 246 314 246 314 246 306 c 0,64,65
414 306 m 0,80,81
 414 360 414 360 462 384 c 0,82,83
 484 395 484 395 511 395 c 0,84,85
 570 395 570 395 596 349 c 1,86,-1
 605 326 l 1,87,88
 607 316 607 316 607 306 c 0,89,90
 607 255 607 255 562 230 c 1,91,-1
 538 220 l 1,92,93
 525 217 525 217 511 217 c 0,94,95
 451 217 451 217 425 264 c 0,96,97
 414 283 414 283 414 306 c 0,80,81
455 306 m 0,98,99
 455 269 455 269 491 259 c 0,100,101
 500 256 500 256 511 256 c 0,102,103
 552 256 552 256 563 290 c 0,104,105
 566 297 566 297 566 306 c 0,106,107
 566 342 566 342 531 353 c 0,108,109
 522 356 522 356 511 356 c 0,110,111
 469 356 469 356 457 322 c 0,112,113
 455 314 455 314 455 306 c 0,98,99
EndSplineSet
Validated: 1
EndChar

StartChar: guilsinglleft
Encoding: 8249 8249 225
Width: 552
GlyphClass: 2
Flags: W
LayerCount: 2
Fore
SplineSet
351 257 m 1,0,-1
 394 165 l 1,1,-1
 397 155 l 1,2,3
 397 138 397 138 377 135 c 1,4,5
 365 135 365 135 359 147 c 2,6,-1
 308 242 l 2,7,8
 304 250 304 250 304 257 c 128,-1,9
 304 264 304 264 308 272 c 2,10,-1
 359 368 l 1,11,12
 366 379 366 379 377 379 c 0,13,14
 394 379 394 379 397 359 c 1,15,-1
 394 349 l 1,16,-1
 351 257 l 1,0,-1
EndSplineSet
Validated: 1
EndChar

StartChar: guilsinglright
Encoding: 8250 8250 226
Width: 550
GlyphClass: 2
Flags: W
LayerCount: 2
Fore
SplineSet
349 257 m 1,0,-1
 305 349 l 1,1,2
 303 357 303 357 303 359 c 0,3,4
 303 378 303 378 322 379 c 0,5,6
 333 379 333 379 340 367 c 2,7,-1
 391 272 l 2,8,9
 395 264 395 264 395 257 c 128,-1,10
 395 250 395 250 391 242 c 2,11,-1
 340 147 l 2,12,13
 333 135 333 135 322 135 c 0,14,15
 304 135 304 135 303 155 c 0,16,17
 303 157 303 157 305 165 c 1,18,-1
 349 257 l 1,0,-1
EndSplineSet
Validated: 1
EndChar

StartChar: fraction
Encoding: 8260 8260 227
Width: 563
GlyphClass: 2
Flags: W
LayerCount: 2
Fore
SplineSet
286 228 m 2,0,1
 274 200 274 200 257 200 c 0,2,3
 241 200 241 200 235 215 c 0,4,5
 234 219 234 219 234 223 c 0,6,7
 234 230 234 230 237 236 c 2,8,-1
 444 680 l 2,9,10
 456 707 456 707 473 709 c 1,11,12
 493 704 493 704 497 687 c 1,13,14
 497 681 497 681 494 675 c 2,15,-1
 286 228 l 2,0,1
EndSplineSet
Validated: 1
EndChar

StartChar: uni2070
Encoding: 8304 8304 228
Width: 300
GlyphClass: 2
Flags: W
LayerCount: 2
Fore
SplineSet
150 700 m 0,0,1
 73 700 73 700 39 788 c 0,2,3
 19 839 19 839 19 912 c 0,4,5
 19 1057 19 1057 88 1107 c 0,6,7
 115 1127 115 1127 150 1127 c 0,8,9
 228 1127 228 1127 262 1038 c 0,10,11
 281 987 281 987 281 912 c 0,12,13
 281 765 281 765 209 717 c 0,14,15
 183 700 183 700 150 700 c 0,0,1
150 1081 m 0,16,17
 96 1081 96 1081 79 992 c 1,18,-1
 73 937 l 2,19,20
 72 925 72 925 72 912 c 0,21,22
 72 774 72 774 129 749 c 0,23,24
 139 744 139 744 150 744 c 0,25,26
 208 744 208 744 223 844 c 0,27,28
 228 874 228 874 228 912 c 0,29,30
 228 1058 228 1058 167 1078 c 0,31,32
 159 1081 159 1081 150 1081 c 0,16,17
EndSplineSet
Validated: 1
EndChar

StartChar: uni2071
Encoding: 8305 8305 229
Width: 300
GlyphClass: 2
Flags: W
LayerCount: 2
Fore
SplineSet
70 1056 m 1,0,-1
 60 1055 l 1,1,-1
 59 1055 l 2,2,3
 39 1055 39 1055 36 1076 c 1,4,5
 36 1093 36 1093 58 1099 c 2,6,-1
 156 1125 l 2,7,8
 162 1127 162 1127 170 1127 c 0,9,10
 184 1127 184 1127 184 1106 c 2,11,-1
 184 749 l 1,12,-1
 237 749 l 2,13,14
 274 749 274 749 279 739 c 1,15,-1
 282 726 l 1,16,17
 282 702 282 702 255 702 c 2,18,-1
 58 702 l 2,19,20
 32 702 32 702 32 726 c 0,21,22
 32 746 32 746 53 748 c 0,23,24
 60 749 60 749 77 749 c 2,25,-1
 132 749 l 1,26,-1
 132 1071 l 1,27,-1
 70 1056 l 1,0,-1
EndSplineSet
Validated: 1
EndChar

StartChar: uni2072
Encoding: 8306 8306 230
Width: 300
GlyphClass: 2
Flags: W
LayerCount: 2
Fore
SplineSet
43 703 m 2,0,1
 9 703 9 703 9 732 c 0,2,3
 9 753 9 753 53 794 c 0,4,5
 58 799 58 799 82 822 c 0,6,7
 172 908 172 908 188 927 c 0,8,9
 224 970 224 970 224 1006 c 0,10,11
 224 1061 224 1061 181 1079 c 0,12,13
 167 1085 167 1085 151 1085 c 0,14,15
 107 1085 107 1085 81 1053 c 1,16,-1
 66 1030 l 1,17,18
 58 1022 58 1022 45 1022 c 1,19,20
 27 1029 27 1029 26 1057 c 0,21,22
 26 1076 26 1076 37 1086 c 0,23,24
 82 1131 82 1131 153 1131 c 256,25,26
 224 1131 224 1131 261 1076 c 1,27,-1
 274 1050 l 1,28,29
 281 1030 281 1030 281 1008 c 0,30,31
 281 951 281 951 220 887 c 1,32,-1
 125 795 l 1,33,-1
 85 755 l 1,34,-1
 235 755 l 1,35,36
 238 785 238 785 260 785 c 256,37,38
 282 785 282 785 284 757 c 1,39,-1
 283 752 l 1,40,-1
 283 751 l 1,41,-1
 280 725 l 2,42,43
 277 703 277 703 261 703 c 2,44,-1
 43 703 l 2,0,1
EndSplineSet
Validated: 1
EndChar

StartChar: uni2073
Encoding: 8307 8307 231
Width: 300
GlyphClass: 2
Flags: W
LayerCount: 2
Fore
SplineSet
217 1011 m 0,0,1
 217 1084 217 1084 144 1084 c 0,2,3
 122 1084 122 1084 83 1059 c 1,4,-1
 63 1049 l 2,5,6
 60 1048 60 1048 58 1048 c 0,7,8
 40 1048 40 1048 37 1069 c 1,9,10
 37 1090 37 1090 74 1109.5 c 128,-1,11
 111 1129 111 1129 166.5 1129 c 128,-1,12
 222 1129 222 1129 255 1077 c 0,13,14
 271 1052 271 1052 271 1022 c 0,15,16
 271 955 271 955 205 933 c 1,17,18
 276 912 276 912 284 842 c 1,19,-1
 284 828 l 2,20,21
 284 756 284 756 223 720 c 0,22,23
 188 699 188 699 128 699 c 128,-1,24
 68 699 68 699 42 722 c 0,25,26
 15 746 15 746 15 759 c 1,27,28
 20 779 20 779 39 782 c 0,29,30
 44 782 44 782 78.5 765 c 128,-1,31
 113 748 113 748 143 748 c 0,32,33
 201 748 201 748 222 793 c 0,34,35
 229 809 229 809 229 828 c 0,36,37
 229 881 229 881 182 897 c 0,38,39
 175 900 175 900 168 901 c 2,40,-1
 125 907 l 1,41,42
 117 911 117 911 117 927.5 c 128,-1,43
 117 944 117 944 130 947 c 1,44,-1
 161 951 l 1,45,46
 217 961 217 961 217 1011 c 0,0,1
EndSplineSet
Validated: 1
EndChar

StartChar: uni2074
Encoding: 8308 8308 232
Width: 300
GlyphClass: 2
Flags: W
LayerCount: 2
Fore
SplineSet
147 702 m 1,0,1
 122 710 122 710 120 726 c 1,2,3
 120 749 120 749 144 749 c 2,4,-1
 183 749 l 1,5,-1
 183 804 l 1,6,-1
 29 804 l 2,7,8
 11 804 11 804 11 824 c 2,9,-1
 11 847 l 2,10,11
 11 858 11 858 23 879 c 2,12,-1
 163 1116 l 2,13,14
 170 1128 170 1128 179 1128 c 0,15,16
 184 1128 184 1128 188 1127 c 2,17,-1
 221 1122 l 1,18,19
 231 1119 231 1119 231 1105 c 2,20,-1
 231 854 l 1,21,-1
 248 854 l 2,22,23
 255 854 255 854 261 862 c 0,24,25
 264 866 264 866 269 866 c 0,26,27
 281 866 281 866 284 849 c 1,28,29
 284 843 284 843 283 838 c 2,30,-1
 280 824 l 2,31,32
 276 805 276 805 259 804 c 1,33,-1
 231 804 l 1,34,-1
 231 749 l 1,35,-1
 243 749 l 1,36,37
 278 745 278 745 280 726 c 1,38,39
 280 702 280 702 254 702 c 2,40,-1
 147 702 l 1,0,1
183 854 m 1,41,-1
 183 1078 l 1,42,-1
 58 854 l 1,43,-1
 183 854 l 1,41,-1
EndSplineSet
Validated: 1
EndChar

StartChar: uni2075
Encoding: 8309 8309 233
Width: 300
GlyphClass: 2
Flags: W
LayerCount: 2
Fore
SplineSet
82 969 m 1,0,1
 122 984 122 984 157 984 c 0,2,3
 232 984 232 984 270 923 c 1,4,-1
 284 896 l 1,5,6
 292 872 292 872 292 845 c 0,7,8
 292 766 292 766 229 725 c 0,9,10
 191 700 191 700 140 700 c 0,11,12
 51 700 51 700 19 732 c 0,13,14
 10 741 10 741 10 751 c 0,15,16
 10 767 10 767 27 772 c 0,17,18
 30 773 30 773 33 773 c 0,19,20
 35 773 35 773 76 759 c 0,21,22
 109 748 109 748 137 748 c 0,23,24
 202 748 202 748 226 799 c 0,25,26
 236 819 236 819 236 843 c 0,27,28
 236 900 236 900 191 926 c 0,29,30
 170 938 170 938 144 938 c 0,31,32
 113 938 113 938 72 915 c 0,33,34
 59 908 59 908 52 908 c 1,35,36
 35 915 35 915 34 942 c 1,37,-1
 34 1106 l 1,38,39
 38 1126 38 1126 64 1127 c 1,40,-1
 231 1127 l 2,41,42
 263 1127 263 1127 263 1101 c 0,43,44
 263 1076 263 1076 231 1075 c 1,45,-1
 82 1075 l 1,46,-1
 82 969 l 1,0,1
EndSplineSet
Validated: 1
EndChar

StartChar: uni2076
Encoding: 8310 8310 234
Width: 300
GlyphClass: 2
Flags: W
LayerCount: 2
Fore
SplineSet
72 922 m 1,0,1
 108 967 108 967 158 967 c 0,2,3
 219 967 219 967 256 914 c 0,4,5
 280 879 280 879 280 834 c 0,6,7
 280 755 280 755 224 719 c 0,8,9
 194 699 194 699 157 699 c 0,10,11
 75 699 75 699 38 778 c 0,12,13
 17 823 17 823 17 885 c 0,14,15
 17 1022 17 1022 100 1088 c 0,16,17
 152 1129 152 1129 222 1129 c 0,18,19
 269 1129 269 1129 273 1114 c 0,20,21
 274 1110 274 1110 274 1106 c 0,22,23
 274 1088 274 1088 253 1086 c 2,24,-1
 199 1082 l 1,25,-1
 195 1082 l 1,26,27
 109 1065 109 1065 80 964 c 1,28,-1
 72 922 l 1,0,1
79 836 m 0,29,30
 79 775 79 775 122 753 c 0,31,32
 137 745 137 745 154 745 c 0,33,34
 199 745 199 745 218 790 c 0,35,36
 225 808 225 808 225 831 c 0,37,38
 225 890 225 890 184 912 c 0,39,40
 169 920 169 920 152 920 c 0,41,42
 107 920 107 920 87 876 c 0,43,44
 79 858 79 858 79 836 c 0,29,30
EndSplineSet
Validated: 1
EndChar

StartChar: uni2077
Encoding: 8311 8311 235
Width: 300
GlyphClass: 2
Flags: W
LayerCount: 2
Fore
SplineSet
153 714 m 2,0,1
 149 701 149 701 139 701 c 2,2,-1
 134 701 l 1,3,-1
 110 701 l 2,4,5
 96 701 96 701 96 711 c 0,6,7
 96 714 96 714 98 722 c 2,8,-1
 229 1078 l 1,9,-1
 59 1078 l 1,10,11
 58 1047 58 1047 35 1047 c 0,12,13
 13 1047 13 1047 13 1070 c 2,14,-1
 13 1079 l 1,15,-1
 17 1109 l 1,16,17
 18 1128 18 1128 39 1128 c 2,18,-1
 259 1128 l 2,19,20
 277 1128 277 1128 277 1111 c 2,21,-1
 277 1099 l 2,22,23
 277 1090 277 1090 271 1071 c 2,24,-1
 153 714 l 2,0,1
EndSplineSet
Validated: 1
EndChar

StartChar: uni2078
Encoding: 8312 8312 236
Width: 300
GlyphClass: 2
Flags: W
LayerCount: 2
Fore
SplineSet
85 920 m 1,0,1
 23 952 23 952 23 1015 c 0,2,3
 23 1081 23 1081 80 1113 c 0,4,5
 110 1130 110 1130 150 1130 c 0,6,7
 225 1130 225 1130 260 1076 c 1,8,-1
 272 1051 l 1,9,10
 278 1034 278 1034 278 1015 c 0,11,12
 278 950 278 950 215 920 c 1,13,14
 278 886 278 886 282 821 c 1,15,16
 282 749 282 749 222 717 c 0,17,18
 191 700 191 700 150 700 c 0,19,20
 70 700 70 700 36 758 c 0,21,22
 19 786 19 786 19 822 c 0,23,24
 19 891 19 891 85 920 c 1,0,1
75 1015 m 0,25,26
 75 966 75 966 117 948 c 0,27,28
 132 941 132 941 150 941 c 0,29,30
 200 941 200 941 219 983 c 0,31,32
 225 998 225 998 225 1015 c 0,33,34
 225 1061 225 1061 185 1079 c 1,35,-1
 162 1086 l 1,36,37
 156 1086 156 1086 150 1086 c 0,38,39
 100 1086 100 1086 81 1046 c 0,40,41
 75 1032 75 1032 75 1015 c 0,25,26
72 821 m 0,42,43
 72 771 72 771 115 752 c 0,44,45
 131 745 131 745 150 745 c 0,46,47
 207 745 207 745 224 791 c 0,48,49
 229 805 229 805 229 821 c 0,50,51
 229 872 229 872 185 890 c 1,52,-1
 161 896 l 1,53,54
 155 896 155 896 150 896 c 0,55,56
 96 896 96 896 78 854 c 0,57,58
 72 839 72 839 72 821 c 0,42,43
EndSplineSet
Validated: 1
EndChar

StartChar: uni2079
Encoding: 8313 8313 237
Width: 300
GlyphClass: 2
Flags: W
LayerCount: 2
Fore
SplineSet
216 992 m 0,0,1
 216 1053 216 1053 172 1075 c 0,2,3
 158 1083 158 1083 140 1083 c 0,4,5
 96 1083 96 1083 78 1039 c 1,6,-1
 71 1012 l 1,7,8
 71 1005 71 1005 71 997 c 0,9,10
 71 937 71 937 112 916 c 0,11,12
 126 909 126 909 143 909 c 0,13,14
 187 909 187 909 207 951 c 0,15,16
 216 970 216 970 216 992 c 0,0,1
222 906 m 1,17,18
 188 862 188 862 138 862 c 0,19,20
 75 862 75 862 39 916 c 0,21,22
 16 950 16 950 16 994 c 0,23,24
 16 1072 16 1072 71 1110 c 0,25,26
 101 1130 101 1130 138 1130 c 0,27,28
 219 1130 219 1130 257 1052 c 0,29,30
 273 1020 273 1020 277 979 c 0,31,32
 279 962 279 962 279 943 c 0,33,34
 279 804 279 804 193 739 c 0,35,36
 153 709 153 709 100 702 c 0,37,38
 85 700 85 700 71 700 c 0,39,40
 27 700 27 700 22 713 c 0,41,42
 21 716 21 716 21 721 c 0,43,44
 21 740 21 740 42 742 c 2,45,-1
 97 746 l 2,46,47
 98 746 98 746 99 746 c 0,48,49
 187 763 187 763 214 864 c 0,50,51
 220 884 220 884 222 906 c 1,17,18
EndSplineSet
Validated: 1
EndChar

StartChar: uni207A
Encoding: 8314 8314 238
Width: 600
GlyphClass: 2
Flags: W
LayerCount: 2
Fore
SplineSet
542 1015 m 2,0,1
 568 1015 568 1015 569 991 c 1,2,3
 564 970 564 970 542 967 c 1,4,-1
 423 967 l 1,5,-1
 423 844 l 2,6,7
 423 820 423 820 398 817 c 1,8,9
 380 817 380 817 374 836 c 0,10,11
 373 840 373 840 373 844 c 2,12,-1
 373 967 l 1,13,-1
 254 967 l 1,14,15
 232 972 232 972 228 991 c 1,16,17
 228 1008 228 1008 246 1014 c 0,18,19
 250 1015 250 1015 254 1015 c 2,20,-1
 373 1015 l 1,21,-1
 373 1140 l 1,22,23
 378 1162 378 1162 398 1166 c 1,24,25
 420 1161 420 1161 423 1140 c 1,26,-1
 423 1015 l 1,27,-1
 542 1015 l 2,0,1
EndSplineSet
Validated: 1
EndChar

StartChar: uni207B
Encoding: 8315 8315 239
Width: 600
GlyphClass: 2
Flags: W
LayerCount: 2
Fore
SplineSet
262 970 m 2,0,1
 247 970 247 970 247 985 c 2,2,-1
 247 1020 l 2,3,4
 247 1034 247 1034 262 1034 c 2,5,-1
 535 1034 l 2,6,7
 551 1034 551 1034 551 1020 c 2,8,-1
 551 985 l 2,9,10
 551 973 551 973 535 970 c 1,11,-1
 262 970 l 2,0,1
EndSplineSet
Validated: 1
EndChar

StartChar: uni207C
Encoding: 8316 8316 240
Width: 600
GlyphClass: 2
Flags: W
LayerCount: 2
Fore
SplineSet
252 921 m 2,0,1
 231 921 231 921 231 945 c 128,-1,2
 231 969 231 969 252 969 c 2,3,-1
 547 969 l 2,4,5
 568 969 568 969 568 945 c 128,-1,6
 568 921 568 921 547 921 c 2,7,-1
 252 921 l 2,0,1
252 1032 m 2,8,9
 231 1032 231 1032 231 1056 c 128,-1,10
 231 1080 231 1080 252 1080 c 2,11,-1
 547 1080 l 2,12,13
 568 1080 568 1080 568 1056 c 128,-1,14
 568 1032 568 1032 547 1032 c 2,15,-1
 252 1032 l 2,8,9
EndSplineSet
Validated: 1
EndChar

StartChar: uni207D
Encoding: 8317 8317 241
Width: 300
GlyphClass: 2
Flags: W
LayerCount: 2
Fore
SplineSet
217 1222 m 0,0,1
 217 1217 217 1217 194 1168 c 0,2,3
 192 1162 192 1162 189 1156 c 0,4,5
 148 1056 148 1056 148 969 c 0,6,7
 148 887 148 887 180 805 c 1,8,-1
 216 722 l 1,9,-1
 217 717 l 1,10,11
 217 702 217 702 204 702 c 0,12,13
 180 702 180 702 141 765 c 0,14,15
 83 859 83 859 83 969 c 0,16,17
 83 1080 83 1080 141 1174 c 0,18,19
 180 1237 180 1237 204 1237 c 0,20,21
 217 1237 217 1237 217 1222 c 0,0,1
EndSplineSet
Validated: 1
EndChar

StartChar: uni207E
Encoding: 8318 8318 242
Width: 300
GlyphClass: 2
Flags: W
LayerCount: 2
Fore
SplineSet
82 714 m 0,0,1
 82 719 82 719 101 760 c 0,2,3
 106 771 106 771 110 780 c 0,4,5
 151 876 151 876 151 966 c 0,6,7
 151 1049 151 1049 119 1131 c 1,8,-1
 83 1214 l 2,9,10
 82 1217 82 1217 82 1219 c 0,11,12
 82 1234 82 1234 95 1234 c 0,13,14
 119 1234 119 1234 158 1171 c 0,15,16
 216 1077 216 1077 216 966 c 0,17,18
 216 856 216 856 158 762 c 0,19,20
 119 699 119 699 95 699 c 0,21,22
 82 699 82 699 82 714 c 0,0,1
EndSplineSet
Validated: 1
EndChar

StartChar: uni207F
Encoding: 8319 8319 243
Width: 600
GlyphClass: 2
Flags: W
LayerCount: 2
Fore
SplineSet
275 748 m 1,0,-1
 275 959 l 1,1,-1
 260 959 l 2,2,3
 230 959 230 959 230 983 c 0,4,5
 230 1003 230 1003 250 1005 c 0,6,7
 257 1006 257 1006 275 1006 c 2,8,-1
 306 1006 l 2,9,10
 325 1006 325 1006 325 992 c 2,11,-1
 325 970 l 1,12,13
 373 1015 373 1015 422 1015 c 0,14,15
 496 1015 496 1015 520 950 c 0,16,17
 529 927 529 927 529 897 c 2,18,-1
 529 748 l 1,19,-1
 544 748 l 2,20,21
 575 748 575 748 575 725 c 1,22,23
 566 703 566 703 540 701 c 1,24,-1
 467 701 l 2,25,26
 440 701 440 701 436 712 c 0,27,28
 434 717 434 717 434 725 c 0,29,30
 434 745 434 745 455 747 c 0,31,32
 460 748 460 748 467 748 c 2,33,-1
 478 748 l 1,34,-1
 478 885 l 2,35,36
 478 964 478 964 410 964 c 0,37,38
 365 964 365 964 339 929 c 0,39,40
 324 909 324 909 324 885 c 2,41,-1
 324 748 l 1,42,-1
 339 748 l 1,43,44
 368 742 368 742 370 725 c 1,45,46
 370 705 370 705 354 702 c 1,47,-1
 335 701 l 1,48,-1
 275 701 l 1,49,-1
 258 701 l 2,50,51
 230 701 230 701 230 725 c 0,52,53
 230 744 230 744 251 747 c 0,54,55
 258 748 258 748 268 748 c 2,56,-1
 275 748 l 1,0,-1
EndSplineSet
Validated: 1
EndChar

StartChar: uni2080
Encoding: 8320 8320 244
Width: 300
GlyphClass: 2
Flags: W
LayerCount: 2
Fore
SplineSet
150 -339 m 0,0,1
 71 -339 71 -339 36 -248 c 0,2,3
 15 -195 15 -195 15 -120 c 0,4,5
 15 29 15 29 88 80 c 0,6,7
 115 99 115 99 150 99 c 0,8,9
 231 99 231 99 266 6 c 0,10,11
 285 -46 285 -46 285 -120 c 0,12,13
 285 -272 285 -272 211 -321 c 0,14,15
 184 -339 184 -339 150 -339 c 0,0,1
150 52 m 1,16,17
 94 52 94 52 77 -41 c 0,18,19
 70 -75 70 -75 70 -120 c 0,20,21
 70 -261 70 -261 128 -287 c 0,22,23
 138 -292 138 -292 150 -292 c 0,24,25
 209 -292 209 -292 225 -192 c 0,26,27
 230 -160 230 -160 230 -120 c 0,28,29
 230 29 230 29 167 49 c 1,30,-1
 150 52 l 1,16,17
EndSplineSet
Validated: 1
EndChar

StartChar: uni2081
Encoding: 8321 8321 245
Width: 300
GlyphClass: 2
Flags: W
LayerCount: 2
Fore
SplineSet
70 27 m 1,0,-1
 60 26 l 1,1,-1
 59 26 l 2,2,3
 39 26 39 26 36 47 c 1,4,5
 36 64 36 64 58 70 c 2,6,-1
 156 96 l 2,7,8
 162 98 162 98 170 98 c 0,9,10
 184 98 184 98 184 77 c 2,11,-1
 184 -280 l 1,12,-1
 237 -280 l 2,13,14
 275 -280 275 -280 280 -293 c 1,15,-1
 282 -303 l 1,16,17
 282 -327 282 -327 255 -327 c 2,18,-1
 58 -327 l 2,19,20
 32 -327 32 -327 32 -303 c 0,21,22
 32 -284 32 -284 53 -281 c 0,23,24
 61 -280 61 -280 77 -280 c 2,25,-1
 132 -280 l 1,26,-1
 132 42 l 1,27,-1
 70 27 l 1,0,-1
EndSplineSet
Validated: 1
EndChar

StartChar: uni2082
Encoding: 8322 8322 246
Width: 300
GlyphClass: 2
Flags: W
LayerCount: 2
Fore
SplineSet
42 -327 m 2,0,1
 8 -327 8 -327 8 -298 c 0,2,3
 8 -277 8 -277 52 -236 c 0,4,5
 57 -231 57 -231 81 -208 c 0,6,7
 171 -122 171 -122 188 -102 c 0,8,9
 223 -60 223 -60 223 -25 c 0,10,11
 223 31 223 31 179 49 c 0,12,13
 165 54 165 54 150 54 c 0,14,15
 104 54 104 54 80 23 c 1,16,-1
 65 0 l 1,17,18
 57 -8 57 -8 44 -8 c 1,19,20
 26 -1 26 -1 25 27 c 0,21,22
 25 46 25 46 36 56 c 0,23,24
 80 100 80 100 152 100 c 0,25,26
 223 100 223 100 260 46 c 0,27,28
 280 16 280 16 280 -22 c 0,29,30
 280 -78 280 -78 219 -143 c 1,31,-1
 124 -236 l 1,32,-1
 84 -275 l 1,33,-1
 234 -275 l 1,34,35
 237 -246 237 -246 259 -246 c 0,36,37
 283 -246 283 -246 283 -273 c 1,38,-1
 282 -278 l 1,39,-1
 282 -279 l 1,40,-1
 279 -305 l 2,41,42
 276 -327 276 -327 260 -327 c 2,43,-1
 42 -327 l 2,0,1
EndSplineSet
Validated: 1
EndChar

StartChar: uni2083
Encoding: 8323 8323 247
Width: 300
GlyphClass: 2
Flags: W
LayerCount: 2
Fore
SplineSet
202 -103 m 1,0,1
 272 -122 272 -122 282 -190 c 0,2,3
 283 -199 283 -199 283 -209 c 0,4,5
 283 -283 283 -283 221 -320 c 0,6,7
 185 -341 185 -341 137 -341 c 0,8,9
 63 -341 63 -341 24 -307 c 0,10,11
 8 -293 8 -293 8 -279 c 0,12,13
 8 -261 8 -261 27 -257 c 0,14,15
 30 -256 30 -256 33 -256 c 0,16,17
 38 -256 38 -256 73 -273 c 128,-1,18
 108 -290 108 -290 139 -290 c 0,19,20
 198 -290 198 -290 220 -244 c 0,21,22
 227 -228 227 -228 227 -209 c 0,23,24
 227 -155 227 -155 179 -138 c 0,25,26
 172 -135 172 -135 164 -134 c 2,27,-1
 122 -128 l 1,28,29
 112 -124 112 -124 112 -108 c 0,30,31
 112 -90 112 -90 125 -87 c 1,32,33
 122 -88 122 -88 157 -83 c 0,34,35
 201 -77 201 -77 212 -38 c 0,36,37
 214 -29 214 -29 214 -20 c 0,38,39
 214 28 214 28 175 45 c 0,40,41
 161 51 161 51 146 51 c 0,42,43
 118 51 118 51 76 26 c 1,44,-1
 57 17 l 2,45,46
 54 16 54 16 52 16 c 0,47,48
 34 16 34 16 31 37 c 1,49,50
 31 58 31 58 70 78 c 0,51,52
 107 97 107 97 150 97 c 0,53,54
 220 97 220 97 253 45 c 0,55,56
 269 19 269 19 269 -11 c 0,57,58
 269 -78 269 -78 202 -103 c 1,0,1
EndSplineSet
Validated: 1
EndChar

StartChar: uni2084
Encoding: 8324 8324 248
Width: 300
GlyphClass: 2
Flags: W
LayerCount: 2
Fore
SplineSet
144 -325 m 1,0,1
 119 -318 119 -318 117 -302 c 1,2,3
 117 -280 117 -280 141 -279 c 1,4,-1
 180 -279 l 1,5,-1
 180 -223 l 1,6,-1
 26 -223 l 2,7,8
 8 -223 8 -223 8 -203 c 2,9,-1
 8 -180 l 2,10,11
 8 -169 8 -169 20 -148 c 2,12,-1
 160 88 l 1,13,14
 166 101 166 101 176 101 c 0,15,16
 181 101 181 101 185 100 c 2,17,-1
 218 95 l 1,18,19
 228 92 228 92 228 78 c 2,20,-1
 228 -173 l 1,21,-1
 245 -173 l 2,22,23
 252 -173 252 -173 258 -166 c 0,24,25
 261 -162 261 -162 266 -162 c 0,26,27
 280 -162 280 -162 281 -178 c 0,28,29
 281 -184 281 -184 280 -189 c 2,30,-1
 277 -203 l 2,31,32
 273 -222 273 -222 256 -223 c 1,33,-1
 228 -223 l 1,34,-1
 228 -279 l 1,35,-1
 240 -279 l 2,36,37
 273 -279 273 -279 276 -295 c 0,38,39
 277 -298 277 -298 277 -302 c 0,40,41
 277 -325 277 -325 251 -325 c 2,42,-1
 144 -325 l 1,0,1
180 -173 m 1,43,-1
 180 51 l 1,44,-1
 55 -173 l 1,45,-1
 180 -173 l 1,43,-1
EndSplineSet
Validated: 1
EndChar

StartChar: uni2085
Encoding: 8325 8325 249
Width: 300
GlyphClass: 2
Flags: W
LayerCount: 2
Fore
SplineSet
83 -61 m 1,0,1
 122 -45 122 -45 158 -45 c 0,2,3
 233 -45 233 -45 271 -106 c 0,4,5
 293 -140 293 -140 293 -184 c 0,6,7
 293 -263 293 -263 230 -305 c 0,8,9
 192 -330 192 -330 141 -330 c 0,10,11
 54 -330 54 -330 21 -298 c 0,12,13
 11 -288 11 -288 11 -278 c 0,14,15
 11 -262 11 -262 28 -257 c 0,16,17
 31 -256 31 -256 34 -256 c 0,18,19
 36 -256 36 -256 76 -270 c 0,20,21
 109 -282 109 -282 138 -282 c 0,22,23
 201 -282 201 -282 227 -231 c 0,24,25
 237 -211 237 -211 237 -186 c 0,26,27
 237 -129 237 -129 192 -103 c 0,28,29
 171 -91 171 -91 145 -91 c 0,30,31
 114 -91 114 -91 73 -114 c 0,32,33
 60 -121 60 -121 53 -121 c 1,34,35
 36 -114 36 -114 35 -87 c 1,36,-1
 35 77 l 1,37,38
 39 97 39 97 65 98 c 1,39,-1
 232 98 l 2,40,41
 264 98 264 98 264 72 c 0,42,43
 264 47 264 47 232 46 c 1,44,-1
 83 46 l 1,45,-1
 83 -61 l 1,0,1
EndSplineSet
Validated: 1
EndChar

StartChar: uni2086
Encoding: 8326 8326 250
Width: 300
GlyphClass: 2
Flags: W
LayerCount: 2
Fore
SplineSet
70 -112 m 1,0,1
 106 -66 106 -66 158 -66 c 0,2,3
 221 -66 221 -66 258 -120 c 0,4,5
 283 -155 283 -155 283 -201 c 0,6,7
 283 -281 283 -281 226 -319 c 0,8,9
 196 -339 196 -339 157 -339 c 0,10,11
 73 -339 73 -339 35 -258 c 0,12,13
 14 -212 14 -212 14 -149 c 0,14,15
 14 -10 14 -10 99 58 c 0,16,17
 151 99 151 99 224 99 c 0,18,19
 270 99 270 99 276 85 c 0,20,21
 277 82 277 82 277 77 c 0,22,23
 277 58 277 58 255 56 c 2,24,-1
 200 53 l 1,25,-1
 196 52 l 1,26,27
 106 35 106 35 78 -72 c 0,28,29
 73 -91 73 -91 70 -112 c 1,0,1
78 -199 m 0,30,31
 78 -261 78 -261 122 -283 c 0,32,33
 137 -291 137 -291 154 -291 c 0,34,35
 200 -291 200 -291 219 -246 c 0,36,37
 227 -227 227 -227 227 -204 c 0,38,39
 227 -143 227 -143 184 -121 c 0,40,41
 169 -114 169 -114 152 -114 c 0,42,43
 106 -114 106 -114 86 -158 c 0,44,45
 78 -176 78 -176 78 -199 c 0,30,31
EndSplineSet
Validated: 1
EndChar

StartChar: uni2087
Encoding: 8327 8327 251
Width: 300
GlyphClass: 2
Flags: W
LayerCount: 2
Fore
SplineSet
149 -311 m 2,0,1
 145 -323 145 -323 135 -324 c 1,2,-1
 130 -324 l 1,3,-1
 106 -324 l 2,4,5
 92 -324 92 -324 92 -314 c 0,6,7
 92 -311 92 -311 94 -303 c 2,8,-1
 224 49 l 1,9,-1
 56 49 l 1,10,11
 54 19 54 19 32 19 c 128,-1,12
 10 19 10 19 10 41 c 2,13,-1
 10 50 l 1,14,-1
 14 79 l 1,15,16
 15 98 15 98 36 98 c 2,17,-1
 254 98 l 2,18,19
 272 98 272 98 272 81 c 2,20,-1
 272 70 l 2,21,22
 272 60 272 60 266 42 c 2,23,-1
 149 -311 l 2,0,1
EndSplineSet
Validated: 1
EndChar

StartChar: uni2088
Encoding: 8328 8328 252
Width: 300
GlyphClass: 2
Flags: W
LayerCount: 2
Fore
SplineSet
84 -114 m 1,0,1
 20 -83 20 -83 20 -18 c 0,2,3
 20 49 20 49 78 82 c 0,4,5
 109 99 109 99 150 99 c 0,6,7
 226 99 226 99 263 44 c 0,8,9
 281 16 281 16 281 -18 c 0,10,11
 281 -83 281 -83 216 -114 c 1,12,13
 282 -146 282 -146 285 -216 c 1,14,15
 285 -287 285 -287 225 -321 c 0,16,17
 192 -339 192 -339 150 -339 c 0,18,19
 69 -339 69 -339 33 -279 c 0,20,21
 16 -250 16 -250 16 -214 c 0,22,23
 16 -147 16 -147 79 -116 c 0,24,25
 81 -115 81 -115 84 -114 c 1,0,1
73 -18 m 2,26,27
 73 -66 73 -66 115 -85 c 0,28,29
 131 -92 131 -92 150 -92 c 0,30,31
 201 -92 201 -92 220 -50 c 0,32,33
 227 -35 227 -35 227 -17 c 0,34,35
 227 30 227 30 186 49 c 1,36,-1
 162 55 l 2,37,38
 156 56 156 56 150 56 c 0,39,40
 97 56 97 56 79 13 c 1,41,-1
 73 -11 l 1,42,-1
 73 -18 l 2,26,27
70 -216 m 0,43,44
 70 -267 70 -267 114 -286 c 0,45,46
 130 -293 130 -293 150 -293 c 0,47,48
 207 -293 207 -293 225 -247 c 0,49,50
 231 -233 231 -233 231 -216 c 0,51,52
 231 -163 231 -163 184 -145 c 0,53,54
 169 -139 169 -139 150 -139 c 0,55,56
 93 -139 93 -139 75 -185 c 0,57,58
 70 -199 70 -199 70 -216 c 0,43,44
EndSplineSet
Validated: 1
EndChar

StartChar: uni2089
Encoding: 8329 8329 253
Width: 300
GlyphClass: 2
Flags: W
LayerCount: 2
Fore
SplineSet
214 -40 m 0,0,1
 214 22 214 22 170 44 c 0,2,3
 155 52 155 52 137 52 c 0,4,5
 92 52 92 52 74 7 c 0,6,7
 66 -12 66 -12 66 -35 c 0,8,9
 66 -97 66 -97 109 -119 c 0,10,11
 123 -126 123 -126 140 -126 c 0,12,13
 185 -126 185 -126 205 -83 c 0,14,15
 214 -63 214 -63 214 -40 c 0,0,1
221 -128 m 1,16,17
 185 -174 185 -174 135 -174 c 0,18,19
 71 -174 71 -174 34 -119 c 0,20,21
 10 -84 10 -84 10 -39 c 0,22,23
 10 42 10 42 68 80 c 0,24,25
 97 99 97 99 135 99 c 0,26,27
 217 99 217 99 256 20 c 0,28,29
 279 -26 279 -26 279 -91 c 0,30,31
 279 -232 279 -232 192 -298 c 1,32,33
 140 -339 140 -339 66 -339 c 0,34,35
 20 -339 20 -339 16 -324 c 0,36,37
 15 -321 15 -321 15 -317 c 0,38,39
 15 -298 15 -298 37 -295 c 1,40,-1
 93 -291 l 1,41,-1
 95 -291 l 1,42,43
 188 -273 188 -273 215 -164 c 0,44,45
 219 -147 219 -147 221 -128 c 1,16,17
EndSplineSet
Validated: 1
EndChar

StartChar: uni208A
Encoding: 8330 8330 254
Width: 600
GlyphClass: 2
Flags: W
LayerCount: 2
Fore
SplineSet
542 -76 m 2,0,1
 568 -76 568 -76 569 -100 c 1,2,3
 564 -121 564 -121 542 -124 c 1,4,-1
 423 -124 l 1,5,-1
 423 -248 l 1,6,7
 418 -270 418 -270 398 -274 c 1,8,9
 380 -274 380 -274 374 -256 c 0,10,11
 373 -252 373 -252 373 -248 c 2,12,-1
 373 -124 l 1,13,-1
 254 -124 l 1,14,15
 232 -119 232 -119 228 -100 c 1,16,17
 228 -83 228 -83 246 -77 c 0,18,19
 250 -76 250 -76 254 -76 c 2,20,-1
 373 -76 l 1,21,-1
 373 48 l 2,22,23
 373 72 373 72 398 75 c 1,24,25
 420 70 420 70 423 48 c 1,26,-1
 423 -76 l 1,27,-1
 542 -76 l 2,0,1
EndSplineSet
Validated: 1
EndChar

StartChar: uni208B
Encoding: 8331 8331 255
Width: 600
GlyphClass: 2
Flags: W
LayerCount: 2
Fore
SplineSet
262 -177 m 2,0,1
 247 -177 247 -177 247 -161 c 2,2,-1
 247 -126 l 2,3,4
 247 -112 247 -112 262 -112 c 2,5,-1
 535 -112 l 2,6,7
 551 -112 551 -112 551 -126 c 2,8,-1
 551 -161 l 2,9,10
 551 -172 551 -172 539 -176 c 0,11,12
 537 -177 537 -177 535 -177 c 2,13,-1
 262 -177 l 2,0,1
EndSplineSet
Validated: 1
EndChar

StartChar: uni208C
Encoding: 8332 8332 256
Width: 600
GlyphClass: 2
Flags: W
LayerCount: 2
Fore
SplineSet
252 -214 m 2,0,1
 231 -214 231 -214 231 -190 c 128,-1,2
 231 -166 231 -166 252 -166 c 2,3,-1
 547 -166 l 2,4,5
 568 -166 568 -166 568 -190 c 128,-1,6
 568 -214 568 -214 547 -214 c 2,7,-1
 252 -214 l 2,0,1
252 -104 m 2,8,9
 231 -104 231 -104 231 -79 c 0,10,11
 231 -55 231 -55 252 -55 c 2,12,-1
 547 -55 l 2,13,14
 568 -55 568 -55 568 -79 c 0,15,16
 568 -104 568 -104 547 -104 c 2,17,-1
 252 -104 l 2,8,9
EndSplineSet
Validated: 1
EndChar

StartChar: uni208D
Encoding: 8333 8333 257
Width: 300
GlyphClass: 2
Flags: W
LayerCount: 2
Fore
SplineSet
217 108 m 0,0,1
 217 102 217 102 196 57 c 0,2,3
 192 49 192 49 189 42 c 0,4,5
 148 -58 148 -58 148 -145 c 0,6,7
 148 -227 148 -227 180 -309 c 1,8,-1
 216 -392 l 1,9,-1
 217 -397 l 1,10,11
 217 -412 217 -412 204 -412 c 0,12,13
 180 -412 180 -412 141 -350 c 0,14,15
 83 -255 83 -255 83 -145 c 256,16,17
 83 -35 83 -35 141 60 c 0,18,19
 180 123 180 123 204 123 c 0,20,21
 217 123 217 123 217 108 c 0,0,1
EndSplineSet
Validated: 1
EndChar

StartChar: uni208E
Encoding: 8334 8334 258
Width: 300
GlyphClass: 2
Flags: W
LayerCount: 2
Fore
SplineSet
82 -398 m 0,0,1
 82 -393 82 -393 101 -352 c 0,2,3
 106 -341 106 -341 110 -332 c 0,4,5
 151 -236 151 -236 151 -146 c 0,6,7
 151 -63 151 -63 119 19 c 1,8,-1
 83 102 l 2,9,10
 82 105 82 105 82 107 c 0,11,12
 82 122 82 122 95 122 c 0,13,14
 119 122 119 122 158 59 c 0,15,16
 216 -36 216 -36 216 -146 c 256,17,18
 216 -256 216 -256 158 -351 c 0,19,20
 119 -413 119 -413 95 -413 c 0,21,22
 82 -413 82 -413 82 -398 c 0,0,1
EndSplineSet
Validated: 1
EndChar

